<svg id="Isolation_Mode" xmlns="http://www.w3.org/2000/svg" viewBox="0 0 617 259.5"><style>.st0,.st1{fill:#a5885d}.st1{fill-rule:evenodd;clip-rule:evenodd}</style><path class="st0" d="M285.7 196.3c-.5-.3-.5-.4-.7 0l.1.1.1.1c.2.1.4.3.5.6.2.4.4.6.8.7.3 0 .4 0 .4-.1 0 0 0-.1-.1-.2-.3-.6-.7-.9-1.1-1.2zm-2.9 1.2s0 .1 0 0c0 .2.2.5.4.6 0 0 .1 0 .1-.1v-.3c-.1-.1-.3-.2-.5-.2zm-1.7.1c0 .1.1.1.1.2.1.3.2.5.4.6.2.2.5.4.7.5h.1c0-.1 0-.4-.1-.6-.1-.2-.4-.5-.6-.7h-.6zm1.2 3c0 .1-.1.2-.1.2-.1 0-.2.1-.3.3-.1.2 0 .3 0 .3h.1c.1 0 .1-.1.2-.2s.2-.2.4-.3h.3c.1 0 .2 0 .3-.1v-.1c-.2-.1-.7-.2-.9-.1zM280 192c-.1.1-.2.1-.2.2-.2.1-.3.1-.5 0h-.3v.1l-.1.2s.1.1.3.2c.3.1.6.1.8-.1l.1-.1c.2-.1.4-.3.4-.5v-.1c-.2-.1-.4.1-.5.1zm10.2 10.1v.2c0 .1 0 .1-.1.1v.3c.1.1.3.1.4.1.1 0 .1-.1.1-.2 0-.2-.2-.5-.4-.5zm-3.1.1s0 .1 0 0c-.1.4-.1.6.1.8.1.1.2.2.3.2.1.1.3.2.4.4.1.1.3.3.4.2l.1-.1c.1-.2-.3-.6-.5-.8l-.2-.2c-.3-.3-.4-.4-.6-.5zm4.4-1.1c-.2 0-.4 0-.4.1v.3c.1.1.4.2.5.2.1 0 .2 0 .3-.1v-.2c-.1-.1-.1-.2-.4-.3zm-2.3-.5c-.1-.1-.1-.2-.2-.2-.1-.2-.2-.3-.2-.5-.1-.1-.1-.2-.2-.3-.2-.3-.3-.4-.6-.4v.4c0 .2 0 .3.1.5 0 .1.1.2.2.3l.2.2c.1.1.1.3.2.5.1.3.1.4.2.4s.5-.1.6-.3c.1-.1 0-.2 0-.2-.1-.1-.2-.3-.3-.4zm-.1 1.8c0 .1 0 .1 0 0 0 .7.1 1.3.3 1.7.1.2.2.3.4.4l.3.3c.1.1.2.3.3.5 0 0 0 .1.1.1 0-.2 0-.4-.1-.6-.1-.2-.2-.5-.3-.7-.1-.1-.1-.2-.2-.3 0-.1-.1-.2-.2-.4-.1-.3-.3-.8-.6-1zm20.2 19.1c0-.1-.2-.2-.4-.1-.1 0-.1-.1-.2-.1v.3c0 .1 0 .3.1.3.1.1.2.1.4.1.1-.2.1-.4.1-.5zm-49.8 6.2c-.1 0-.1.1-.2.2l-.3.3c-.2.1-.5.2-.8.2h-.3v.1c.1.2.6.2.7.2.4-.2.8-.4 1.3-.6 0-.2-.1-.4-.2-.5 0 0-.1 0-.2.1zm1.8-.1c0-.1 0-.2-.1-.3-.1-.1-.3-.2-.5-.2 0 .1 0 .3.1.3.1.2.2.2.5.2zm-4.1-7.7c-.1-.1-.3-.2-.4-.1-.1 0-.1.1-.1.2s-.1.2-.1.2 0 .1-.1.1c0 .1.2.5.4.7.1-.2.3-.8.3-1.1zm45.6-77c.1 0 .1 0 .2-.1.2-.2.2-.8.1-1.1h-.3c0 .1-.1.2-.2.2-.1.3-.1.7-.1.9.1 0 .2.1.3.1zm-2.2-.5c.1 0 .3-.1.5-.2.1-.1.1-.1.2-.1 0 0 .1 0 .1-.1.1 0 .2-.1.2-.1-.1-.1-.2-.1-.3-.1-.1.1-.3.1-.4.1-.1 0-.3 0-.3.1-.1.1-.1.2-.1.2-.1.1 0 .2.1.2zM295 219c-.2-.2-.3-.4-.5-.4v.3c.1.2.2.3.4.4 0 0 .1 0 .1.1.1.1.3.2.3.1 0 0 .1 0 .1-.1l-.4-.4zm-3-13.6c-.1.1-.2.1-.3.1h-.1c-.1 0-.1 0-.2.2-.1.3-.1.5.1.9.2-.1.3-.1.5-.1.1 0 .3 0 .5-.1.4-.1.5-.2.5-.5-.1 0-.2-.1-.3-.1-.1 0-.3 0-.5-.2-.1 0-.1-.1-.2-.2zm6.2 3.6c.1.2.3.2.5.4l.1.1c.2.1.5.3.8.3 0-.1-.1-.1-.1-.2-.1-.1-.1-.2-.1-.2-.1-.2-.3-.3-.4-.4-.2-.1-.3-.1-.5-.3l-.1-.1-.1-.1v.4c-.1 0-.1.1-.1.1zm-25.4 29.1c.1 0 .1.1.2.1.1.2.2.2.2.1.1-.1.2-.4.2-.6v-.1h-.3c-.1 0-.1 0-.2-.1 0 0-.1 0-.1-.1-.2.5-.2.6 0 .7zm14.7-22.5c.3 0 .5.1.8.2.1 0 .1 0 .2.1.1 0 .2.1.3.1v.2-.2c.2 0 .3-.1.4-.2.1-.1.3-.2.4-.3.1 0 .3 0 .4-.1h.2c.2 0 .3 0 .4-.1.2-.1.4-.2.6-.2h.3c.1 0 .3 0 .4-.1l.1-.1c0-.2 0-.5-.1-.8-.1-.3-.4-.4-.7-.5-.1 0-.2-.1-.3-.1l-.2-.1c-.2-.1-.5-.2-.7-.3-.2 0-.3-.1-.5-.1h-.4c-.3 0-.7-.1-.9-.4-.1-.1-.1-.3-.1-.5v-.2c0-.1-.1-.2-.1-.2s-.1 0-.1-.1c-.3 0-.5-.1-.8-.2-.3-.1-.7-.2-1-.2h-.5c-.4 0-.7-.1-1.1-.4-.5-.5-1.1-1.1-1.5-1.8-.2-.3-.4-.5-.7-.7-.2-.2-.5-.4-.7-.7-.3-.4-.6-.7-1-1-.3.3-.9.2-1.2-.1-.1-.1-.3-.5-.5-.4v.5c0 .2 0 .6-.3.6-.1 0-.2 0-.3-.1l-.1-.1c-.1-.1-.3-.2-.4-.4v-.1c-.2-.2-.3-.4-.5-.5-.4-.3-1-.5-1.6-.6-.1 0-.3-.1-.4-.1-.2-.1-.5-.1-.8-.1h-.5c-.2 0-.3-.1-.5-.3 0 0-.1-.3-.2-.5-.3-.1-.7-.2-1-.2h-1.1c-.3 0-.6 0-.8.2l-.1.1c-.2.1-.3.2-.5.2-.4.1-.8.1-1.1.1-.3 0-.6 0-.9.1h-.1c-.2 0-.5.1-.7.2-.1.1-.2.1-.3.2-.1.1-.2.2-.4.2-.1.1-.3.1-.4.2-.3.1-.7.3-.9.6-.2.2-.2.4-.3.7-.1.2-.1.4-.2.6-.2.3-.5.5-.8.6l-.2.1c-.1.1-.4.1-.5.3v.2c.1.2.3.3.6.3h.8c.3 0 .5 0 .7-.1.1-.1.3-.2.4-.4l.4-.4c.3-.2.6-.5 1-.7.6-.4 1.2-.7 1.9-1l.2-.1c.4-.2.8-.3 1.3-.3.4 0 .8 0 1.2.1.4.1.6.2.9.4l.1.1c.2.1.4.2.6.2.1 0 .2.1.3.1.4.2.8.5 1.1.8.3.2.5.5.8.6.2.1.4.3.6.4.4.3.9.6 1.2.7h.6c.3-.1.7 0 1 0h.7c.3 0 .7 0 .9.3l.3.6c.1.2.1.3.2.5.2.4.6.8.9 1.1.7.5 1.4.7 2.2.8.1 0 .5.1.6.4.1.4-.4 1-.9 1.4-.1 0-.1.1-.2.2s-.3.2-.3.2c0 .1 0 .3.1.4v.2c.3 0 .5.1.8.1.3 0 .6.1.9.1.3 0 .5-.1.7-.2.2-.1.5-.2.7-.3h.1c.3 0 .5.1.8.1 0 .2.1.2.3.2zm-10.7.7c-.3 0-.5.1-.5.2v.2c.3-.1.4-.1.5-.4zm-7.5 17.9l-.1-.1c0 .1-.1.2-.1.3 0 0 0 .1-.1.2 0 .1-.1.1-.1.1 0 .2.1.4.2.4h.1c.1 0 .1-.1.2-.2s.1-.3.2-.4l-.3-.3zm4.1-17c-.1.3-.3.5-.6.5-.1 0-.2 0-.2-.1v-.1c-.1 0-.2 0-.2.1v.1c0 .1.2.1.3.1.4.1.7.1.8-.1.1-.1.1-.3.1-.6 0 .1-.1.1-.2.1z"/><path class="st0" d="M280.9 213.4c-.1-.1-.2-.1-.4-.1l.3.3.4.4c0-.3-.1-.5-.3-.6zm-12.1 28.2c-.2-.1-.2 0-.2 0v.2c0 .1 0 .2-.1.3 0 .2-.1.4-.1.5.1.1.3 0 .4 0 .1-.1.2-.3.3-.7 0-.2 0-.2-.3-.3zm39-20.6c.1-.5 0-1.2-.2-1.4-.3-.3-1-.6-1.4-.7-.1 0-.3-.1-.5-.1-.4 0-.8 0-1.1-.6v-.2s0-.1.1-.1c0 0-.1 0-.1-.1-.3-.1-.6-.3-.8-.7-.1-.1-.1-.3-.1-.4 0-.1-.1-.3-.1-.4-.1-.1-.4-.2-.6-.3v.5c-.3.3-.6 0-.9-.2-.2-.1-.3-.3-.5-.3h-1.4c-.2 0-.4-.1-.6-.1v.2c0 .6 0 1.1-.1 1.7 0 .1-.1.2-.1.4-.1.3-.2.7-.1.8l.2.2c.2.1.4.3.4.5 0 .1 0 .2-.1.2-.5.2-.7.5-.7 1v.3c0 .4 0 .8.1 1.1v.2l.1.1c.2.2.7.2 1 .2h.3c.1-1.6.9-1.6 1.9-1.7h.1c.4 0 .8-.1 1.1-.3l.3-.1c.5-.2.8-.1 1.2.1l.2.1c.2.1.4 0 .7 0 .2 0 .5-.1.7 0 .2.1.3.2.5.4s.2.3.4.3c-.1 0 .1-.3.1-.6zm-26.3 1c.1 0 .3-.1.4-.1.2 0 .4.1.5.3.1.1.1.2.2.3.1.1.1.3.2.3.1.1.2.1.3.2.2.1.4.1.5.3.1 0 .1.1.1.1.2.2.3.3.4.2.2-.1.3-.3.4-.5.2-.3.4-.8 1-.5.3.2.7.3.8.1 0-.1.1-.2 0-.3-.1-.3-.4-.5-.7-.6l-.9-.3c-.4-.1-.8-.2-1.1-.4-.2-.1-.3-.2-.5-.3-.3-.2-.5-.4-.8-.5 0 .2-.1.3-.2.4-.2.2-.4.2-.6.2-.1 0-.1-.1-.1-.2h-.1s0 .1-.1.2c0 .1-.1.3-.2.4 0 .1.1.2.1.4.3 0 .4.1.4.3zm-2-9.4c-.1-.1-.3-.2-.4-.3-.1-.1-.1-.2-.2-.3-.1-.2-.3-.4-.4-.4-.2-.1-.4 0-.6 0 0 .3.4.6.7.7.1.1.3.1.4.2.3.1.5.2.8.4l.1.1-.4-.4zm13.8-.9c0 .2.2.4.4.4v.2-.2c.3 0 .7-.2.9-.5.1-.1.1-.2.2-.3.1-.1.2-.3.3-.4l.1-.1c.2-.2.5-.4.5-.8 0-.1 0-.2-.1-.3-.1-.1-.2-.2-.3-.2-.1 0-.1 0-.2.1 0 .1 0 .1-.1.2s-.1.1-.2.1-.1.1-.1.1v.7c-.2.3-.5.3-.8.4-.2 0-.4.1-.5.2-.1.1-.1.2-.1.4zm2.6-5c-.2-.1-.5-.2-.7-.2 0 0 0 .1-.1.1-.3.3-.3.3-.2.6.1.2.3.2.5.2h.4c.1 0 .4.1.5 0v-.1c0-.2-.2-.4-.4-.6zm-3-2.2v.1c.1.1.1.2.2.3.2.2.4.1.8-.2-.2-.2-.7-.2-1-.2zm-11.1-36.1v-.4c0-.1-.2-.1-.2-.1-.1 0-.1.1-.1.1v.1c0 .1.2.3.3.3zm15.7 41.3c.1 0 .4 0 .4-.4v-.1c-.2-.2-.3-.4-.5-.4h-.2c-.3 0-.3.2-.4.4 0 .1 0 .2.1.3.2.1.4.2.6.2zm-25.3-10.1c.1-.1.1-.2.1-.3 0-.1-.1-.1-.2-.1l-.1.1c-.1.1-.2.2-.2.3 0 0 0 .1-.1.1 0 .1-.1.2-.1.2.2.1.5-.1.6-.3zm-1.7.5c.1-.1.2-.4.2-.5 0-.1-.1-.2-.3-.2-.1 0-.2.1-.2.3 0 .2 0 .3.1.4.1.1.1.1.2 0zm11.4-8c.1 0 .1 0 .2.1s.3.1.4.2l.2.1c.1.1.2.1.3.2.2.1.4.2.5.3.2.1.4.1.6.1h.5c-.1-.1-.2-.2-.4-.2-.1-.1-.2-.1-.3-.2-.1-.1-.2-.1-.4-.2s-.5-.2-.7-.4l-.9-.6s-.1 0-.1-.1c-.1 0-.1-.1-.1-.1-.1.3-.1.6 0 .7 0 .1.2.1.2.1zm-16.3 31.3c0 .1 0 .2-.1.4-.1.3-.1.5 0 .6l.5.5c.1-.4.1-.8.1-1-.1-.1-.3-.4-.5-.5zm8.5-24.2c.1-.1.2-.1.2-.2h-.2c-.1 0-.2 0-.3-.1h-.2s0 .1-.1.1-.3.2-.3.3c0 0 0 .1.1.1.3.1.6 0 .8-.2zm25.2 23.9s0 .1 0 0v.6c0 .1.2 0 .3 0h.1v-.5c-.1 0-.2 0-.4-.1zm-49.7 13.2c.1-.2.2-.4.3-.5.2-.2.4-.3.7-.4.4-.2.7-.4.9-.7.2-.3.2-.6.2-1 0-.5 0-1.2.6-1.6.1-.1.3-.2.4-.2.3-.1.5-.3.7-.6.1-.2.2-.5.3-.8 0 0-.1 0-.1-.1-.1-.1 0-.2 0-.3 0 0 .1 0 .1-.1v-.2c-.3-.1-.8-.2-1.3-.1-.2.1-.4.2-.6.2h-.1c-.1 0-.1 0-.1-.1-.3-.8-.2-1.7-.1-2.5v-4.2c-.3 0-.5 0-.8-.1-.3-.1-.6-.1-.9-.1h-.5c-.6 0-1.2.1-1.9.1-.3 0-.5.1-.6.2-.1.1-.1.3 0 .6 0 .1 0 .1.1.2.1.3.2.8-.2 1-.3.2-.6 0-.8-.1.1.1.1.3.2.4.2.3.6.4 1 .6.5.2 1.1.4 1.3 1 .1.3.1.7 0 1.1-.3 1.1-1.2 1.2-2 1.2-.5 0-.9.1-1.3.3-.3.2-.6.9-.9 1.5-.4.9-.8 1.7-1.4 1.8.1.1.2.2.2.3.5.7 1 1.4 1.6 2 .9.9 2.2 1.3 3.2 1.6.5.2.9.1 1.3-.1.3.1.4-.1.5-.3z"/><path class="st0" d="M244 231c.3-.7.6-1.3 1-1.6.4-.3.9-.3 1.4-.4.7-.1 1.4-.1 1.7-1 .1-.4.1-.6 0-.8-.2-.4-.6-.6-1.1-.8-.4-.2-.9-.3-1.1-.6-.2-.3-.3-.6-.4-.9v-.2c0-.1.1-.1.1-.1.1 0 .3.1.4.2.2.1.4.2.5.1.2-.1.1-.2 0-.6 0-.1-.1-.2-.1-.3-.1-.4 0-.7.1-.9.1-.2.4-.4.8-.4.6 0 1.2-.1 1.8-.1h.5c.4 0 .7 0 1 .1.3 0 .5.1.8.1v-.7c0-.1.1-.2.1-.2.2 0 .4.1.5.3.2.1.3.3.4.2.2-.1.5-.5.6-.8 0-.1.1-.2.1-.2.1-.1.1-.3.2-.4.1-.3.3-.5.5-.8.3-.3.6-.5 1-.8h.1l.1.1c0 .3 0 .6-.1.8 0 .2-.1.3-.1.5h.2c0-.1 0-.1.1-.2l.3-2.4c0-.4.1-.8.1-1.1.1-1.3.6-2.3 1.2-3.4.1-.2.2-.3.3-.5.3-.6.7-1.5.5-2.1-.1-.3-.3-.5-.6-.7-1.1-.5-2.4-.3-3.5-.1l-.3.1c-2.2.4-5.1.9-5.5 4.1 0 .4-.1.7-.1 1.1-.1 1.1-.2 2.2-.8 3.2-.5.8-1.4 1.4-2.3 1.6-.4.1-.8 0-1.2.1-.4.1-.7.3-1.1.5l-.2.1c-.5.2-1 .3-1.5.4-.3 0-.6.1-.9.2-.2.1-.4.1-.6.2-.6.2-1.3.5-2 .1l-.9-.6c-.4-.3-.8-.7-1.3-.7-.9-.1-1.6-.2-2.2-1.3-.3-.5-.5-1.1-.7-1.7-.2-.5-.4-1.1-.7-1.6-.2-.3-.4-.7-.6-1-.4-.6-.8-1.3-1.1-2.1-.3-.7-.5-1.4-.7-2.1-.2-.5-.3-1-.5-1.4-.4-1.1-.7-2-.6-3.2 0-1 .2-2.1.4-3.1l.1-.6c.1-.4.1-.7.1-1.1.1-.4.1-.9.2-1.3.1-.5.1-.9.2-1.4v-.3c.1-.6.3-1.2.5-1.8.1-.1.1-.3.2-.4-.2 0-.4-.2-.5-.3-.1 0-.1-.1-.2-.1-.2-.1-.4-.1-.6-.2-.2-.1-.4-.1-.6-.2-.3-.2-.5-.2-.8-.2-.5 0-.8-.3-1.2-.6l-.2-.2c-.2-.2-.5-.4-.8-.6 0 0-.1 0-.1-.1-.1-.1-.3-.1-.4-.2-.2-.2-.2-.6-.3-1 0-.1 0-.3-.1-.4 0-.2-.1-.4-.1-.6-.1-.3-.1-.6-.2-.8-.2-.6-.6-1-1-1.4l-.7-.7c-.1-.1-.1-.2-.2-.3-.2-.3-.5-.6-.6-1-.1-.2-.2-.4-.2-.6-.1-.4-.2-.7-.4-1-.5-1-1.2-1.6-1.9-2.2l-.2-.1c-.4-.3-.7-.6-1.1-.6-.2 0-.3 0-.5.1-.2 0-.3.1-.5.1-1 0-1.5.3-1.7 1.1 0 .1 0 .2-.1.4-.1.4-.2.9-.4 1.1-.3.3-.6.1-.8-.1-.1-.1-.2-.1-.2-.2-.2-.1-.4-.1-.7-.2-.3-.1-.7-.1-1.1-.4-.4-.3-.8-.7-1.1-1.1-.1-.2-.3-.3-.4-.5-.4-.4-.5-.9-.7-1.3-.2-.4-.3-.9-.6-1.2-.4-.5-.9-.9-1.3-1.2-.5-.4-1-.9-1.5-1.4-.1-.1-.2-.2-.2-.3-.5-.6-.9-1.1-1.6-1.2-.5-.1-1.1 0-1.7 0H200v.3c.1.6.1 1.3-.3 1.6-.2.2-.7.2-1 .2h-2c-.3 0-.7 0-1 .1-1.3.1-2.6.2-3.8-.4-.8-.3-1.6-.5-2.5-.6-1.1-.2-2.2-.4-3.1-1l-.9-.6c-.3-.2-.6-.5-.9-.7-.2-.1-.5-.2-.7-.2-.4-.1-.8-.2-1.1-.5-.2-.2-.3-.3-.4-.5-.3-.4-.7-.8-1.2-1-.2 0-.5.1-.7.3-.2.1-.3.2-.5.3-.4.1-.9.2-1.3.2h-.4c-.6 0-1.1 0-1.7-.1v1c0 .5.1.6.4.8l.1.1c.3.3.5.7.6 1.2v.7c0 .3-.1.5 0 .7.1.4.6 1.2.9 1.2h.1l.1.1v.9c0 .2.1.3.3.4.1.1.1.2.2.3.2.3.2.5.3.8.1.3.1.5.4.8l.2.2c.4.3.8.7 1.2 1.1.2.2.3.3.4.5.2.2.4.5.6.7.2.2.6.5.9.9.4.5.8 1.1 1.1 1.7v.2c0 .1 0 .1-.1.1-.6.3-1.2.9-1.6 1.7-.3.6 0 .9.6 1.4.2.1.3.3.5.4.6.7 1.3 1.2 2 1.8l.6.5c.7.6 1.5 1.1 2.3 1.5h.1c.4.2.8.4 1 1.1.2.8.2 1.5.1 2.2v.6c0 .1 0 .3-.1.5 0 .3-.1.6 0 .8.2.4.9.7 1.4 1l.6.3c1.4.8 2.6 2.4 3.3 4.2.2.5.2.5.7.5.2 0 .5 0 .7.1h.3c.2-1-.4-1.6-1-2.4-.4-.5-.7-1-.9-1.5 0-.1-.1-.1-.1-.2-.1-.2-.1-.3-.2-.5v-.9s-.2.1-.5.7v.1c0 .1-.1.1-.2.1s-.1-.1-.1-.2c0-.3-.1-.5-.2-.8-.1-.4-.2-.8-.2-1.3 0-.4.1-.7.2-1v-.1s-.1 0-.2-.1c-.1 0-.2-.1-.4-.2-.2-.2-.2-.4-.2-.6 0-.1 0-.2-.1-.3-.1-.2-.2-.3-.3-.4-.2-.1-.3-.3-.4-.8v-.1c0-.7 0-1-.4-1.4-.2-.2-.4-.5-.5-.8-.1-.3-.3-.6-.4-.7-.1-.1-.1-.1-.2-.1h-.3c-.3-.1-.5-.4-.6-.6 0 0-.1-.1-.1-.2-.2-.3-.4-.5-.6-.8-.2-.3-.4-.6-.7-.9-.4-.7-.7-1.3-.9-2.1-.1-.3-.2-.6-.4-.9-.1-.2-.2-.3-.2-.5-.3-.8-.4-1.2-.2-2 .2-.7 0-1.2-.6-1.5l-.1-.1c-.1 0-.2 0-.4-.1-.6-.1-1.2-.2-1.7-.6-.8-.5-1.3-1.6-1.6-2.5-.4-1.1-.5-2.1-.3-3.1.1-.7.3-1.1.6-1.3.2-.1.5-.1.8 0l.2.1c.8.4 1.5.8 2.4 1.1 1.2.3 1.6 1.4 1.8 2.8v.1c.2 1.3.3 2.4.9 3.5.3.6.6 1.2.8 1.8.2.5.5 1.1.8 1.6.3.7.8 1 1.3 1.4.1.1.2.1.3.2l.3.3c.5.4 1 .8 1.5.7.1 0 .3-.1.4-.2h.1s.1.1.1.2c0 .9.1 1.8.6 2.5.4.6.9.8 1.5 1 .2.1.5.2.7.3.3.1.4.4.6.6l.2.2c.4.5.6.7.2 1.4-.4.8-.5 1.2 0 1.8l.2.2c.4.4.8.8 1.2 1 .1 0 .2.1.4.1.4.1.8.2 1.1.5.2.2.2.6.3.9 0 .3.1.5.2.7.1.2.3.3.5.5s.5.3.7.6l.3.6c.3.5.5.9 1 1.2l.2.1c.5.3.9.5 1.3 1s.7 1.1 1 1.7l.3.6c.2.4.5.7.8 1.1.6.8 1.3 1.7 1.3 2.9 0 .7-.2 1.1-.4 1.5-.1.1-.1.3-.2.4-.2.5-.1 1 0 1.5 0 .1 0 .3.1.4v.1l-.1.1c-.2 0-.3.1-.3.2-.1.4.6 1.5.9 1.9.2.2.4.5.5.7.4.6.7 1.1 1.3 1.1.9.1 1.5.8 2.2 1.6l.2.2c.2.2.3.4.5.6.5.6.8 1.1 1.6 1.2h.5c.4 0 .7 0 1.1.2.2.1.3.2.5.2.3.1.5.2.8.4l.1.1s.1 0 .1.1c.4.3.9.6 1.3.9.6.5 1.2 1 1.9 1.3.8.5 1.7.7 2.6 1 .5.1.9.3 1.4.4.6.2 1.2.6 1.7 1 .5.3.9.7 1.5.9.3.1.6.2.8.4 1 .5 1.9.9 2.9.9 1.1 0 1.7-.6 2.5-1.2.2-.1.3-.2.5-.4.5-.4 1.1-.8 1.8-.5.5.2 1 .5 1.5.8.3.2.5.3.8.5l.4.2c.8.4 1.6.9 2.2 1.6.1.1.2.3.3.4.1.1.2.3.3.4h.1c0 .1.1.1.1.2 0 0 .1 0 .1.1.6-.1 1-1 1.3-1.8zM142.9 102.9s.1-.3.1-.4h-.3c-.2 0-.4.1-.6 0-.3-.1-.4-.3-.6-.5 0-.1-.1-.1-.1-.2-.1-.2-.3-.2-.4-.3l-.1-.1h-.3c-.2 0-.3 0-.5-.1-.1-.1-.1-.2-.1-.4s0-.4.1-.5c.2-.2.3-.2.5-.1h.1c.2 0 .4-.1.4-.2 0 0 0-.1-.1-.2-.2-.2-.5-.1-.8-.1-.3 0-.5 0-.8-.1-.9-.4-.5-2.2-.2-3.2.1-.2.1-.4.1-.5.1-.6.3-1.4 0-1.9-.2-.3-.6-.4-.9-.5-.2-.1-.4-.1-.5-.2-.3-.2-.7-.3-1-.5-.9-.4-1.9-.8-2.7-1.7-.5-.6-1-1.2-1.5-2l-.9-1.5c-.2-.3-.4-.5-.6-.8l-.3-.3c-.6-.7-1.3-1.2-1.9-1.7-.3-.2-.5-.4-.7-.7-.1-.1-.1-.2-.2-.2l-.3-.3c-.2-.2-.4-.4-.5-.6-.4.2-.9 0-1.4-.4-.2-.2-.3-.3-.4-.5-.3-.4-.5-.7-.8-.6-.6 0-1.1.4-1.6.8-.1 0-.1.1-.2.1-.3.2-.6.4-.7.7-.1.1 0 .3 0 .5 0 .1.1.2.1.4s0 .4-.1.5c-.2.3-.7.3-1.1.2h-.5c-.3 0-.7.1-.9-.3-.1-.1-.1-.2-.1-.4 0-.1-.1-.2-.1-.3-.3-.4-.8-.6-1.2-.8-.2-.1-.3-.1-.5-.2-.1 0-.1-.1-.2-.1-.3-.2-.8-.4-1-.7-.1-.1-.2-.3-.2-.5-.1-.1-.1-.3-.2-.4-.1-.1-.2-.2-.3-.2 0 0-.1 0-.1-.1-.2-.1-.5-.3-.7-.5l-.2-.2c-.1.2-.1.4-.1.7.2.1.3.2.4.3.1 0 .1.1.2.1.2.2.3.4.5.6l.1.2.3.3c.1.1.2.1.2.2.1.1.2.2.2.4.1.1.2.3.2.4.1.1.2.1.3.1.1 0 .2.1.4.2.1.1.2.2.2.3.1.1.1.2.2.2.2.2.4.3.6.4l.2.1c.1.1.3.1.4.2.1 0 .3.1.4.2.1.1.2.1.3.2.1 0 .1.1.2.1.4.2.7.2 1.1.3h.2c.4 0 .8.1 1.1.2.2 0 .3.1.5.1h.1c.2 0 .4.1.6.2.2.1.3.3.3.5 0-.2 0-.4.2-.6.3-.5.6-.2.8 0l.2.2c.1.1.2 0 .3-.1l.1-.1c.3-.3.5-.3.8-.2.4 0 .6.3.9.5.2.2.4.4.7.4h.1c.3 0 .5.1.7.4.4.5.9.9 1.4 1.4l.1.1c.3.2.6.4.6.8s-.3.5-.5.6c.2.3.3.7.5.9.1.1.2.1.3.1.2 0 .5.1.5.6v.5s0 .1.1.1c.1.1.2.2.2.3 0 .1 0 .2-.1.3-.2.4-1 .4-1.8.4h-.4c-.2 0-.3 0-.3.1s.2.6.3.8c.1.2.3.2.6.1.2 0 .4-.1.7 0 .6.2.8.7 1 1.2.1.1.1.3.2.4.2.3.3.3.6.3h.5c0-.2.1-.5.1-.7v-.2c.1-.6.2-.7.7-.7h.9c.2 0 .3-.1.4-.3.2-.2.4-.4.7-.3.1 0 .1.1.1.2 0 .2 0 .5-.1.7 0 .1 0 .3-.1.4v.3c0 .3 0 .7-.2 1-.4.3-.7 0-1-.3-.1-.1-.3-.2-.4-.3 0 .3 0 .7.1.9.1.2.4.3.6.4.1.1.3.1.4.2.1.1.2.1.3.2.1.1.2.2.3.2 0 0 .1-.1.1-.2s.1-.3.1-.5c.1-.6.3-1.3.8-1.3 0 0 .1 0 .1.1v.1c-.1.7 0 1.2.1 1.7.1.4.2.5.4.7.1.1.2.2.2.3.3.4.5 1.1.4 1.6-.1.2-.2.4-.3.5-.1.1-.2.2-.2.3-.1.2-.1.4 0 .6.1.3.5.5.9.7l.6.3c.3.2.3.3.6 0s.5-.7 1-.3c.1.1.2.1.3.2.2.1.3.3.6.3.9.1 1.1.1 1.1 0zm125.8 151.5c.1-.2.2-.3.3-.4.2-.2.2-.3.1-.8 0-.1-.1-.3-.1-.4-.1-.3-.3-.7-.2-1.1 0-.5.3-.6.6-.7h.1c.3-.1.3-.2.3-.3 0-.2-.4-.5-.6-.7l-.3-.3c-.7-.7-1.2-1.3-1.5-2.3v-.1c-.2-.1-.4-.1-.7-.1h-.3c-.4-.1-.9-.1-1.3-.4 0 0-.1-.1-.1-.2 0-.2.1-.4.1-.6-.3-.1-.7-.2-1-.1l-.3.3c-.2.3-.5.6-.9.4-.1-.1-.2-.2-.2-.3 0-.1-.1-.1-.1-.1h-1c0 .3-.1.5-.1.8-.1.5-.2 1.1-.1 1.5.3.7.8 1.4 1.6 2 .5.4 1.1.7 1.8.9.1 0 .2.1.3.1.2.1.5.2.7.2.4 0 .6.1.8.6.2.5.2 1 .2 1.5 0 .3 0 .6.1.9h.3c.2 0 .5 0 .7.1.1 0 .2.1.3.1.2.1.3.1.4.1-.1-.3 0-.5.1-.6z"/><path class="st0" d="M262 245.7h.2c.2 0 .3 0 .5.1.1.1.2.2.2.3 0 .1.1.1.1.1.2.1.3 0 .6-.3.1-.1.2-.3.4-.3.3-.2.8-.1 1.2 0h.2s.1 0 .1.1v.2c0 .1 0 .1-.1.2 0 .1-.1.3-.1.4.3.2.7.3 1.1.3h.3c.2 0 .5 0 .7.1 0-.2-.1-.4-.1-.6 0-.3-.1-.5-.1-.8v-1.8c0-.5 0-.9.1-1.3.1-.7.1-1.3 0-2V239c0-.2-.1-.3-.1-.5-.1-.3-.1-.5 0-1.1.2-.9.5-1.6.9-2.3.2-.5.3-.5 0-1-.2-.4-.4-.8-.5-1.3-.2.3-.6.6-1.2.7-.1 0-.3.1-.5.2-.4.2-.8.3-1.2.2-.2-.1-.3-.2-.5-.3-.3-.2-.4-.3-.6-.1-.2.2-.3.4-.5.6-.3.3-.5.6-.8.9-.1.1-.2.3-.4.5-.3.4-.6.9-.9.9-.2 0-.4-.2-.5-.3l-.2-.2-.2.2c-.1.1-.2.2-.3.2-.1.1-.3.1-.5.1s-.5.1-.6.2c0 .1.1.2.1.2.1.1.2.2.3.4.1.5.1.8-.2 1.1-.5.6-1 .8-1.8.7h-.8c.2.3.3.6.4.9.2.4.3.9.6 1.2.2.2.3.3.6.3.1 0 .2.1.3.1.5.2.8.5 1 1 .2.3.3.6.4 1 .2.5.3.9.6 1.3.3.3 1 .4 1.4.5l.4.4z"/><path class="st0" d="M256.7 239h.5c.7 0 1.1-.1 1.6-.6.2-.2.2-.3.1-.7 0-.1-.1-.2-.2-.3-.1-.1-.2-.2-.2-.4v-.4c.1-.2.4-.3.8-.3.2 0 .3 0 .4-.1l.2-.2c.2-.2.3-.3.4-.3.2 0 .3.1.4.3.1.1.2.2.3.2.2 0 .5-.4.7-.8.1-.2.3-.4.4-.6.3-.3.5-.6.8-.9.2-.2.3-.4.5-.6.4-.4.7-.2.9 0 .1.1.2.2.4.3.2.1.6-.1 1-.2.2-.1.4-.2.5-.2.3-.1.7-.2 1-.5v-.1l.1-.1v-.2c0-.1 0-.1.1-.2-.1-.1-.3-.3-.5-.4-.5-.3-1-.8-1.4-1.2-.5-.4-1.1-.9-1.7-1.1-.4-.2-.8-.1-1.2-.1h-.7c-.2 0-.4 0-.6-.1-.1 0-.2-.1-.3-.2-.1-.1-.1-.1-.2-.1-.3-.1-.6.2-1 .5-.1.1-.2.2-.3.2-.6.4-.8.5-1.4.3-.4-.1-.7-.1-1.1-.1h-.5c-.6 0-.9.1-1.4.3-.2.1-.4.1-.6.1-.1 0-.3 0-.4.1-.1.4-.2.8-.4 1.1-.2.4-.5.5-.8.7-.1.1-.2.1-.4.2-.4.3-.4.7-.4 1.3v.8c0 .1.1.1.2.2.1 0 .1.1.2.1l.3.3c.1.1.1.2.2.2l.1.1c.1 0 .2.1.3.2.1.2.1.5.1.8v.1c.3.1.5 0 .8-.2.4-.3.8-.2 1.1-.1.3.1.6.3.6.8v1.2c0 .2 0 .5.1.6l.1.1c.1.2.3.2.5.2zm-6.2-178.5c-.2-.1-.4-.3-.7-.4-.4-.2-.8-.5-1.1-.6-.5-.2-1.1-.2-1.7-.2h-2.2c.2 0 .4.1.5.1h.2c.4.1.9.2 1.3.3.1 0 .2.1.3.1.1.1.2.1.4.1h.9c.4.1.8.4 1.1.7.3.2.5.2.8.2h2.2-.1c-.5.1-1.2 0-1.9-.3z"/><path class="st0" d="M159.8 117.3c.3 0 .6.1.9.1.3.1.5.1.8.1h3.2c.4 0 .8 0 1.2.1h3.3c.9 0 1.8 0 2.8-.1 1.2 0 2.4-.1 3.6-.1h2.2c1.2 0 2.4.1 3.6 0 1.6-.1 3.2-.1 4.8-.1h.4c.6 0 1.2 0 1.9-.1h.2c.2 0 .5-.1.7 0 .3.1.6.1.9 0 .5-.1 1-.1 1.5-.1h.5c1.1 0 2.2 0 3.3.1 1.6.1 3.3.1 4.9 0h4.6c.3 0 .7 0 1.1-.1h1.6c.6 0 1.2 0 1.7-.1.6-.1 1.3-.1 1.9-.1.6 0 1.2 0 1.9.1 1.5.1 3 .1 4.5.1.8 0 1.5 0 2.3-.1.7 0 1.4 0 2 .1.5 0 1.1.1 1.6.1.6 0 1.3 0 1.9-.1.5 0 1-.1 1.6-.1h3.5c.6 0 1.3 0 2-.1.2 0 .4 0 .7-.1.2 0 .5 0 .7-.1.2 0 .4-.1.4-.1v-.4c0-.1 0-.2-.1-.4 0-.2-.1-.4-.1-.6 0-.1 0-.1.1-.2h.2c.1.1.2.1.3.2.2.1.4.2.5.4.1.3.2.5.3.8.2.5.3 1 .7 1.2.1.1.2.1.4.1h.1c.3 0 .7.1 1.1.3.4.2.6.3.9.2.1 0 .2-.1.3-.1.2-.1.4-.2.7-.2.8 0 1.6.3 2.4.6.2.1.3.1.5.2.4.1.8.3 1.2.6.1 0 .1.1.2.2s.3.3.4.3l.2-.1.1-.1c.1 0 .2-.1.2-.2.2-.2.5-.4.8-.2.3.1.7.4 1 .8l.2-.2c.1-.1.1-.2.2-.2v-.1c.2-.3.3-.4.6-.3.2.1.4.3.6.4.2.2.2.2.4.2.1 0 .3 0 .4.1.2 0 .3.1.5.1h1l.1-.1c.1 0 .2 0 .2.1.1-.1.2-.2.4-.3l.3-.3c.1-.1.2-.2.3-.2l.3-.3.6-.6c.2-.2.4-.5.7-.7.1-.1.2-.2.4-.3.4-.3.9-.7 1.2-1.1.5-.8 1.7-.7 2.6-.6h.4c.2 0 .4 0 .6.2.4.2.7.4 1.3.6 1 .4 1.9.9 1.8 2.5 0 .6.1.9.3 1.4.1.2.2.5.4.7.1.3.2.5.4.8.1.1.1.2.2.4.2.5.4 1 .8 1.2.2.1.4.2.6.2.2 0 .5.1.7.2.1.1.2.2.4.3.3.2.6.4 1 .5.3.1.5.2.8.3.9.3 1.7.6 2.7.6.1 0 .2 0 .4-.1s.5-.2.7 0c.1.1.3.2.4.3.1.1.2.2.4.3l.1.1v.2l-.3.6c-.2.4-.4.8-.7 1.2-.5 1-.6 2-.7 3.3-.1 1.5-.1 3-.4 4.4-.2 1.1-.7 1.8-1.2 2.6-.2.3-.4.5-.5.8-.2.4-.3.7-.2 1 .1.3.4.4.7.4.7 0 1.3-.7 1.8-1.4.1-.2.3-.4.4-.5.9-1.1 1.9-1.7 3-1.9.5-.1.9-.1 1.4-.1.6 0 1.3 0 1.9-.2.7-.3.9-.8 1.2-1.6.1-.2.2-.5.3-.7.5-1.1 1.6-1.2 2.5-1.2 1.4 0 2.5-.1 3.5-.2h.8c.1 0 .2-.1.3-.2.1-.1.1-.1.2-.1.2-.2.4-.3.7-.5.2-.2.5-.3.7-.5.1-.1.3-.2.4-.4.4-.3.8-.7 1.2-1 .6-.4 1.1-.4 1.8-.4h.1c1.4.1 2.7.1 4 0h.1c1.1 0 2.2 0 3.2.1h.1c.2 0 .4 0 .5-.1 0 0 .1-.1.1-.2 0-.3 0-.5.1-.7.1-.1.3-.2.5-.1.1 0 .2.1.3.1.2.1.4.1.6 0 .2-.1.5-.4.7-.7l.3-.6c.1-.2.2-.4.3-.7.1-.1.2-.3.3-.4.2-.2.3-.4.4-.7.1-.2.1-.5.1-.7.1-.5.1-1 .5-1.4.4-.5.9-1 1.3-1.5l.2-.2c.5-.6.8-.4 1.2-.2.2.1.3.2.5.2h.8c.6 0 1.2 0 1.6.4.6.6.5 1.7.5 2.7v.6c0 .9.1 1.6.5 2.2.5.7.9 1.1 1.6 1.2.7.1 1.5 0 2.2-.2.1 0 .2 0 .3-.1.6-.1 1.4-.3 1.9-.9.1-.1.2-.3.3-.5l.3-.6c.2-.3.4-.5.7-.7l.2-.1c.4-.3.4-1.1.4-1.8v-.7c0-.4 0-.9-.2-1.1-.2-.2-.7-.1-1 0h-.2c-.1 0-.2 0-.2-.1-.1-.5.2-1.1.6-1.4.1-.1.2-.1.2-.2.1-.1.3-.2.4-.3.1-.1.1-.2.2-.3l.2-.2h-2.1c-.6.1-1.4.1-1.9-.3-.2-.2-.3-.4-.2-.6.1-.5 1.1-.5 1.1-.4h.1c.6 0 1.1.1 1.7-.2.4-.2.9-.5 1.4-.8-.2-1-.8-1.6-1.9-1.9-.7-.2-1.5-.1-2.3.1h-.2c-.7.1-1.4.3-2.2.4-.8.2-1.7.6-2.4 1-.6.3-1.1.6-1.7.8l-.2.1c-.6.2-1.3.5-1.9.9l-.6.6-.5.5-.2.1c-.1.1-.3.2-.4.4l-.2.2c-.1.1-.2.2-.2.3-.1.2-.2.4-.2.7-.1.2-.1.4-.2.7 0 .1-.1.2-.1.3 0 .1-.1.1-.1.1h-.1c-.2 0-.6 0-.8-.3-.1-.1-.1-.2-.1-.4 0 0 0-.1.1-.1.1-.1.2-.1.2-.1.2-.1.3-.2.4-.3l.3-.3c.1-.1.2-.2.3-.4l.3-.3s0-.1.1-.1c.1-.1.1-.2.2-.2l.2-.2c.2-.3.3-.5.3-.6-.2-.1-.4-.1-.6-.2-.2 0-.4-.1-.6-.2-.1 0-.2-.1-.3-.1-.1-.1-.2-.1-.3-.2-.1 0-.3-.1-.4-.1-.1 0-.2-.1-.3-.1-.4-.1-.7-.2-1-.3-.1 0-.1-.1-.1-.2s.1-.1.1-.1c.3 0 .5.1.8.2.1 0 .1.1.2.1h.2c.2 0 .4.1.6.2.3.1.7.1 1 .2.1 0 .2.1.3.1.3.1.7.3.9.1.2-.2.3-.4.4-.6.1-.2.3-.4.5-.6.3-.3.6-.7.9-1 .1-.2.3-.3.4-.5.4-.5 1.2-.6 1.8-.7h.9c.5 0 1 0 1.3-.4.2-.3.4-.6.6-1 .2-.4.5-.9.8-1.2.2-.3.5-.6.8-.8.4-.2.8-.3 1.3-.4.2 0 .3-.1.5-.1.9-.2 1.8-.2 2.7-.3h.5c.2 0 .5-.1.7-.1.7-.1 1.3-.2 1.9.1.2.1.3.2.4.4l.1.1c.2.2.3.2.6.2h.1c.7 0 1.3-.1 2-.2.4-.1.8-.1 1.3-.2.7-.1 1.3-.1 2-.1h1.4c.7 0 1.5-.1 2.2-.3.3-.1.6-.1.8-.2.4-.1.7-.1 1-.3.3-.1.4-.3.5-.6.1-.3.3-.5.5-.7l.2-.2c.1-.2.3-.3.4-.5.1-.2.2-.3.4-.5.3-.4.6-.4 1-.4h.1c.8 0 1.7 0 2.5-.1.5-.1.9-.2 1.3-.4.3-.1.5-.3.7-.6.1-.1.2-.1.2-.2.2-.1.3-.3.5-.4.3-.2.6-.5.8-.8.5-.5.7-.9.5-1.6 0-.1-.1-.2-.1-.3-.1-.3-.2-.5-.2-.8v-.3c0-.3-.1-.5-.2-.7-.2-.5-.7-.7-1.2-.9l-.1-.1c-.6-.2-1.1-.5-1.6-.8-.1.3-.3.5-.5.6-.1 0-.1.1-.2.1h-.1l-.1-.1c0-.1-.1-.3-.1-.6-.1-.4-.1-.9-.3-1-.1-.1-.4 0-.5 0h-.2c-.4.1-.9.1-1.3.3-.2.1-.5.2-.7.3-.3.1-.7.3-1.1.3h-.3c-.6.1-1.2.2-1.7.5s-.9.6-1.2 1.3c0 .1-.1.1-.2.1-.4-.1-.7-.4-.8-.7-.1-.2 0-.5.1-.8.4-.7 1.2-1.1 1.8-1.3h.1c.8-.3 1.7-.5 2.9-.5.6 0 1.2-.3 1.8-.7.3-.2.6-.5.7-.8 0-.1.1-.1.1-.2s.1-.2.1-.3c-.1 0-.2 0-.3.1h-.2c-.1.1-.3.2-.5.1s-.2-.4-.3-.6c0-.1-.1-.3-.1-.3-.1 0-.1.2-.2.3-.1.2-.2.6-.5.6-.1 0-.2-.1-.3-.1l-.1-.1h-1c-.2 0-.5 0-.7-.2-.2-.2-.5-.5-.6-.8-.1-.3-.1-.5-.1-.7v-.1l-.6.3c-.4.1-.7.1-1.1-.1-.3-.1-.5 0-.7.2-.1.1-.2.1-.3.2-.3.2-.7 0-1-.1h-.1c-.4-.2-.6-.6-.7-1 0-.1-.1-.1-.1-.2-.3-.6-.6-1.3-.9-1.8-.1-.2-.2-.4-.4-.5 0 0-.1 0-.1-.1-.1 0-.2-.1-.3-.2-.3-.4-.1-1 0-1.3 0-.1.1-.1.1-.2.1-.2.1-.3 0-.4-.1-.1-.2-.1-.3-.1-.2 0-.3.1-.5.2l-.6.3c-.1 0-.1 0-.1-.1v-.2c.1-.2.3-.4.5-.5.3-.2.5-.4.5-.8 0-.3-.3-.6-.5-.9-.1-.1-.2-.2-.2-.3-.1-.2-.3-.5-.4-.8-.2-.4-.4-.8-.7-1.1l-.1-.1-.2-.2c-.1 0-.3.1-.5.2-.6.2-1.2.5-1.4 0-.1-.1-.1-.2-.1-.3 0-.2.2-.4.5-.5.1-.1.3-.2.4-.3h-.4c-.6.1-.9.1-1-.2-.1-.3.2-.5.5-.7l.4-.4h-.8c-.2 0-.6.1-.8-.2-.2-.3-.1-.7 0-1 0-.1 0-.2.1-.3v-.7c-.3 0-.7.1-1-.2-.2-.2-.3-.5-.4-.9-.1-.2-.1-.3-.2-.5s-.2-.4-.4-.5c-.1-.2-.3-.3-.4-.5 0-.1-.1-.2-.1-.3-.1-.3-.3-.5-.4-.5-.2.1-.4.8-.5 1.2v.2c-.2.5-.3 1-.3 1.5v.4c-.1.7-.2 1.7-1 1.7h-.3c-.3 0-.5-.1-.7.1-.1.2-.2.4-.2.6 0 .2-.1.4-.1.5-.1.2-.2.3-.3.3-.2.1-.5-.1-.7-.3-.2-.1-.4-.3-.7-.3-.3 0-.6.1-.8.2-.1 0-.2.1-.2.1-.1 0-.1.1-.2.1-.3.1-.6.2-.8.4-.2.2-.4.4-.5.7v.1c-.1.3-.1.6-.3.7-.1 0-.1.1-.2 0-.2-.1-.3-.5-.4-.9 0-.2-.1-.4-.1-.5-.1-.1-.3 0-.6.3-.1.1-.2.2-.3.2l-1.2.6c-.1 0-.2.1-.3.1-.3.1-.5.2-.7.4-.1.1-.1.1-.2 0s-.1-.2-.1-.2c.1-.3.3-.8.6-1.1.1-.1.2-.2.4-.3.2-.1.3-.2.4-.4.1-.2.2-.5.2-.7 0-.3-.2-.5-.3-.6-.1-.1-.3-.1-.5-.2-.1 0-.3-.1-.4-.2-.1-.1-.3-.2-.4-.3-.1-.1-.3-.2-.4-.3-.1-.1-.3-.1-.4-.2-.4-.1-.8-.3-1-.9 0-.1 0-.3-.1-.4 0-.2 0-.4-.1-.6-.2-.4-.7-.4-1.1-.4-.2 0-.4 0-.6-.1-.1 0-.2 0-.4-.1-.1 0-.2 0-.3-.1h-.1c-.3 0-.5-.1-.6-.2v-.2c0-.1.1-.1.1-.1.2 0 .3 0 .5-.1.3 0 .6-.1 1-.1.3 0 .5.1.8.1.4.1.8.1 1.2.1 0-.1.1-.2.1-.4.2-.5.4-.9.7-1.4.1-.2.1-.3.1-.3-.1-.3-.6-.6-.9-.8-.2-.1-.4-.2-.7-.2-.1 0-.3-.1-.4-.1-.1 0-.2-.1-.3-.1-.2-.1-.3-.2-.5-.2-.5-.1-1.1.1-1.6.2-.2.1-.4.1-.6.2-.2 0-.4 0-.5-.1-.3-.3-.3-.8-.4-1.3v-.3h-.9c-.3 0-.5-.2-.6-.4-.1-.1-.2-.2-.3-.2-.3-.1-.5-.3-.8-.4-.3-.1-.6-.3-.9-.5-.4-.2-.7-.4-1.1-.6-.2-.1-.5-.2-.7-.3-.5-.2-1-.4-1.5-.1-.3.2-.4.3-.6.5-.3.4-.9.4-1.4.3h-.1c-.4 0-.8-.1-1.1-.1-.2 0-.5 0-.7-.1h-.2c-.4 0-.8-.1-1.2-.5-.3-.3-.6-.3-.9-.3h-.4c-.6-.1-1.4-.2-2.1-.4-.1 0-.2-.1-.3-.1-.3-.1-.6-.2-.8 0-.1.1-.1.2-.2.3-.1.1-.1.3-.2.4l-.1.1c-.1.1-.2.2-.2.3 0 .1.1.2.2.3l.1.1c.2.2.4.5.5.8l.1.2c.2.5.5 1.1.3 1.7-.2.7-.9 1.3-1.3 1.5-.2.1-.4.2-.6.2-.2.1-.4.1-.5.2h1.1c.1 0 .3 0 .4-.1.3-.1.7-.1.9-.1.4.1.6.5.5 1.1 0 .3-.1.6-.2 1 0 0 0 .1-.1.2-.1.2-.1.2-.1.3h.1c.1 0 .3.1.3.4 0 .3-.3.5-.9.9-.1.1-.2.1-.3.2-.4.4-.8.8-1.1 1.3l-.1.2c-.4.7-1 1.8-.6 2.5.2.4.7.5 1.1.6h.2c.4.1 1 .3 1.5.6.8.6 1.7 1.2 2.1 2.5.2.9.2 1.7.3 2.6v1.2c0 .4.1.8-.2 1.2-.3.3-.6.5-.9.6-.1.1-.2.1-.3.2-.3.2-.7.4-1 .5l-.6.3c-.4.2-.8.5-1.2.8-.4.3-.7.5-1.1.8-.5.3-1 .3-1.5.4-.5.1-.9.1-1.3.3-.2.1-.2.2-.2.2-.1.4.5 1 .8 1.5.1.2.3.3.3.5.5.9.8 1.7 1 2.5.1.3.1.6.1.9 0 .6.1 1.1.4 1.5.2.2.3.5.4.7.1.2.2.5.4.7l.1.1c.2.2.4.4.3.7 0 .1-.1.3-.3.3-.2.1-.3.1-.4.1-.2 0-.3 0-.3.4 0 .2 0 .4-.1.5-.1.6-.2 1.1-.1 1.6 0 .1 0 .2-.1.2-.4.1-.9-.4-1.1-.7-.1-.2-.2-.5-.3-.8-.1.1-.1.2-.2.2-.1.1-.3.3-.3.4-.2.3 0 .6.1 1 0 .1 0 .1.1.2.1.3.2.6 0 .8-.2.2-.4 0-.5-.1-.4-.2-.7-.6-1-.9-.1-.1-.2-.3-.4-.4l-.3-.3c-.3-.2-.5-.5-.8-.8l-.3-.3c-.1-.2-.3-.4-.4-.5-.3-.3-.7-.4-1.1-.5-.5-.1-.9-.2-1.3-.6-.3-.3-.5-.8-.6-1.2 0-.1-.1-.2-.1-.3-.1-.2-.1-.4-.2-.5-.1-.4-.3-.7-.4-1-.2-.4-.5-.9-.6-1.5-.1-.6-.1-1.3 0-1.9.1-.6.2-1.2.3-1.9 0-.2.1-.4.1-.5.1-.2.1-.4.1-.6.1-.5 0-.7-.2-.9-.2-.1-.4 0-.6 0-.1 0-.2.1-.3.1-.3 0-.6-.1-.9-.2-.1 0-.2-.1-.3-.1-.4-.1-.8-.1-1.3-.1s-1 0-1.5-.1c-.2 0-.5-.1-.7-.1h-.1c-.3 0-.5 0-.8-.1-.2-.1-.5-.2-.7 0 0 0-.1.1-.1.2-.1.2-.2.5-.5.4l-.1-.1c-.1-.3-.2-.5-.2-.8v-.3c0-.2 0-.2-.1-.3-.1-.1-.5-.2-.7-.2h-.2c-.5-.1-1-.2-1.4-.2h-.4c-.2 0-.4 0-.6-.1-.3-.1-.6-.3-.9-.4-.1-.1-.2-.1-.3-.2-.3-.2-.6-.2-.9-.3-.3-.1-.7-.2-1-.4-.2-.1-.3-.2-.5-.3-.4-.3-.9-.5-1.3-.9l-.1-.1-.5-.5c-.1-.1-.2-.2-.2-.3-.1-.1-.2-.3-.3-.4-.2-.1-.5-.1-.9-.1h-1c-.4 0-.7 0-1.1-.1-.4-.1-.7-.3-1.1-.5-.2-.1-.3-.2-.5-.3-.4-.2-.8-.1-1.2-.1h-1.1c-.4 0-.7 0-1.1.1l-.9.3c-.4.2-.9.3-1.3.4-.3 0-.6 0-.8.1-.1 0-.1 0-.2-.1v-.2c.2-.4.3-.6.5-.9.1-.2.2-.4.4-.6.3-.5 0-1.1-.3-1.6-.1-.3-.3-.5-.5-.8-.2-.3-.3-.5-.5-.8-.2-.3-.3-.6-.3-.8 0-.1-.1-.3-.1-.4-.2-.4-.7-.4-1-.3h-.7c-.3 0-.6-.1-.8 0-.1 0-.2.2-.3.4-.1.2-.2.4-.4.5-.3 0-.4-.3-.6-.6-.1-.1-.2-.3-.2-.3l-.1-.1c-.3-.3-.6-.5-.6-1.2 0-.1 0-.3-.1-.4-.1-.9-.3-1.7.1-2.6.2-.4.2-.6.2-1v-.1c0-.2 0-.4.1-.6.1-.1.2-.1.2-.2h.1c.2-.1.3-.4.4-.7 0-.1.1-.2.1-.3l.6-.9c.1-.2.3-.4.4-.6.4-.6.9-.9 1.4-1.2h.1c.1 0 .1-.1.2-.1.2-.1.5-.2.5-.4 0-.1 0-.1-.2-.2-.1 0-.1-.1-.2-.2l-.3-.6v-.3c0-.1.1-.1.1-.1h.2c.8.2 1 .1 1 .1s0-.1-.1-.2-.1-.2-.1-.4c0-.5.5-.7.7-.8.4-.2.9-.2 1.3-.3.3 0 .7-.1 1-.2.6-.2 1.2-.2 1.9-.2h.1c.5 0 .8 0 .9-.5.1-.5 0-.6-.3-.9-.1-.1-.3-.2-.4-.4-.3-.3-.6-.6-.9-.7-.4-.2-.9-.1-1.4 0-.1 0-.3 0-.4.1-.8.1-1.5.1-2.3-.5-.2-.2-.4-.4-.6-.5l-.4-.4c-.1 0-.1-.1-.1-.2s.1-.1.1-.1h.2c.5 0 1.1 0 1.6.2.1 0 .2.1.2.1.3.2.4.3.8.3h1.7c.2 0 .4-.1.6 0 .2.1.3.2.4.3l.2.2c.2.1.3.2.5.4l.1.1c.4.3 1 .6 1.4.3.3-.2.4-.5.6-.8 0-.1.1-.2.1-.3.3-.5.7-.6 1.1-.7h.7c.3 0 .5 0 .7-.1.3-.1.6-.2 1 0h.1c.3.2.6.3.9.3.2 0 .3-.1.4-.2.1 0 .1-.1.2-.1.2-.1.4-.1.6-.2.2 0 .4 0 .6-.1.1-.1.2-.3.3-.5.1-.1.1-.3.2-.4.1-.2.3-.3.4-.5.2-.2.4-.4.5-.6.1-.1.1-.2.2-.3.2-.4.4-.8.4-1.2-.2 0-.4-.1-.6-.1-.3-.1-.5-.1-.8-.2h-3.7c-.3 0-.7 0-1-.2-.3-.3-.7-.5-1-.6h-1c-.1 0-.3-.1-.4-.1-.1 0-.2-.1-.3-.1-.4-.1-.9-.2-1.3-.3h-.2c-.6-.1-1.1-.2-1.7-.5-.1 0-.1-.1-.1-.2s.1-.2.1-.2h3.4c.6 0 1.2 0 1.7.2.4.1.8.4 1.2.6.2.1.4.3.6.4.6.3 1.3.4 2 .4h.4c.4 0 .8.1 1.2.1.5 0 .7-.2 1-.8.2-.5.5-1.1.6-1.6 0-.2.1-.4.1-.5v-.1c.1-.5.2-.6.7-.6h.4c.7 0 1.4 0 2.1.1h.4c.4 0 .9 0 1.3.4s.6 1 .9 1.5c.1.1.1.3.2.4.1.3.4.7.7.8-.1-.3-.1-.6-.2-.8l-.1-.1c-.1-.1-.2-.2-.2-.4-.1-.4.2-.7.6-1 .1 0 .1-.1.2-.1.2-.1.4-.2.7-.2.2.1.6.3.8.5l.2.1c.2.2.3.4.4.7 0 .1.1.3.1.4 0 .1.2.1.4.1.1 0 .2-.1.2-.1 0-.1 0-.3-.4-1l-.1-.1c-.3-.5-.6-.9-1-1.2-.8-.7-1.7-1.1-2.7-1.2-.1 0-.1-.1-.1-.2s.1-.2.1-.2h2.6c.1 0 .3 0 .4.2.1.1.2.2.3.4.1.1.1.2.1.2.1.1.1.2.1.3 0 0 0 .1.1.2 0 .1.1.2.2.3l.2.2.1.1.3.3c.5.1.9-.1 1.2-.6.2-.5.3-.6.8-.6h.3c.2 0 .6.1.7 0v-.2c0-.1 0-.2.1-.2 0-.1.1-.1.1-.2-.1-.2 0-.3 0-.4.1-.2.4-.3.8-.4.1 0 .2 0 .2-.1.2-.1.3-.1.4-.2l.1-.1c.8-.7.9-1 .8-1.1-.1-.1-.3-.2-.5-.3-.2-.1-.4-.1-.5-.2-.3-.3-.6-.5-.9-.8l-.4-.3c-.2-.2-.4-.3-.6-.6-.1-.2-.3-.3-.2-.5 0-.2.2-.3.4-.4.6-.3 1.2-.5 1.9-.5h.3c.3 0 .5 0 .7-.1.1 0 .1-.1.1-.1 0-.1-.3-.3-.6-.4-.1 0-.2 0-.3-.1-.2 0-.4-.1-.5-.3-.1-.2 0-.4.1-.6 0 0 .1-.1.1-.2.1-.1.1-.2.2-.3-.3-.1-.6-.3-.8-.5-.2-.2-.4-.3-.7-.4-.6-.2-1.1-.2-1.7-.1-.3 0-.6.1-.9.1-.7 0-1.4-.1-2.1-.3-.3-.1-.5-.1-.8-.2-.4-.1-.9-.1-1.3-.1-.5 0-1.1-.1-1.6-.2-.2 0-.3-.1-.4-.2-.2-.1-.4-.2-.5-.1-.4.2-.4.9-.4 1.4 0 .2.1.5.1.7.1.5.2 1.1.1 1.7-.1.5-.3 1.1-.6 1.5-.1.2-.3.4-.5.5-.3.3-.6.5-.7 1-.1.6-.3 1.3-.4 1.9 0 .1-.1.1-.1.1-.2 0-.4-.1-.6-.2-.1 0-.1-.1-.2-.1h-.3c-.2 0-.4 0-.5-.2-.1-.1-.1-.2-.2-.3 0-.1-.1-.1-.1-.2s-.1-.1-.1-.2l-.2-.2c-.3-.4-.4-.8-.6-1.2v-.1c-.1-.3-.4-.6-.6-.8l-.2-.2c-.3-.3-.6-.5-.8-.7-.3-.2-.5-.5-.8-.8-.2-.2-.4-.5-.6-.6-.3-.2-.6-.3-.9-.3-.2 0-.6.2-.6.4 0 .1-.1.1-.2.1l-.1-.1c-.4.5-.9.9-1.4 1.3-.3.2-.7.6-.7.8 0 .1-.1.1-.2.1s-.1-.1-.1-.2v-1c0-.9.1-2-.2-2.8-.3 0-.6-.1-.8-.1-.2 0-.4-.1-.6-.1h-1.8c-.9 0-1.9 0-2.8-.4-.3-.1-.6-.2-.8-.6-.1-.3-.2-.6-.2-.9 0-.2-.1-.3-.1-.5-.1-.3-.1-.6-.2-.8-.2-.7-.3-1.4-.6-2.1-.3-.9-.7-1.4-1.1-1.8-.5-.4-.9-.5-1.4-.6-.1 0-.2 0-.4-.1h-.1c-.3-.1-.5-.1-.8 0-.2.1-.3.3-.4.5 0 .1-.1.1-.1.2-.3.4-.5.6-.9.8-.8.5-1.7.6-2.5.7-.7 0-1.3.2-1.3.9 0 .3.1.6.2.7.4.4 1.1.5 1.7.5 0 0 .1 0 .1.1v.2c-.1.7-.5.9-.8 1.1l-.2.1c-.1.1-.2.2-.2.3 0 .1.1.2.2.3.3.3.7.4 1.1.6.1 0 .2.1.3.1.1 0 .2.1.3.2.4.2.7.3 1.1.4.7.1 1.4.1 2.1.1.4 0 .9 0 1.3.1h.2c.3 0 .6 0 .7.1.1.1.1.1.1.2 0 .2-.2.3-1 .7l-.3.1c-.3.1-.6.3-.9.5-.4.3-.6.4-.5.8 0 .1 0 .1.1.1.2.2.8 0 1.1-.1.1 0 .2-.1.2-.1.4-.1 1.2-.3 1.6.1.2.2.2.5.2.8-.1.7-.6.8-1 1-.1 0-.2.1-.3.1-.2.1-.3.2-.5.4-.3.3-.7.6-1 .6-.1 0-.3 0-.4-.1-.1 0-.1-.1-.2-.1s-.2 0-.3-.1c-.3-.1-.8-.2-1-.1-.1 0-.1.1-.1.3v.2c0 .3-.1.6-.1 1 0 .2 0 .3-.1.5-.1 1-.3 1.8-.6 2.5-.1.3-.3.5-.4.4-.3 0-.6-.6-.9-1.8-.1-.4-.2-.8-.4-1.2-.1-.4-.3-.8-.4-1.3-.2-.6-.3-.9-.8-1.2-.4-.3-.9-.3-1.3-.3h-1.2c.2.2.4.4.5.9 0 .1.1.2.1.3.1.3.3.8 0 1.1-.4.5-1.1.3-1.6.2-.1 0-.3-.1-.4-.1-.4-.1-.9 0-1.4.1h-.3s-.1 0-.2.1c-.3.1-.3.1-.4.1-.1 0-.2-.1-.3-.2-.1-.1-.1-.1-.2-.1-.4-.1-.7-.1-1.1 0h-.6c-.5 0-1-.1-1.6-.3-.1 0-.3-.1-.4-.2-.3-.1-.6-.2-.9 0-.5.3-1 .4-1.4.6-.2 0-.3.1-.5.1-.5.2-1 .1-1.5 0-.2 0-.5-.1-.7-.1-.5 0-.9-.3-1.4-.6-.2-.1-.4-.3-.5-.4-.1 0-.2-.1-.2-.1-.5-.3-.9-.5-1.5-.4-.2 0-.4.1-.5.2-.3.1-.6.2-1 .2-.5 0-1 0-1.4-.2-.2-.1-.4-.4-.5-.6-.1-.1-.1-.2-.2-.3-.5-.6-1.1-1.1-1.7-1.5-.1.1-.1.3-.2.4-.1.2-.2.5-.4.7-.2.2-.4.2-.5.3-.1 0-.1 0-.2.1-.1 0-.2.1-.4.2-.1 0-.1.1-.2.1-.3.2-.7.2-1 .2h-2.8c.2.3.3.7.4 1 .1.4.2.7.4 1 .1.2.2.3.3.5.4.6.8 1.4.8 2.2 0 .3-.1.6-.2.9-.1.3-.2.5-.2.8 0 .1 0 .1-.1.2h-.2c-.4-.2-.6-.7-.7-1.1-.1-.2-.1-.4-.2-.6-.4-.7-.8-1.3-1.2-1.7-.2-.2-.4-.4-.7-.5-.2-.1-.4-.2-.5-.4-.4-.3-.4-.3-.6 0-.4.5-.7.3-.9.1l-.2-.2c-.3-.2-.5-.3-.8-.4-.3-.1-.6-.2-.9-.4-.1 0-.1-.1-.2-.1-.3-.2-.5-.3-.8-.4-.5-.1-1.1-.1-1.8 0-.6.1-.9.2-1.4.5-.5.4-1.2.5-1.6.3-.5-.2-1-.2-1.6-.2-.3 0-.6 0-.9-.1-.5-.1-1.1-.1-1.6-.1h-3.6c-.2 0-.5.1-.7 0-.3-.2-.3-.6-.3-.9 0-.4.1-.7.1-1 .1-.3.1-.6.1-1v-.3c0-.5 0-.6-.2-.7-1-.1-2.1-.1-3.2-.1h-2.3c-.4 0-.8 0-1.2-.1-.3-.1-.5-.2-.8-.3-.1-.1-.2-.1-.3-.2-.9-.4-1.7-.6-2.4-.6h-3.3c-.5 0-1 .1-1.4-.4-.5-.6-.9-.9-1.2-.9h-.9c-.2 0-.5.1-.7.1-.7 0-1.5 0-2.3.1h-.3c-.3 0-.6 0-.8.1-.1.1-.3.2-.4.3-.2.2-.4.3-.6.5-.1 0-.1.1-.2.1-.3.2-.5.5-.9.3-.5-.2-1-.3-1.7-.2-.1 0-.2-.1-.2-.2-.1-.6-.3-1.2-.6-1.7 0-.1-.1-.1-.1-.2-.1-.1-.2-.4-.3-.5-.1-.1-.3.2-.4.4l-.1.1c-.1.2-.3.4-.4.5-.3.4-.6.8-.8 1.3 0 0 0 .1-.1.2-.1.3-.2.6-.4.6s-.4-.1-.7-.4c-.1-.1-.2-.2-.3-.2-.2-.1-.5-.2-.7-.2-.4-.1-.8-.2-1.2-.5l-.3-.3c-.3-.4-.7-.7-1.1-1-.1-.1-.2-.1-.3-.2-.1-.1-.2-.2-.3-.2-.2-.1-.3-.2-.5-.2-.3-.1-.5-.2-.8-.4-.3-.2-.5-.4-.9-.4-.5-.1-.9.2-1.3.8-.3.4-.7.9-1.1 1.1-.3.1-.8.2-1.1.2h-.6c-.3 0-.6 0-.9.1-.5.1-1.1.4-1.6.7l-.2.1c-.1 0-.2.1-.3.1-.2.1-.3.2-.6.2s-.6 0-.9-.1c-.2 0-.4-.1-.6-.1h-.2c-.6 0-1.1-.1-1.5.5-.3.4-.7.6-1 .8-.2.1-.3.2-.5.3-.5.4-.9.6-1.5.5h-1.3c-.3 0-.6-.1-.8 0-.3.1-.5.3-.8.5l-.1.1c-.4.3-.8.5-1.3.4h-.3c-.8-.1-1.5-.3-2.2-.3h-.6c-.4 0-.9 0-1.3-.1-.3 0-.5-.2-.8-.3-.3-.1-.5-.2-.8-.3-.4-.1-.9-.1-1.4-.1h-.5c-.4 0-.9 0-1.3-.1-.3-.1-.5-.2-.8-.3-.3-.1-.6-.3-1-.4l-.6-.3c-.4-.2-.7-.4-1-.4-.7.1-1.4.1-2.4.1-.4 0-.8-.1-1.2-.2-.1 0-.2-.1-.4-.1-.1 0-.2 0-.2-.1v1c.1.5.1 1.1.1 1.6v6.5c0 .3 0 .7.1 1 0 .7 0 1.4.1 2.2V61c0 .9.1 1.8 0 2.7v2.9c0 .4 0 .8-.1 1.2 0 .3-.1.5-.1.8 0 .7.1 1.4.1 2.1.1.4.1.8.1 1.2v6.2c0 .3.1.5.2.6.1.1.2.1.4 0 .6-.2 1.1-.1 1.6.3.3.3.6.2 1-.1.1-.1.2-.1.3-.2 0 0 .1 0 .1-.1.1-.1.3-.2.5-.2s.3.1.4.3l.1.1c.1.1.3.2.4.4.2.2.4.4.6.5 0 0 .1 0 .1.1.2.1.3.1.5.3.1.1.2.3.2.5.1.1.1.3.2.4.2.3.6.5.9.6.1 0 .1.1.2.1.1.1.3.1.5.2.5.2 1 .4 1.3.8.1.2.2.3.2.5 0 .1 0 .2.1.2.1.2.4.1.6.1h.5c.3 0 .7.1.8-.1 0 0 .1-.1 0-.2 0-.1 0-.2-.1-.3-.1-.2-.1-.4 0-.7.1-.4.5-.7.8-.9.1 0 .1-.1.2-.1.5-.4 1.1-.8 1.7-.8h.1c.5 0 .8.4 1 .8.1.2.2.3.4.5.5.4.9.5 1.2.3.1 0 .1 0 .2.1.1.2.3.4.5.6l.3.3c.1.1.1.2.2.2.2.2.4.5.6.6.7.4 1.4 1 2 1.7l.3.3c.2.3.4.5.6.8l.9 1.5c.4.7.9 1.3 1.4 1.9.7.8 1.6 1.2 2.6 1.7.3.1.7.3 1 .5.1.1.3.1.5.2.4.1.8.3 1.1.6.5.6.2 1.6.1 2.2 0 .1-.1.3-.1.5-.2.9-.7 2.5 0 2.8.2.1.4.1.6.1.3 0 .6 0 .9.2.3.2.3.5.3.6-.1.3-.4.4-.6.4h-.4v.3h.3c.1 0 .3 0 .4.1l.1.1c.2.1.4.2.6.4 0 .1.1.1.1.2.1.2.2.4.4.4.1.1.3 0 .5 0h.4s.1 0 .2.2c0 .2 0 .8-.2.9-.1.1-.2.1-.3.1 0 .7-.1.9-.6 1.3l-.1.1c-.2.1-.5.3-.6.5.2.1.4.2.6.4.2.1.3.2.5.3.3.1.5.1.8.1h.5c.5 0 .6.3.8.6 0 .1.1.2.2.3.3.4.6.3 1 .3h1.2l.6-.3c.1 0 .1 0 .2.1v.2c-.2.3-.5.4-.8.4-.5.2-1 .5-1.2.9-.3.6.1 1.7.4 2.3.3.4.8.6 1.3.7.2.1.4.1.6.2.4.1.7.3 1 .5.5.2 1 .5 1.5.7l.2.1c.9.3 1.7.6 2.6 1.1-.1-.7-.1-1.7.6-1.9.8-.4 1 .1 1.1.6 0 .2.1.3.2.5.2.4.4.7.7 1.1.3.4.4.7.4 1.1v.2c.1.3.1.5.3.6.3.2.7.1 1.1-.1h.1c.2-.1.6-.1.8.1.1.1.2.3.2.4 0 .3-.1.5-.2.7-.1.1-.1.2-.2.3h.7c-.8.4-.7.4-.5.4z"/><path class="st0" d="M301.1 122.4s-.1 0 0 0c0 .2.2.2.4.2 0-.1.1-.1.1-.2.1-.2.1-.4.2-.6v-.1l-.3.3c-.1.2-.2.3-.4.4z"/><path class="st0" d="M176.4 173c.5.1 1.1.2 1.6.1h.4c.4 0 .9 0 1.3-.2.1 0 .3-.1.5-.2.3-.2.6-.4.9-.3.7.1 1 .6 1.4 1.1.1.2.3.3.4.5.2.3.6.3.9.4.3.1.5.1.8.3.3.2.7.4 1 .7l.9.6c.9.6 2 .8 3 .9.8.2 1.7.3 2.5.7 1.1.5 2.5.4 3.7.3.3 0 .7 0 1-.1h2.1c.3 0 .6.1.8-.1.2-.2.2-.8.1-1.3v-.6c0-.1 0-.1.1-.1h.1c.6.1 1.3.1 1.9.1h1.7c.9.1 1.3.7 1.8 1.3.1.1.2.2.2.3.4.5.9 1 1.4 1.4.5.4 1 .8 1.4 1.3.3.4.5.9.7 1.3.2.5.3.9.6 1.2.1.2.3.3.4.5.3.4.7.7 1.1 1 .3.2.6.3.9.3.2 0 .5.1.7.2.1 0 .2.1.3.2.2.2.3.2.4.1.2-.2.2-.6.3-.9 0-.1.1-.3.1-.4.3-1.2 1.3-1.4 2-1.3.1 0 .3 0 .4-.1.2 0 .4-.1.6-.1.5.1.9.4 1.3.7l.2.1c.8.6 1.4 1.2 2 2.3.2.3.3.7.4 1.1.1.2.1.4.2.6.1.3.4.6.6.9.1.1.2.2.2.3.2.2.4.5.6.7.4.4.9.9 1.1 1.6.1.3.1.6.2.9 0 .2.1.4.1.6 0 .1.1.3.1.4 0 .3.1.7.2.8 0 .1.1.1.2.1 0 0 .1 0 .1.1.3.2.6.4.8.6l.2.2c.3.3.6.5 1 .5s.6.1.9.2c.2.1.4.2.6.2.2.1.4.1.6.2.1 0 .1.1.2.1.1.1.4.3.5.2 0-.1.1-.2.1-.4s-.1-.4-.1-.5c0-.1-.1-.2-.1-.2-.1-.5-.1-1 0-1.5v-.1c.1-.7.1-1.4.2-2.1v-.3c0-.4 0-.9.2-1.2.1-.3.4-.5.6-.7l.1-.1c.3-.2.6-.6.9-.9l.7-.7c.5-.4 1-.7 1.4-1 .2-.1.4-.3.6-.4.7-.5 1.3-1.1 2-1.7.5-.5 1.1-1 1.7-1.5.3-.2.7-.5 1.1-.4.2.1.4.2.5.4.1.1.1.2.2.2.3.3.7.2 1.1.2h.1c.6 0 1.2-.1 1.8 0h.2c.3 0 .6.1.9 0 .1 0 .3-.1.4-.2.2-.1.4-.2.7-.3.3 0 .6.1.8.3.2.3.4.8.4 1.4.3 0 .7 0 1.1.2.1 0 .1.1.1.1.2.1.3.1.4.1l.2-.2c.1-.2.3-.4.5-.3.2 0 .3.3.4.5v.1c0-.4 0-.9.4-1.1.3-.2.5 0 .6.1l.1.1c.2.2.4.2.6.2v-.1c.1-.2.1-.4.1-.7 0-.2.1-.4.1-.6 0-.2.1-.3.1-.5s0-.2-.3-.3c-.1 0-.3-.1-.5-.1-.4-.1-.9-.1-1.2-.5 0 0-.1-.1 0-.2 0-.1.1-.1.1-.1.3-.1.6 0 .9 0h.4c.3 0 .6 0 .9-.1.2 0 .5 0 .7-.1.5 0 1 0 1.5-.1h.2c.2 0 .4-.1.5 0 0 0 .1 0 .1.1.1 0 .1.1.2.1h.8c.3-.1.6-.1.9-.1h.3c.1 0 .3-.1.4-.2.1-.1.3-.2.5-.2.4 0 .9 0 1.4.1.2 0 .5.1.7.3l.2.2c.1.1.1.2.2.2.1.1.2.1.3.1.1 0 .1 0 .2.1.3-.4.9-1.2 1.4-.6.2.2.2.5.2.8v.5c.1.1.5.2.7.3.1 0 .2.1.3.1.3.1.4.1.7 0h.1c.3-.4.7-.5 1.1-.7h.1c.1 0 .2-.1.3-.2.2-.2.5-.3.8-.2.3.1.5.5.7.8.1.1.2.3.2.3l.6.6.4.4.4.4c.6.6 1.3 1.3 1.3 2.1 0 .5-.1.9-.3 1.2-.2.5-.3.9-.2 1.5.1.5.3.9.4 1.4.2.5.3 1.1.5 1.6.1 0 .2.1.3.1.2.1.4.2.5.1 0 0 .1 0 .1-.1.2-.1.4-.2.7.1.3.3.2.8.1 1.1 0 .2-.1.4-.1.6.1.4.2.6.4.9.1.1.2.3.2.4.3.6.5 1 .8 1.5.2.4.3.8.3 1.1 0 .2.1.3.1.5 1.4.2 2.3 0 2.5-1.6 0-.3.1-.5.1-.8 0-.4.1-.7.1-1.1v-.3c.1-.5.2-1 0-1.5-.2-.7-.3-1.2-.5-1.9-.1-.6-.3-1-.5-1.5l-.3-.9c-.1-.4-.1-.7-.2-1.1 0-.3 0-.5-.1-.8-.1-.4-.3-.8-.5-1.2-.1-.3-.3-.6-.4-.9-.2-.6-.4-1.2-.6-1.7-.2-.5-.4-1.1-.6-1.6-.3-.8-.3-1.5-.3-2.2l-.1-.1c0-.3 0-.5.1-.7v-.1c0-.1 0-.1.1-.1l.3-.6c.1-.2.2-.3.3-.5.1-.2.1-.4.2-.5.2-.5.3-1 .7-1.4.4-.5.9-.8 1.3-1.1l.2-.2c.6-.4 1.1-.9 1.6-1.4l.1-.1c.3-.3.6-.7.9-1.1.5-.6 1-1.1 1.6-1.6.5-.4.9-.7 1.2-1.1l.3-.6c.1-.3.2-.5.4-.7.3-.3.7-.6 1.1-.8l.2-.1c.2-.1.5-.2.7-.2.1 0 .3 0 .4-.1.2-.1.2-.1.3-.2.1-.1.1-.2.3-.3.2-.2.6-.2.9-.1h.2c0-.5 0-.7-.3-1.1 0-.1-.1-.1-.2-.2-.2-.2-.4-.4-.4-.7 0-.2.1-.4.2-.6.2-.2.7-.6.9-.7h.1c-.4-.3-.7-.7-.6-1.2.1-.5.4-.9.7-1.2.3-.3.5-.6.6-1 0-.1 0-.1.1-.1 0-.2-.6-.4-.8-.5-.2-.1-.3-.1-.4-.2l-.2-.1c-.4-.2-.8-.5-1-.8 0-.1-.1-.1 0-.2 0-.1.1-.1.1-.1h.1c.3-.1.7-.1.8-.5 0-.2-.2-.5-.4-.8-.1-.1-.1-.2-.2-.2-.1-.1-.1-.2-.2-.3-.1-.1-.1-.3-.2-.4 0-.1-.1-.1-.2-.2s-.3-.3-.3-.4c-.1-.4 0-1.1.1-1.7 0-.2.1-.4.1-.5 0-.1.1-.1.1-.2.1 0 .1 0 .2.1 1 1.5 1.4 1.8 1.5 1.7 0 0 .1-.1 0-.5 0-.4-.2-.8-.3-1.1-.1-.2-.2-.4-.2-.6-.1-.3-.1-.6-.1-.8.1-.3.4-.4.7-.5.1 0 .2-.1.4-.2.3-.2.7-.5 1-.4.3.1.4.3.4.4.1.3-.1.8-.3 1.1-.4.5-.6 1.1-.6 1.7 0 .5.2 1 .6 1.4.4.5.6.8.4 1.6-.2.6-.3 1.1-.3 1.6.3-.4.6-.8.6-1.3v-.2c.1-.5.1-.9.5-1.4l.3-.3c.2-.2.4-.5.5-.8.1-.3 0-.7-.1-1 0-.1-.1-.3-.1-.4 0-.2-.1-.4-.1-.6 0-.4-.1-.8-.2-1.1 0-.1-.1-.3-.1-.5-.1-.4-.3-.8-.2-1.2.1-.7.6-1 1.1-1 .4 0 .7.4.7 1 0 .3-.1.6-.1.9-.1.3-.1.5-.1.8 0 .4.1.8.2 1.1v-.1c.1-.3.2-.6.4-.8.1-.2.2-.3.4-.4.1-.1.2-.1.3-.2h.1c.4-.6.7-1.2.7-2 0-.3-.1-.6-.3-.9-.2-.4-.3-.8-.2-1.2 0-.1 0-.1.1-.1.2-.1.7-.1 1.5-.2 1.4-.1 3.6-.2 4.1-.9 0 0 0-.1.1-.1-.3 0-.6.1-1 .1-.3.1-.6.1-.9.1h-.3c-.5 0-1.1 0-1.5-.2l-.1-.1v-.2c.4-.7 1.6-.8 2.4-.9.2 0 .3 0 .4-.1.5-.1 1.1-.2 1.6-.2.2 0 .4.1.6.1.2.1.4.1.5.1.6 0 .8-1.4.9-2.2 0-.1 0-.3.1-.4 0-.2.1-.4.1-.5.1-.5.2-1 .3-1.4v-.4c0-.3 0-.6.1-.9.2-.6.8-1 1.4-1.4.2-.1.4-.3.6-.4.3-.3.7-.5 1-.7.4-.2.8-.5 1.2-.8.1-.2.3-.5.4-.8.2-.4.3-.9.6-1 .4-.2.8 0 1.1.3.2.2.5.3.6.3.1 0 .2-.1.4-.1.1-.1.3-.1.4-.2h.2c.3 0 .5-.1.8-.3l.2-.1c.5-.3 1.1-.7 1.6-.7-.1-.4-.4-.8-.7-1.1-.1-.1-.2-.3-.3-.4-.4-.2-.7-.5-1.1-1.1-.5-.7-.5-1.5-.6-2.5v-.6c0-.8 0-1.9-.4-2.4-.3-.4-.9-.3-1.4-.3h-.8l-.6-.3c-.3-.2-.5-.3-.9.1l-.2.2c-.4.5-.9 1-1.3 1.5-.3.4-.3.8-.4 1.2 0 .2-.1.5-.1.7-.1.3-.3.6-.4.8-.1.1-.2.3-.2.4-.1.2-.2.4-.2.6-.1.2-.2.5-.3.7-.2.3-.5.7-.8.9-.3.2-.6.1-.8 0-.1 0-.2-.1-.3-.1h-.3v.4c0 .2 0 .4-.1.5-.2.2-.5.2-.7.2h-.1c-1-.1-2.1-.1-3.2-.1h-.1c-1.4 0-2.7.1-4.1 0h-.1c-.6 0-1.1-.1-1.6.3-.4.3-.8.6-1.2 1-.1.1-.3.2-.4.4-.2.2-.5.4-.7.5-.2.2-.4.3-.6.5-.1 0-.1.1-.1.1-.1.1-.2.2-.3.2.2.8.2 1.5-.3 2.3-.7 1.5-2 1.7-3.1 1.7-.3 0-.5 0-.8.1-1 .1-2 .2-2.8-.2 0 2.6-.8 3.1-2.8 3.9-.3.1-.8.3-1.2.5-1.4.6-3.2 1.5-4.7 1.5-.6 0-1.2-.1-1.7-.4-.6-.4-1.1-1.1-1.3-2.1-.2-.8.2-1.6.6-2.3.3-.5.5-1 .5-1.3 0-.2-.2-.3-.5-.4h-.1c-.9-.3-1.5-.6-1.6-2.1 0-1.2.4-2.3.8-3 .2-1.4-1.7-2-2.6-2.3-.7-.2-1.2-.1-1.8.3-.4.4-.5.6-.5 1.1v.5c0 .1-.1.2-.1.2-.9 0-1 .8-1.2 1.8-.1.7-.3 1.5-.8 2-.7.8-2.5 2.6-3.4 2-1.2-.8-.6-3.5-.3-4.6.4-1.6 1.1-2.1 1.9-2.8.3-.2.5-.4.8-.7l.9-.9c.7-.8 1.4-1.4 2.5-1.7 0-.2-.1-.3-.2-.5-.5-.6-1.8-.4-2.7-.3-.3 0-.5.1-.7.1h-.4c-.5 0-1.1.1-1.5-.3-.2-.2-.5-.5-.8-.9-.3-.4-.6-.9-.9-1-.5-.2-1.5.5-2.3 1.2-.4.3-.8.6-1 .7-.6.3-.9.7-1.1 1.1-.4.5-.7 1-1.7 1-.5 0-1.2-.4-1.8-.7-.3-.2-.7-.3-.9-.4-.2-.1-.4-.1-.6-.1-.4-.1-.9-.1-1.2-.4l-.1-.1v-.1c.7-.8 1.6-1.3 2.5-1.8.4-.2.8-.4 1.2-.7.3-.2.6-.4.9-.5.4-.2.8-.4 1.1-.7.2-.2.4-.4.6-.7.1-.2.3-.3.4-.5h-.5c-.2 0-.3 0-.5-.1-.1 0-.2 0-.4-.1-.3 0-.4 0-.6-.3-.1-.1-.3-.3-.5-.4-.2-.1-.2-.1-.3.2v.1c-.1.1-.1.2-.2.3-.1.1-.2.2-.2.3l-.1.1h-.1c-.3-.3-.7-.7-1-.8-.2-.1-.3 0-.5.2-.1.1-.2.1-.3.2 0 0-.1 0-.1.1-.1.1-.2.2-.4.2s-.4-.2-.6-.4l-.2-.2c-.3-.2-.7-.4-1.1-.5-.2-.1-.3-.1-.5-.2-.7-.3-1.5-.6-2.3-.6-.2 0-.4.1-.5.2-.1.1-.2.1-.3.2-.5.2-.8 0-1.2-.2-.4-.2-.7-.3-1-.3h-.1c-.2 0-.3 0-.5-.1-.5-.3-.7-.9-.9-1.4-.1-.3-.2-.5-.3-.8-.1-.2-.2-.2-.4-.3 0 0-.1 0-.2-.1v.2c0 .1 0 .3.1.4 0 .3 0 .5-.1.6-.1.2-.4.2-.6.3-.2 0-.5.1-.7.1-.2 0-.4 0-.6.1-.7.1-1.3.1-2 .1h-3.5c-.5 0-1 0-1.5.1-.6 0-1.3.1-1.9.1-.5 0-1.1 0-1.6-.1-.7 0-1.3-.1-2-.1-.8 0-1.5 0-2.3.1-1.5.1-3 0-4.5-.1-.6 0-1.2 0-1.8-.1-.6 0-1.3 0-1.9.1-.6 0-1.1.1-1.7.1h-1.5c-.4 0-.7.1-1.1.1h-4.6c-1.7.1-3.3 0-4.9 0-1.1 0-2.2-.1-3.3-.1h-.6c-.5 0-1 0-1.4.1-.4.1-.6.1-1 0-.2-.1-.4 0-.6 0h-.2c-.6.1-1.3.1-1.9.1h-.4c-1.6 0-3.2 0-4.8.1-1.2.1-2.4 0-3.6 0h-2.2c-1.2 0-2.4 0-3.6.1-.9 0-1.8.1-2.8.1h-3.3c-.4 0-.8 0-1.2-.1-.6 0-1.2-.1-1.8 0h-.2c-.5 0-1.1.1-1.7.1-.1 0-.1 0-.1-.1-.1 0-.2 0-.3-.1-.3-.1-.6-.1-.8-.1h-.4l.1.1c.4.2.6.6.8 1 .1.2.2.3.3.5 0 .1.1.1.1.2.1.2.3.3.3.7 0 .2-.1.3-.1.4 0 .1-.1.1-.2.1v.1c0 .2.1.4.3.6.2.3.3.6.3 1 0 .6-.3 1.3-.8 1.5-.5.1-.9-.2-1.1-.9-.1-.5-.1-.9-.1-1.3v-.9c-.1-.3-.8-.3-1.1-.3h-.3c-.2 0-.5 0-.8-.1-.6-.1-1.3-.1-1.9-.1-.3 0-.7.2-.8.4v.2c.1.1.2.3.3.4l.2.2c.2.3.4.5.6.8v.1c.2.3.4.6.5 1 .1.3.1.6.1.8v.2c0 .5.3.8 1.1.8 0 0 .1 0 .1.1v.2c-.1.4-.3.6-.5.8-.2.2-.3.4-.4.7-.1.5-.1 1 0 1.6 0 .4.1.8.1 1.2-.1.8 0 1.6 0 2.5.1 2.1.1 4.2-1 5.8v.1c-.2.3-.4.5-.3.9v.3c0 .2 0 .3.1.4.3.7.6 1.4.7 2.4 0 .4.1.8.1 1.2 0 .3 0 .6.1.9 0 .2 0 .3.1.5.1.6.2 1.1-.2 1.6.2.2.3.5.5.8.1.2.2.4.3.5.1.1.2.2.3.4.2.2.5.5.5 1 0 .2 0 .4-.1.6 0 .2-.1.4 0 .6.1.3.2.6.3.8.1.2.2.5.2.7 0 .1.1.3.1.4.1.5.2.9.5 1.2.2.3.4.5.7.7l.4.4.2.2c.2.2.3.3.5.4.5.2 1.1.1 1.6.1.4 0 .8-.1 1.2 0h.2c.3 0 .6 0 .7.3.1.1.1.3.1.5 0 .3-.2.6-.4.9 0 .1-.1.2-.1.3-.4.9-.6 1.6-.7 2.7 0 .4 0 1.4.4 2.1.5.8 1 1.5 1.8 2.2.1.1.2.1.3.2.2.2.5.4.6.7.1.3.2.5.2.8 0 .2 0 .4.1.5.2.4.6.5 1 .5.1 0 .2 0 .3.1l.3.1c.5.1 1 .2 1.5.5.2.1.5.2.7.3l1.2.6.6.3c.4.1.7.3 1.1.8.2.4.5.6.8.9.2.2.5.5.7.8.2.3.4.5.7.7.1.1.2.1.3.2.3.2.6.4.7.7h.1c-.4 0-.4.1-.3.2zm107.4 84c.1-.1.3-.2.4-.3.2-.1.3-.2.5-.3.1 0 .1 0 .2-.1.1 0 .2 0 .2-.1s-.1-.3-.1-.4c0-.1-.1-.2-.1-.3v-.2h-.1c-.1 0-.1-.1-.1-.2 0-.2.1-.3.1-.4-.2-.1-.6-.3-.8-.6-.1-.2-.2-.3-.3-.5-.1-.2-.2-.5-.4-.6-.1-.1-.2-.1-.4-.2-.6-.3-1.4-.7-1.5-1.4h-1.3c-.6-.6-1.9-.5-2.6 0l-.1.1c-.5.4-1 .8-1.3 1.5l-.1.2c-.2.4-.3.6-.8.7h-.1c-.5.1-1.1.2-1.5-.3-.4-.4-.5-.6-1.1-.7h-.5c-.5 0-.9.1-1.2-.2-.2-.3-.1-.6 0-.8.1-.2.1-.3.1-.4-.1-.3-.7-.6-1-.7-.1.1-.2.2-.4.3h-.1c-.2.1-.4.2-.4.4 0 .3.1.6.2.9.1.1.1.3.2.4.1.5.1.8-.2 1.2-.1.1-.2.2-.2.4-.1.2-.2.4-.3.5-.1.1-.2.1-.2.1.1.1.2.2.2.3.1.2.3.3.4.5.7-.6 1.7-.5 2.4-.2.1 0 .2.1.3.1.3.1.5.3.8.5.2.2.4.5.5.8.1.3.2.5.4.6.1-.1.1-.2.2-.5s.1-.6.4-.7h.1l.1.1c0 .1 0 .2.1.3.1.4.2.8.3 1 .2.2.6.5.8.5v-.1c.2-.8.5-1.8.4-2.6v-.2c0-.3-.1-.5.2-.9.2-.2.4-.4.7-.5.1-.1.2-.1.3-.2.2-.2.4-.3.6-.5.3-.3.7-.7 1.1-.9.2-.1.8-.4 1.2 0 .1.1.2.3.3.4.1.1.1.2.2.3.5.5 1.5.7 1.8.8 0 0 .1 0 .1.1v.1l-.1.3c-.1.5-.2 1-.2 1.5.1.5.3 1.3.6 1.4h.1l.1-.1c.3-.2.5-.4.8-.5l.1.3zM56.6 59c.4.2.5.2.6.2-.1-.2-.3-.2-.6-.2z"/><path class="st0" d="M287.7 161.3c-.1.1-.2.2-.3.2 0 .3.1.4.4.6l.1.1v.2c-.4.7-1.1 1.3-1.7 1.7-.1.1-.1.1-.2.1-.2.1-.4.3-.4.5s0 .3.1.4l.3.3c.3-.5.6-1 1.1-1.5.1-.1.3-.3.5-.4.4-.3.8-.6.8-1 0-.2-.1-.5-.2-.8-.1-.2-.2-.5-.2-.7-.1-.6-.4-2.4-1.3-2.6 0 .1.2.3.3.6.5 1 .9 1.8.7 2.3z"/><path class="st0" d="M285.4 160.7c-.1.5.7.9 1.2 1.2.2.1.4.2.5.3.1 0 .1.1.1.2s-.1.1-.2.1c-.2 0-.3-.1-.5-.2s-.4-.2-.6-.2h-.2c-.2.1-.7.5-.8.7-.1.1-.1.2-.1.3 0 .1.1.3.3.4l.2.2c.1.2.2.3.3.5.1-.2.3-.3.5-.4.1 0 .1-.1.2-.1.4-.3 1.1-.9 1.4-1.4-.3-.2-.5-.4-.4-1.1 0-.1.1-.2.2-.2s.2 0 .2-.1c.1-.3-.5-1.4-.7-1.9-.1-.1-.1-.2-.2-.3-.1.3-.4.6-.6.8-.5.5-.7.8-.8 1.2zm-171-81c-.1 0-.2.1-.3.2l-.1.1c-.1.1-.2.1-.3.2-.4.3-.8.6-1.3.1-.4-.4-.9-.5-1.3-.3-.3.1-.5.1-.6 0-.2-.1-.3-.4-.3-.9V73c0-.4-.1-.8-.1-1.2-.1-.7-.2-1.4-.1-2.1 0-.3 0-.6.1-.8 0-.4.1-.8.1-1.2v-1.1c0-.6-.1-1.3 0-1.9.1-.9 0-1.8 0-2.7v-1.5c0-.7 0-1.4-.1-2.2v-1c0-.3-.1-.7-.1-1.1v-5.4c0-.5 0-1-.1-1.5v-1.1s-.1 0-.1-.1c-.2-.1-.5-.1-.7-.2-.3-.1-.7-.2-1.1-.3-.2-.1-.3-.1-.4-.2-.1-.1-.3-.2-.4-.2-.2-.1-.5-.1-.7-.1h-.5c-.3 0-.5-.2-.8-.3l-.9-.3c-.3 0-.6 0-1 .1-.2 0-.3 0-.5.1h-.7c-.4 0-.8 0-1.3.1s-1.1.2-1.6.2h-.7c-.1 0-.3-.1-.4-.2-.1 0-.1-.1-.2-.1-.3-.2-.9-.2-1.3-.2h-.9c-.5 0-1 0-1.6-.1-.2 0-.3-.1-.5-.1-.3-.2-.6-.3-.8-.3-.4 0-.7 0-1-.1-.1 0-.2 0-.3-.1-1.1-.2-2-.3-2.9-.3-1.2 0-2.4 0-3.6.1-1.1 0-2.2.1-3.3.1-.4 0-.9-.1-1.3-.2s-.7-.1-1.1-.2h-.1c-.5 0-.9-.1-1-.3 0-.1-.1-.2.1-.4.1-.1.2-.3.3-.4v-.1c-.2 0-.3.1-.5.1-.1 0-.3.1-.4.1-.4.1-.9 0-1.3-.1-.2 0-.4 0-.6-.1-.3 0-.7-.1-1-.1-.2 0-.4 0-.5-.1-.2 0-.4 0-.6.1-.1 0-.2.1-.3.1-.7.2-1-.2-1.4-.6-.1-.1-.2-.3-.4-.4-.2-.1-.2-.1-.4.1l-.1.1c-.2.2-.5.4-.8.5l-.3.2c-.2.2-.5.4-.7.2-.1-.1-.2-.2-.2-.4 0-.3.1-.5.2-.8 0-.1.1-.2.1-.3-.2-.1-.5-.2-.8-.2-.2 0-.4-.1-.6-.1-.3-.1-.5-.1-.8-.1-.5.1-1.1.2-1.5.6-.3.2-.5.4-.8.6l.1.5c-.3.2-.6.3-1 .3h-.1c-.4.1-.7.2-1.1.2-.2 0-.4.1-.5.1-.2 0-.4.1-.6.3-.1.1-.2.1-.3.2l-.6.3c-.5.2-.9.4-1.4.7-.5.3-1-.4-1.3-.8-.3.2-.7.3-1 .4l-.2.1c-.2.1-.5.2-.8.3-.3.2-.7.2-1.1.3h-.2c-.6.1-1.1.2-1.5.3-.1 0-.2 0-.4.1-.3.1-.6.1-.8.2-.3.1-.6.4-.9.6-.1.1-.3.2-.4.3-.5.4-.7.8-1 1.5 0 .1 0 .1-.1.1 0 .1-.1.1-.1.2v.1c0 .1 0 .2-.1.2-.1.3-.4.3-.7.3h-.2c-.2 0-.4.1-.6.2l-.2.1-.9.3c-.2 0-.3.1-.5.1s-.3.1-.4.1c-.4.2-.9.3-1.4.2h-.3c-1-.2-2.1-.3-3.1 0-.4.2-.7.7-.9 1.2 0 .1-.1.2-.1.2h.2c.2.1.3.2.5.3l.1.1.6.3c.2.1.4.1.6.2.3.1.6.3.8.3h.1c.6 0 1.1 0 1.7.2.1.1.2.1.4.1.1 0 .2.1.4.1.1 0 .2.1.2.1.2.1.4.2.7.2h.1c.1 0 .3 0 .5.1l.3.3.2.2c.1.1.1.2.1.3 0 .1-.1.1-.1.1.1.4.2.8.5 1.1.1.2.2.2.5.2h.2c.4 0 .8.1 1.3.2.2.1.4.1.6.2.6.2 1.2.4 1.9.2.1 0 .1 0 .2-.1.4-.1 1-.3 1.3 0 .1.1.2.3.2.5v.6c.1.1.2.1.4.1h.4c.2 0 .4 0 .6.1h.7c.3 0 .9-.1 1 .5 0 .2 0 .3-.1.4-.1.1-.1.1-.2.1-.2 0-.5-.1-.8-.3-.1 0-.1-.1-.1-.1-.2-.1-.3-.1-.5-.2h-.6c-.3 0-.6 0-1 .1-.3 0-.7.1-1.2 0 0 .1.1.1.1.2.1.1.1.2.2.3.2.6-.2.9-.5 1.1-.5.4-1 .3-1.4.2-.5-.1-1-.1-1.6-.1-.5 0-.9 0-1.3-.2h-.1c-.2-.1-.5-.1-.6-.4 0-.1 0-.3.1-.4.2-.3.2-.4.3-.7-.2 0-.3-.1-.5-.1s-.3 0-.5-.1c-.4-.1-.6 0-1 .2-.2.1-.3.2-.4.3l-.6.3c-.5.2-1 .3-1.6.4-.4 0-1 .1-1.4.4-.4.2-.8.4-1.2.5-.6.2-1.1.6-1.6.8-.2.1-.5.3-.9.3h-.3c.1.1.1.2.2.3.1.1.1.2.2.3.2.2.4.2.7.1h.3c.3 0 .7 0 1 .1.3 0 .6.1.8.4 0 0 .1.1 0 .2 0 .1 0 .1-.1.1s-.1.1-.2.1c-.2.1-.5.2-.6.4v.1c.2.5.4.8.9 1l.6.3c.4.2.7.4 1.1.4h.3c.7 0 1.3.1 2 0h.8c.5 0 .9 0 1.4-.1.4-.1.7 0 1.2.1h.1c.2.1.4.2.6 0l.3-.3c.1-.1.2-.3.4-.3.1 0 .3.1.4.4.3.5.7.6 1.4.4.3-.1.7-.3 1-.6.3-.2.5-.4.8-.5.3-.1.5-.3.8-.4.2-.1.5-.3.7-.4.1-.1.2-.1.3-.1.1 0 .2 0 .2.1v1.5c0 .6-.1 1.1-.2 1.7l-.1.5c-.1.4-.1.9-.3 1.3-.2.6-.5.6-.9.6h-1c-.2-.1-.5-.1-.7-.2l-.1-.1c-.1-.1-.2-.2-.4-.2-.4 0-.9.2-1.6.6-.1.1-.3.2-.4.3-.2.1-.4.3-.5.4-.4.2-.8.2-1.2.2h-.1c-.2 0-.3 0-.4-.1-.1 0-.1-.1-.2-.2l-.1-.1s-.1 0-.1-.1c-.1-.3-.2-.3-.3-.2-.1.1-.2.1-.2.2-.1.1-.1.2-.2.3-.2.3-.4.6-.7.8-.4.3-.7.6-1.1 1-.3.4-.5.7-.7 1.1-.1.3-.2.5-.4.7-.1.1-.1.2-.2.3 0 .1-.1.1-.1.2-.1.3-.3.6-.6.7-.1.1-.3.1-.5.1H42c-.2 0-.3.1-.3.1.1.1.2.1.4.2.1 0 .1.1.2.1.1.1.2.1.4.1.1 0 .2.1.4.1.2.1.4.1.6.1h.5c.6.1.6.7.5 1.1v.3h2.9c.5 0 .9 0 1.3.5.3.4.2.7.1 1 0 .1-.1.2-.1.4s0 .4.1.6c0 .1 0 .2.1.3.1.4 0 .8 0 1.2h.1c.2 0 .3-.1.4-.2.2-.2.5-.3.7-.4.4-.2.8-.5 1.1-.9.3-.3.5-.6.9-.8.1 0 .1-.1.2-.1s.2-.1.2-.1l.1-.1c.1-.1.2-.3.3-.3.1 0 .1 0 .2.1.1.4.3.6.5 1 .3.5.4 1 .3 1.7-.1.5-.2 1.1-.4 1.5 0 .1-.1.2-.1.2-.1.2-.2.4-.2.6 0 .1.1.1.2.2s.2.1.2.2c.1.2.1.3.1.4 0 .2-.1.4-.3.5-.1 0-.1.1-.2.1-.1.1-.4.2-.4.3.1.1.3.2.4.2.4 0 .7-.1 1.1-.1.1 0 .2 0 .3-.1.1 0 .3-.1.4-.2.2-.1.4-.2.7-.3.1 0 .1.1.1.1v.1c.1.2.1.6.3.7 0 0 .1-.2.1-.3v-.2c.1-.3.3-.6.7-1 .3-.3.6-.2.9-.1.3.2.5.4.8.7.2.3.4.5.7.6.2 0 .3 0 .5.1h.4c.2 0 .4.1.5.2.2.1.3.2.5.2v-.1c.1-.2.2-.3.2-.5.1-.1.2-.3.2-.4.2-.4.3-.8.7-1h.1s.1 0 .1.1c.1.2.1.3.1.5s.1.4.2.5c.1.2.2.2.4.2h.1c.4 0 .7 0 1.1-.1h.3c.3 0 .7-.2 1-.4.1 0 .1-.1.2-.1s.2-.1.3-.3c.2-.2.5-.5.8-.4 0 0 .1 0 .1.1v.2c-.1.4-.4.6-.7.9l-.2.2-.3.3c-.1.2-.3.3-.4.5-.2.2-.4.5-.5.7-.2.5-.3 1.1-.2 1.6 0 0 0 .1.1.1.1.1.2.3.1.5s-.2.4-.5.6c-.1 0-.1.1-.1.1-.5.5-1.2 1.2-2.1 1.4-.4.1-.7.2-1.1.3-.5.1-1 .2-1.4.4-.7.2-1.8.7-2.1 1.6-.3.8.4 1.5.8 1.8.5.4 1 .3 1.3-.2l.1-.1c.4-.5.7-1 1.3-1h.1c.2 0 .5.1.7.1.4.1.9.2 1.2 0 .3-.2.6-.6.8-1.1.1-.3.3-.5.4-.8.5-.7 1.3-.8 2-.8.5 0 .8-.1 1-.4.3-.3.3-.4.3-1 0-.4 0-.7.5-.8h.4c.4 0 .9 0 1.2-.4l.1-.1c.1-.1.2-.3.4-.4.3-.2.5-.4.7-.6l.4-.4.1-.1c.3-.3.6-.3.9-.3h.1c.3 0 .5 0 .7-.3.1-.2.3-.4.6-.4.1 0 .1.1.1.1l.1-.1.3-.3c.1-.1.2-.2.4-.2.2-.1.3-.2.4-.3.3-.3.5-.7.7-1.2.2-.4.3-.7.6-1 .9-1.2 1.3-2.2 1.2-2.9 0-.4-.2-.7-.5-.9-.1 0-.1-.1-.1-.2s.1-.1.2-.1c.6.2 1.4.3 1.9.1.5-.2.9-.6 1.2-1.2.3-.8.7-1.1 1.1-1.4.1-.1.3-.2.4-.3.7-.6 1.4-.6 2.1-.6h.7c.4 0 .9-.1 1.3-.1.6-.1 1.2-.2 1.8-.1.1 0 .1.1.1.1 0 .1 0 .2-.1.2-.4.3-1 .4-1.5.5-.5.1-1 .2-1.3.4-.4.2-.6.4-.8.5-.4.3-.7.5-1.6.6-.7 0-1.2.8-1.6 1.6-.3.7-.5 1.4-.4 1.7 0 .1.1.2.3.2.3.1.5-.1.8-.2.4-.2.9-.5 1.4-.1l.1.1c0 .1 0 .1-.1.2l-.9.9c-.1.1-.3.2-.5.3l-.6.3c.3.1.6.1.9.1.3 0 .5 0 .8.1.4.1.5 0 .7-.4.1-.1.2-.3.4-.5.5-.6.9-.9 1.2-1 .2-.1.4-.1.6-.1.3-.1.5-.1.9-.4.5-.4.9-.9 1.3-1.4.2-.3.4-.5.6-.9v-.2c0-.1 0-.3.1-.5.2-.4.8-.7 1.2-.9.1-.1.2-.1.3-.2l.1-.1c.5-.3.9-.6 1.5-.5.8.1 1.7.6 2.2 1.3h.1c.3.3.6.4 1 .4.3 0 .5.1.8.2l.1.1c.1.5-.2.8-.5 1.1l-.2.2c.2-.1.4-.2.6-.4.2-.2.4-.3.7-.4.4-.2.8 0 1.1.1.3.1.5.2.8.2.3-.1.6-.4.9-.7.2-.2.4-.4.6-.5.1-.1.6-.3.9-.2.1.1.2.1.2.3.1.2 0 .3 0 .4-.1.2-.3.3-.5.3-.1 0-.1 0-.2.1-.2.1-.4.4-.4.7 0 .2.1.4.2.5.2.1.5.2.9.2.3 0 .5 0 .7.1.6.2 1.2.1 1.9-.1.6-.1 1.2-.3 1.8-.1.2 0 .3.1.5.1.5.1 1.1.3 1.6.2.2 0 .4-.1.6-.2.3-.1.6-.3.9-.1.1.1.2.4.2.8.4.1.7.1 1 .2h.2c.2 0 .4.2.7.3.3.2.6.3.9.3.2-.1.3-.2.5-.4s.4-.5.6-.6c.4-.2.8-.2 1.1-.2h.3v-.1c0-.3.1-.6.2-.9l-.1-.1c-.1.5-.2.5-.3.5zm121.3-41.4c.2-.1.2-.3.2-.6 0-.2 0-.3-.1-.5-.1-.3-.1-.5-.1-.8.1-.7.7-.8 1.1-.8.7-.1 1.5 0 2.2.1.6.1 1.1.1 1.7.1 1.6-.1 3.1-.9 4.8-2.8.3-.3.5-.6.4-.8 0-.2-.3-.3-.6-.4-.9-.2-1.8.1-2.7.3-.3.1-.6.2-.9.2-.9.2-1.7 0-2.6-.3-.2 0-.3-.1-.5-.1-1.2-.3-2.3-.2-3.6-.1l-1 .1c-.1.3-.3.4-.4.6-.1.1-.2.1-.3.2-.1.2-.1.3-.1.6v.4c0 .5-.2.9-.4 1.3 0 .1-.1.2-.2.3-.1.2-.3.5-.3.7v.1c.3.9.8 1.7 1.5 2.2.7.1 1.5.3 1.9 0zm19.2 182.8c0-.2 0-.5.1-.8 0-.1 0-.3.1-.4-.3.2-.5.4-.7.6-.2.2-.3.4-.4.7-.1.1-.1.3-.2.4 0 .1-.1.1-.1.2-.2.4-.5.9-.8 1-.3.1-.5-.1-.7-.3l-.2-.2v.7c-.1.3 0 .6 0 1v3.3c-.1.8-.1 1.5.1 2.2h.1c0-.1.1-.1.1-.1h.2c.4-.3.6-.8.8-1.4.2-.4.3-.8.5-1.1.3-.4.5-.9.7-1.4.1-.2.1-.3.2-.5l.1-.2c.2-.6.4-.9.4-1.5v-.1c0-.4 0-.8.1-1.2 0-.1.1-.2.1-.3 0-.1.1-.2.1-.2h-.3c-.2-.2-.3-.3-.3-.4zm64.2-1.3v-.4c0-.1 0-.1-.1-.3-.1-.1-.1-.2-.2-.3 0 0 0-.1-.1-.1v.6c.1.2.2.4.4.5zm-3.6 1.4c-.1-.3-.3-.5-.7-.4-.5 0-1 0-1.5-.2-.9-.3-1.6-.5-2.2-.4 0 0 0 .1-.1.1-.1.2-.3.5-.2.6.1.3.6.6.9.7l.1.1c.8.4 1.6.8 2.4.6.3-.1.7-.2 1-.4.2-.1.4-.3.3-.7zm7.7.6h-.1v.2c.1.1.3.1.5.2-.1-.2-.3-.4-.4-.4zm5.4-94.5c-.8.5-1.6 1.1-2.5 1.1h-.4s-.1 0-.1-.1c-.1-.1-.2-.4-.2-.6-.1-.2-.1-.5-.2-.5 0 0-.1-.1-.3-.1-.4 0-.9.2-1.1.3-.1 0-.3.1-.4.2-.4.2-.9.4-1.4.3-.5 0-1-.2-1.6-.5-.3-.2-.5-.2-.8-.3l-.2-.1c-.2-.1-.5-.1-.7-.2l-.3-.1c-.1 0-.2-.1-.3-.1-.1-.1-.2-.1-.3-.1-.1 0-.2 0-.3.3-.1.2-.2.5-.3.9 0 .1 0 .2-.1.3h2.7c.1 0 .2.1.2.2s0 .2-.1.2c-2 .5-3.7 1.5-5.6 2.8-.6.4-.9 1-.8 1.6.2.9 1 1.6 1.8 1.6.3 0 .5-.1.8-.2.4-.3.8-.8 1.1-1.3.4-.5.8-1.1 1.3-1.4.3-.2.7-.2 1-.2h1.1c1.8-.4 3.7-1.1 5.3-1.9.3-.2.6-.3.9-.5 1.2-.5 2.4-1.2 3.3-2.2-.4-.1-.9.2-1.5.6zm-5.5 97c.1-.2.1-.5 0-.7-.1-.2-.2-.3-.4-.4 0 .1-.1.1-.1.1s-.1 0-.1.1 0 .4.2.7c0 .1.2.2.4.2zm-.8-3.6c-.1-.1-.2-.1-.3 0l-.1.1v.2c0 .2 0 .3.3.4.1-.2.1-.5.1-.7 0 .1 0 0 0 0zm-5.3-47.1c0-.2 0-.3.1-.5s.2-.2.4-.2c.1 0 .1 0 .1-.1v-.2c-.1-.1-.3-.2-.4-.2v.1c-.2.2-.4.7-.3 1 0 .1.1.2.1.3v-.2zm4.2-60c-.2-.2-.4-.3-.6-.4-.2-.1-.3-.1-.3-.1-.1 0-.1.2-.2.4v.3c0 .2-.1.3-.1.4v.3l.1.1c.2.2.5.2.9.3.3 0 .5.1.8.2.1.1.3.1.4.2.4.2.7.4 1.1.4.4 0 .8 0 1.1-.1h.3v-1c-1.1 0-2.1-.3-2.8-.7-.3.1-.5-.1-.7-.3z"/><path class="st0" d="M326.4 126.7c.2.1.3.2.4.1.3-.1.5-.7.6-1 0-.1.1-.2.1-.3.1-.3.1-.6.3-.8.1-.2.2-.3.3-.4.1-.1.2-.3.3-.4.1-.2 0-.4-.1-.5-.1-.1-.2-.1-.3.1 0 .1-.1.1-.2 0-.4.3-.7.8-.9 1.4-.1.1-.1.3-.2.4 0 .1-.1.2-.1.2-.2.3-.4.7-.3.9-.1.1 0 .2.1.3zm3.9 6.6c.3-.1.5-.2.5-.3v-.1c0-.1-.2-.2-.3-.2h-.4c-.3.2-.6.3-1 .2 0 .2 0 .4.1.4.2.1.6.1 1.1 0zm-31 86.3l-.1-.1-.3-.3c-.2-.3 0-.8.1-1.2 0-.1.1-.2.1-.3.1-.5.1-1.1.1-1.6v-.3h-.2c-.2.1-.4.2-.5.3l-.6.3c-.5.2-.7 0-1-.2-.1-.1-.2-.1-.3-.2-.8-.6-1.6-.3-2.5.3v.1c.1.2.7.2 1 .2h.5c.4.1.6.3.6.5.1.2 0 .5-.1.7-.1.2-.2.4-.2.5.1 0 .2.1.3.2.4.2 1 .5 1.2 1 .1.2.1.5 0 .7-.2.4-.6.6-.8.7-1 .3-2.1.3-3.3-.2-.5-.2-.9-.3-1.4-.5 0 .1-.1.3-.2.4-.1.2-.2.4-.2.6 0 .2.4.5.6.6l.2.1c.2.2.6.4.8.5.3 0 .4-.2.4-.8v-.2c0-.1.1-.1.1-.2.4-.1.7 0 1.1.1.1 0 .2.1.4.1.6.1 1.1 0 1.5-.1.2 0 .5-.1.7-.1.3 0 .6.1.9.3.2.1.4.3.5.5v-1.1c-.1-.7.3-1.1.6-1.3zm17.5 1v.2c.4.4.9.3 1.3.1.2-.1.3-.3.3-.7 0-.2-.1-.3-.2-.4h-.2c-.4.4-.7.6-1.1.6-.1.1-.1.2-.1.2zm8.7-100.4c-.1 0-.1-.1-.1-.1 0 .1-.1.2-.1.2-.1.1-.1.3-.1.4 0 .1.1.1.2.2 0 0 .1 0 .1.1.1 0 .3-.2.4-.3l.1-.1c.1-.1.2-.2.2-.3h-.4c-.2 0-.2 0-.3-.1zm-7.9 102.5c.2.1.4.1.6.1 0-.3 0-.3-.2-.4h-.1c-.1-.1-.4-.2-.4-.1h-.1c-.1.1-.1.3-.1.3 0-.1 0 0 .3.1zm1.4-98.3v-1.7c0-.1-.1-.1-.1-.1h-.3v.2c0 .3 0 .8.1 1.1.1.1.2.3.3.5zm-41.6-18.3c0-.2 0-.4-.2-.5-.2-.1-.5-.1-.6.1v.2c-.1.2-.2.3-.2.5h.2c.5.1.8.1.8-.3zm2.5 149.6c.1 0 .2-.1.2-.1.1-.2 0-.5-.1-.6-.2-.3-.4-.6-.6-.6v.4c0 .3 0 .8.1.9.1 0 .3.1.4 0zm-84.2-54.3l-.1-.1c-.1.3-.1.6 0 .7 0 0 .1.2.3 0 .1-.1.2-.1.2-.2s-.3-.3-.4-.4zm144.6-93.7c-.2.1-.3.2-.5.2-.2.1-.4.1-.6.1-.5.1-.8.1-1.1.7 0 .1-.1.1-.2.1-.3.7-.7 1.4-1.1 2-.4.6-.7 1.1-1 1.8-.4.8-.6 1.7-.9 2.6-.2.8-.5 1.6-.8 2.4-.4.9-1 1.2-1.6 1.6l-.1.1c-.5.3-1 .6-.9 1.1.3 1.2 2.2.7 3.4.4.4-.1.7-.2.9-.2h1.6c1.2.1 2.3.1 3.5-1 0 0 .1-.1.2 0 .1 0 .1.1.1.2 0 .7.1 1 .5 1.4.1.2.2.3.4.6.1.1.1.3.2.4.2.4.2.5.7.4.4-.2 1.1-.6 1.5-.9l.1-.1c.4-.3.5-.6.6-1.1 0-.2.1-.3.1-.5 0-.1.1-.1.1-.1.1 0 .1 0 .1.1.2.4.3.9.4 1.3.3.9.5 1.9 1.1 2.4.3.3 1 .6 1.4.4.5-.3.4-1.3.4-2.1v-.6c0-.7.1-1.4.3-2 0-.2.1-.3.1-.5-.3 0-.5.4-.8.7-.2.3-.5.6-.8.8-.3.1-.8 0-1.1-.3-.3-.3-.4-.7-.4-1.2 0-.1.1-.2.2-.2.3 0 .4-.1.5-.2 0-.1-.1-.3-.1-.3l-.3-.3c-.2-.1-.4-.3-.5-.7-.3-.5-.5-1.1.1-1.7.2-.2.4-.3.6-.4.1 0 .2-.1.3-.2 0-.2-.1-.3-.3-.4-.1-.1-.3-.2-.4-.3-.1-.1-.1-.4-.2-.6 0-.2-.1-.6-.2-.6h-.1c-.1 0-.1.3-.1.5-.1.3-.1.6-.3.7-.2.1-.4 0-.6-.1-.2-.1-.4-.2-.6-.1-.1.1-.3.4-.4.6-.3.6-.8 1.4-1.3.9-.2-.2-.4-.6-.5-1-.1-.2-.2-.5-.3-.6-.3-.5-.5-.9-.9-1.2-.5-.4-.7-.2-1.1.2-.2.3-.5.5-.9.7-.1 0-.1 0-.2-.1 0-.1-.1-.1 0-.2.6-1.8 1.5-3.3 2.7-4.6.2-.3.6-.6.6-.9 0-.1 0-.2-.1-.3-.5-.3-.9-.1-1.4.2z"/><path class="st0" d="M339.4 122.1v.2c-.1.4-.1.5 0 .9.1.3.3.6.5.9v-.3c0-.4.1-.8 0-1.2 0-.6-.1-.6-.5-.5zm2-12c.1 0 .3-.1.3-.2l.1-.1h.1c.1 0 .2-.1.2-.1l-.1-.1c-.1-.1-.3-.1-.4-.1 0 0 0 .1-.1.1-.1.2-.2.4-.1.5zM236.1 19.6h1c.1 0 .2 0 .3.1.1 0 .3.1.3.1.1 0 .3-.2.4-.4.1-.1.1-.2.2-.3-.1 0-.3-.1-.4-.1-.2 0-.4-.1-.6-.1-.8-.3-1.8-.2-2.8-.1-.3 0-.6 0-.9.1-.3 0-.6.2-.8.4l-.2.1c-.3.2-.6.3-.9.3.3 0 .5.1.7.1h1.4c.8-.1 1.5-.1 2.3-.2zm.1 7.2l.3.1c.1 0 .2.1.3.2.3.2.6.3.9.3-.1-.1-.3-.2-.4-.2-.3-.2-.6-.4-.9-.5h-.1c-.3-.1-.7-.3-1.1-.4.1.1.1.1.2.1.3.2.5.3.8.4zm6.8 1.5c.3 1 .6.9 1.2.8.3-.1.6-.1 1-.1.4.1.7.2 1.1.3.7.3 1.3.5 2.1.2.5-.2 1.1-.3 1.7-.4.6-.1 1.2-.2 1.7-.4h.1s.1.1.1.2v.6c2 .2 4.4.4 6.6 0 .5-.1 1-.1 1.5-.2v-.2l.1-.1h1.6c.1 0 .1.1.1.1.1.2.2.4.4.4.7.3 2.1-.6 2.5-1.1h.1c.6.1 1.1.5 1.6.8.4.3.8.6 1.2.7.3.1.6 0 .9-.1.3-.1.5-.1.8-.1h.3c.2 0 .4.1.6 0 .1 0 .3-.1.4-.1.2-.1.4-.2.6-.2.3 0 .6-.1.9-.1.3 0 .6-.1.9-.1.1-.2.3-.4.4-.6.3-.4.5-.7.4-1.3v-.1c-.1-.4-.2-1-.5-1.2-.2-.2-.5-.1-.7-.1h-.5c-.3 0-.6-.2-.9-.3-.1-.1-.3-.2-.4-.2-.3-.1-.6-.1-.9 0-.1 0-.2 0-.3.1-.3.1-.5.1-.8.1h-.6c-.3 0-.5.1-.7.3-.1.1-.3.1-.4.2-.7.2-1.2-.1-1.7-.4-.3-.2-.5-.3-.8-.4-.7-.2-1 .1-1.5.5-.2.2-.4.3-.6.4-.5.3-1.1.2-1.7.1-.6-.1-1.2-.2-1.6.1-.1.1-.2.2-.3.4-.1.2-.2.4-.4.5-.4.2-1 .2-1.5.2h-.4c-.5 0-.9 0-1.4-.4-.4-.3-.7-.4-1.2-.4-.3 0-.5 0-.8-.1-.7-.1-1.3-.2-1.8.4-.1.1-.1.1-.2 0-.3-.4-.8-.4-1.3-.3h-.4c-.1 0-.1 0-.1-.1v-.2c.2-.2.2-.6.2-.8 0-.5-.3-1.1-.6-1.3-.7-.5-1.9-.6-2.2-.6h-.8c-.6.1-1.3.1-1.8-.2-.2-.1-.3-.2-.4-.3-.2-.2-.3-.3-.5-.3h-.9c-.2 0-.5.1-.7 0-.2 0-.4 0-.6.1-.7.1-1.5.2-2-.2-.1.3-.2.6-.3.8 1.7.8 3.3 1.9 4.1 4.7zm-12.2-5.6c.6.1 1.4.3 2.1.7.1 0 .2.1.3.1.4.2.8.4 1.3.4.6 0 1.2-.1 1.7-.2.2 0 .3-.1.5-.1.5-.1.9-.3 1.4-.4-.2-.3-.5-.7-.8-.9-.4-.3-.8-.3-1.2-.3-.2 0-.4 0-.5.1-.3 0-.7.1-1.1.1-.3 0-.6-.2-.9-.3-.1-.1-.2-.1-.3-.2-.1 0-.2-.1-.4-.1s-.3-.1-.5-.1c-.1 0-.2-.1-.2-.1-.1-.1-.2-.1-.3-.1-.3.1-.6.4-.9.6-.2.1-.3.2-.5.3-.2.1-.4.2-.6.2-.2.1-.4.1-.5.3.3.2.6.2.9.2.2-.2.3-.2.5-.2zm-29.9 28.4h.4c.9 0 1.7.1 2.5-.4.5-.3.9-.7.8-.9 0 0-.1-.1-.4-.2-.8-.1-1.7.1-2.6.3-.2 0-.4.1-.6.1-1.1.2-2.1.3-3 .3 0 .3-.1.6-.2.9 1.3-.1 2.2-.2 3.1-.1zm8.8-24.3c-.2-.1-.4-.3-.6-.3v.2c-.1.3-.3 1.6-.2 1.8 0 .1.1.1.2.1.3-.1.7-.5.7-.8 0-.1 0-.1.1-.1h.1c.2.1.4.2.6.2.1 0 .2 0 .2.1-.1-.5-.3-.8-.6-.9-.2 0-.3-.1-.5-.3zm-13.3 25.3s0 .1 0 0c-.3.1-.5.2-.6.3 0 .1 0 .1-.1.2h.2c.2 0 .5.1.6-.1 0-.1.1-.1 0-.2 0-.1 0-.1-.1-.2zm32.7-17.4c-.2.3-.4.6-.4.9.2 0 .5-.2.6-.4 0-.2 0-.5-.1-.7 0 0 0 .1-.1.2zm-18.7-10.5c.2-.1.5-.1.7-.1.4 0 .9 0 1-.2l.1-.2c0-.1-.2-.3-1.2-.5h-.1c-.4-.1-.8-.2-1.1-.3-.3-.1-.7-.2-1-.2v.1c0 .2-.1.4-.1.6-.2.5-.2.7 0 .9.6.3 1.5 0 1.7-.1zm64.5 10.5c.3.5.5.8 1.1.6 1-.3 1.8-.4 2.5-.5h1.2c.5 0 .9.1 1.4 0 .4-.1.8-.2 1.1-.3.3-.1.7-.2 1-.2-.3-.3-.6-.7-.9-1.1-.1-.1-.1-.2-.2-.3-.3-.4-1.1-.3-1.7-.2-.2 0-.4.1-.6.1-1 0-2-.1-3-.3-.6-.1-1.2-.2-1.8-.2-.3 0-.7-.1-1-.1-.4-.1-.7-.1-1.1-.1v.1c.5.7 1 1.4 1.6 2.1.2.1.3.3.4.4zM205 33c-.9.1-2.1 0-3 .2.6.4 1.2.5 1.9.6.5.1.9.2 1.4.4.2.1.4.2.6.4.3.3.6.5 1.1.4.3-.1.5-.4.7-.7.1-.2.3-.4.4-.5-.5-1.1-2.2-.9-3.1-.8zm41.2-13c.2.1.4.3.6.5.2.2.4.3.5.4-.1-.4-.6-1-1.1-1.4-.3-.3-.8-.5-1.2-.6v.1l-.1.1c.1.3.5.5.9.7.1 0 .3.1.4.2zm-35-2.8h.2c.4 0 .7 0 1-.1.4-.2.5-.1.8 0 .1 0 .2.1.3.1.7.3 1.5.3 2.3.2h1.2c.3 0 .6-.1.8 0 .2.1.3.2.4.3.1.2.2.3.5.3.3.1.7.1 1 0h.9c.2 0 .4.1.6.1.3.1.6.1.9.1-.1-.2-.1-.3-.2-.5s-.2-.5-.3-.8c-.1-.5-.3-.6-.6-.7-.1 0-.2-.1-.4-.1-.3-.1-.5-.2-.7-.4-.2-.1-.4-.2-.7-.3-.3-.1-.6-.2-.9-.2-.2 0-.3 0-.5-.1-.3-.1-.6-.1-.8-.2-.7-.2-1.4-.4-2-.3-.5 0-.8.3-1.3.6-.5.4-.9.4-1.4-.1-.7-.7-1.3-1.2-2.1-1.3-.3.2-.7.9-1 1.3-.1.1-.2.3-.2.4l-.1.2c-.2.3-.3.5-.6.8l-.1.1c-.1.1-.2.2-.2.3h1.9c.4.3.8.3 1.3.3zm-17.4 10.1c-.5-.1-.9-.1-1.4-.3h-.1c-.2-.1-.4-.2-.5-.2-.2-.1-.2 0-.4.1-.3.2-.5.5-.7.7-.4.4-.8.9-1.4 1.1-.5.2-1.1.3-1.7.4h-.9c-.3 0-.7 0-1 .1-.5 0-1 .1-1.5 0-.3 0-.5 0-.7.1 0 0-.1.1-.2.1h-.3c-.1 0-.1.1-.2.1l-.2.2c-.2.1-.4.1-.6.1h.1c.1 0 .2.1.3.2.2.2.4.3.6.4.4.2.9.2 1.3.2h2.1c.1 0 .1-.1.2-.1.1-.1.2-.2.4-.2h.9c.6 0 1.1.1 1.6.1.3 0 .5-.1.7-.2.2-.2.4-.2.6-.3.1 0 .1 0 .2-.1.1 0 .2-.1.3-.1.1-.1.3-.1.5-.1.1 0 .3-.1.4-.1.1 0 .3-.1.4-.1.4-.1.8-.1 1.2-.1.3 0 .6 0 .9-.1.4-.1.7-.1 1.1-.2.4-.1.8-.1 1.1-.2.4-.1.9-.1 1.3-.1h.4c.3 0 .5-.1.8 0 .9.2 1.8.2 2.6.1 1.2-.2 2.2-.6 2.8-1.3.3-.3.4-.6.3-.8-.2-.4-.9-.4-1.2-.4h-.1c-.8-.1-1.6.1-2.3.2h-.2c-.6.1-1.3.2-1.9.2-1.1-.2-2.5-1-2.9-2.5 0-.1 0-.2-.1-.2v.6c0 .2 0 .4-.1.6v1.3c0 .6-.4.8-.6.9-.4 0-.9 0-1.9-.1zm11.4-7.2c.2.1.3.2.5.2.2.1.5.1.7.4.2.2.5.6.7.6 0 0 .1 0 .2-.2.2-.5-.6-1.1-1-1.4-.1 0-.1-.1-.2-.1-.1-.1-.3-.2-.4-.4-.3-.3-.6-.5-.9-.6v.3c.1.6.1 1 .4 1.2zm-18.1-2.9c.4-.1.8-.2 1.2-.2h.2c.3 0 .7.1 1 .1.4 0 .7.1 1.1.1.8 0 1.5.1 2.2.3.1 0 .2.1.4.2.4.2 1.1.5 1.4.2.1-.1.1-.2.1-.3 0-.3-.2-.7-.5-1-.9-1-2.3-.7-3.6-.5-.4.1-.8.2-1.2.2-.5 0-1.1.1-1.6.2-1.1.1-2.2.3-3.3.3.8.8 1.7.6 2.6.4zm47-3.6c.4 0 .8 0 1.2-.1.8 0 1.7-.1 2.6-.3 1.4-.4 2.4-.2 3.7 0h.1c.3.1.7 0 1.1 0 .7 0 1.5-.1 2.1.3h.2c.1 0 .1.1.2.2v.3c-.1.1-.2.1-.2 0s-.1-.1-.1-.1c-.5 0-.8.1-1.3.4-.5.3-1.2.3-1.8.2h-.1c-.6 0-1.3-.1-2-.1s-1.4 0-2.1-.1h-.3c-.5-.1-.8-.1-1 .3.6.3 1.1.7 1.6 1 .3.2.5.4.8.6.8.5 1.7.9 2.5 1.1.8.2 1.6.2 2.4.1h3.4c.4-.1.7-.3.7-.7.1-.4-.2-.9-.5-1.1-.1 0-.1-.1-.1-.2s.1-.1.2-.1c.7.1 1.9.7 2.5 1.3.9 1 2.1.2 2.5-.2.6-.6 1.5-.8 2.2-1 .2-.1.5-.1.7-.2.4-.1.7-.2 1.1-.4.5-.2 1-.4 1.5-.5h.2c.7-.2 1.5-.4 2.1-1-1.2-.1-2.3-.3-3.5-.7-.6-.2-1.1-.3-1.7 0h-.1c-.4.1-.7.3-1 0-.2-.1-.3-.4-.4-.7-.1-.5-.1-1.1-.1-1.6v-.8c-.4 0-.7.3-1.1.6-.4.3-.8.7-1.3.6-.2 0-.5-.2-.8-.4-.2-.1-.4-.3-.5-.3-.6-.3-1.1-.4-1.7-.5h-.3c-1.1-.1-2.1-.1-3.1-.6-.2-.1-.4-.2-.7-.3-.4-.2-.8-.3-1.2-.6-.2-.1-.4-.3-.6-.5l-.4-.4c-.8-.6-2.1-.5-3.1-.5h-.2v.3c0 .1 0 .2-.1.2-.5.3-1.1.2-1.5.1-.1 0-.2-.1-.4-.1-.3-.1-.5-.2-.7-.1-.1.1-.3.5-.5 1.4-.1.5 0 .9.2 1.4.3.7.4 1.4.5 2.2 0 .1-.1.2-.1.2-.2 0-.5 0-.7.1-.9.1-1.9.1-2.5.7-.2.2-.2.3-.2.3.1.2.8.4 1.7.3zm-52.7 5.8c.4.2.8.1 1.2 0 .6-.2.7-.3.7-.4l-.1-.1c-.2-.2-.8-.2-1.2-.3h-.5c-.3-.1-.6-.1-.8.1l.3.3c0 .1.2.3.4.4zm40.3-7.9c.1.1.3.2.3.2.2.1.3.3.5.4.2.2.5.5.7.6.1-.3.2-.5.1-.7-.1-.1-.3-.2-.5-.3-.2-.1-.3-.1-.4-.2-.1-.1-.3-.2-.4-.3-.2-.2-.4-.4-.6-.5-.2-.1-.5-.1-.6-.1-.1.2.6.7.9.9zm9.1 6.9c.7-.2 1.3-.3 2-.4h.2c.4-.1 1.1-.2 1.2-.6v-.3c-.2-.3-.7-.5-1-.6-.5-.1-1-.1-1.5 0-.3 0-.5.1-.7.1-.7 0-1.4-.3-2.1-.6-.7-.3-1.4-.6-2.1-.5 0 .9.3 1.7.9 2.3.6.6 1.9.9 3.1.6zm-13.3 4.5l-.6.3c-.3.1-.6.1-.9.1-.7 0-1.1.1-1.1.5 0 .9-.3 1.6-1 1.9.1.1.1.2.1.3 0 .1 0 .1-.1.1-.1.1-.3.2-.4.3l-.1.1c.2 0 .5-.1.7-.1h.1c.4-.1.9-.2 1.5-.1.3 0 .6 0 .8.1.8.1 1.7.1 2.5-.1.1 0 .1-.1.2-.1.2-.1.3-.1.5-.2h.1c.3-.1.7-.1 1-.1.1 0 .1.1.1.2s-.1.2-.2.2h-.5c-.2.1-.3.1-.5.1h-.1c-.1 0-.2.1-.3.1-.2.1-.5.6-.6.9 1.4 1.3 3.2 1.5 5.1.7l.9-.3c.5-.1 1-.2 1.4-.5.4-.3.3-1 .3-1.7 0-.3-.1-.5 0-.8 0-.8 0-1.3-.1-1.5-.1-.1-.2 0-.3 0-.2 0-.4.1-.7 0-1-.5-1.8-.8-2.8-.7-1.2 0-2.3-.1-3.5-.3-.5.1-1 .4-1.5.6zm-2.9-3.6h.5c.4 0 .8.1 1.2.1.4.1.7.1 1.1.1.3 0 .4-.1.4-.1 0-.1-.3-.6-.7-.9-.7-.5-1.1-.2-1.7.2l-.1.1c-.2.1-.5.2-.8.2-.3 0-.5 0-.7.2.1.2.4.2.8.1zm16.8 28.1c.1 0 .3 0 .4-.1l.1-.1s0-.1-.1-.1c0-.1-.1-.2-.1-.3h-.4c-.2 0-.4.1-.6 0-.1 0-.1 0-.2-.1-.2-.1-.5-.1-.6-.1 0 0 0 .1-.1.1 0 .1-.1.2-.2.3-.1.1-.4.2-.6.2-.3 0-.5-.2-.8-.3-.1-.1-.2-.1-.3-.2l-.1-.1c-.3-.2-.7-.4-1-.6l-.1-.1c-.3-.2-.3-.2-.6 0l-.2.2-.5.5c-.1.1-.1.2-.2.4l-.3.6c-.4.4-1 .3-1.6.3-.4 0-.7-.1-1 0 0 0 0 .1-.1.1-.2.1-.4.3-.3.5 0 .3.2.6.5.6h.4c.3 0 .5 0 .8.1.2.1.3.1.5.2l.6.3c.7.2 1.4.1 2.2.1h.9c.9 0 1.7.1 2.6.3.7.2 1.4-.2 1.8-.7-.2-.1-.4-.2-.6-.2-.3 0-.5-.1-.8-.3-.2-.2-.3-.6-.3-.9 0-.2 0-.5.1-.6h.8zm37.5 16.1c-.5-.3-.9-.6-1.3-.9-.9-.6-1.7-1.2-2.8-1.3-.2 0-.5 0-.7-.1-.4 0-.9-.1-1.3-.1-.2 0-.4.1-.6.1-.5.1-1 .3-1.5-.1-.2-.2-.4-.5-.6-.8-.2-.4-.4-.8-.7-.8-.5 0-.8.9-1 1.5l-.1.2c-.1.2-.2.5-.3.7-.2.5-.5.9-.4 1.4 0 .3.1.6.2.9.1.3.2.6.3 1v.2c0 .1-.1.2-.1.2h-.1c-.3.2-.5.4-.8.6l-.9.6c.5.4 2 .1 2.4-.3l.2-.2c.1-.1.2-.2.3-.2.1 0 .2.1.4.3.3.3.6.7.8 1v.1c0 .1.1.1.1.2.2.3.2.3.5.4.6.1 1-.3 1.5-.8.6-.6 1.2-.7 1.9-.8h.1c.5-.1.8-.4 1.2-.7.3-.3.7-.6 1.1-.8h.1l.1.1v.8c.3 0 .6.1.9.1.3.1.6.1.9.1.5 0 .9.1 1.4.3.6.3 1.1.5 1.8.4-.7-1.1-1.9-2.6-3-3.3zm11.3 4.8c.4.1.9.3 1.1.2.1-.1.2-.2.2-.3 0-.2-.1-.4-.2-.6-.9-1.1-1.6-.7-2.6-.1l-.1.1c.4.4.7.6 1.2.7.1-.1.2 0 .4 0zm7.1-4.7c-.1-.5-.2-.7-.4-1-.1-.1-.2-.2-.3-.4l-.3-.6c-.1-.3-.2-.6-.4-.7-.3-.2-.9-.2-1.4-.1h-1.3c-.5 0-1 0-1.4-.2-.1.7-.3 1.1-.6 1.6-.1.2-.2.3-.3.5-.2.3-.2.5-.2.7 0 .2.2.3.4.5 1.2.6 2.9.5 4.1.2.3-.1.5-.2.8-.2.4-.1.8-.3 1.3-.3zm-4.3 3.7c.1 0 .1.1.2.1.1.1.2.2.3.2.1 0 .3-.2.4-.3l.1-.1c.2-.2.2-.3.2-.3s0-.1-.3-.3c-.2-.1-.5-.2-.7-.3-.1 0-.2-.1-.3-.1 0 0-.1 0-.1-.1-.1-.1-.3-.1-.4-.1-.2.1-.6.5-.6.6h.1l.1.1c.2.1.3.1.5.2.1.2.3.3.5.4zm-3-21.5c.1-.1.1-.3 0-.4 0-.1-.1-.1-.2-.1-.2 0-.3.1-.4.3-.1.1-.2.2-.4.3-.1.1-.2.1-.3.1-.2 0-.3.1-.5.3-.1.2-.3.3-.4.4h.3c.3 0 .6 0 .8.5.1.3.2.4.5.4h.7l-.3-.3c-.2-.2-.5-.5-.4-.8 0-.2.2-.3.4-.5.1-.1.2-.1.2-.2zm.7 20.1c.3.1.7-.2 1-.5 0 0 0-.1-.1-.1-.3-.2-1.1 0-1.4.2.1.2.3.4.5.4z"/><path class="st0" d="M217.3 45.1c-1.1-.4-2-.9-3-1.5-.6-.4-1.1-.5-1.6-.5-.4 0-.7.1-1.2.2-.3.1-.5.1-.8.1-.7 0-1.3-.4-1.9-1.4-.9-1.4-1.6-3-2.3-4.5l-.2-.4c-.6-1.3-1.1-2-2.4-2.1h-.7c-1.1-.1-2.2-.1-3.2-.9l-.3-.3c-.2-.2-.3-.4-.4-.4-.1 0-.2.3-.3.5-.5 1.2-.3 2.6.5 3.6l.3.3c.4.5 1 1.1.9 1.7 0 .3-.1.5-.3.7-.2.2-.4.3-.6.3-.7 0-1.3-1-1.6-1.6v-.1c-.8-1.4-1.8-1.5-2.8-1.5h-1c-1.2.1-2.5.2-3.6.5-.1 0-.2.1-.3.2-.2.1-.4.2-.6.2-.2 0-.3-.1-.3-.2-.1-.2.1-.5.3-.9.1-.2.3-.4.3-.5 0-.1-.1-.1-.3-.1-.2 0-.4 0-.6.1-.3.1-.6.1-.8 0-.2-.1-.4-.2-.7-.2-.3-.1-.5-.2-.8-.3-.2 0-.4-.1-.6 0-.1 0-.3.1-.4.1-.1.1-.3.1-.4.1h-.2c-.4.1-.8.2-1.1.4l-.9.6c-.1.1-.3.2-.6.2h-.6c-.3 0-.6 0-.7-.7v-.1c0-.3-.1-.7-.2-1 0-.1 0-.1-.1-.2-.1-.2-.1-.5-.3-.6-.1-.1-.2-.1-.4 0h-1c-.3 0-.6.1-.9.2-.2.1-.3.1-.5.2-.3.1-.6.1-.9.3-.4.2-.7.4-1.1.4h-1.2c-.5.1-1 .2-1.4.6-.2.1-.3.4-.4.6l-.1.1c-.1.2-.2.3-.3.4 0 .1-.1.1-.1.2-.4.5-.8 1-1.3 1.4-.2.2-.4.3-.7.4-.1.1-.2.1-.3.2l-.2.2c0 .1 0 .1.1.2.2.3.7.4 1.1.3h.3c.2 0 .4 0 .6-.1h.6c.3 0 .5.1.6.4.1.2.1.4.1.5-.1.3-.4.4-.7.4h-.1c-.2.1-.5.2-.7.3-.1 0-.2.1-.3.1.1.1.3.3.4.5.3.3.5.6.8.8.7.6 1.7.5 2.6.5h.3c1.2 0 2.3-.1 3.4-.2 1.2-.1 2.5-.2 3.7-.2h2.2c.7 0 1.6 0 2.4.2.1 0 1.3.2 1.4.8 0 .2-.1.4-.3.6-.4.3-1 .3-1.5.4h-.3c-.5 0-1.1.1-1.7.1h-.5c-.8 0-1.6 0-2.3-.1-.5 0-.9 0-1.4-.1h-1.3c-1.2 0-2.5.1-3.5.2h-.6c-.5 0-.8.1-.9.3-.1.7 1 1.5 1.8 1.8 1 .5 2.2.7 3.8.8h1.4c.5 0 1.1 0 1.7.3.6.3.7.8.8 1.2.1.3.1.6.3.8.3.4.8.4 1.2.5h.1c.5.1 1 .1 1.4.1.3 0 .6.1 1 .1.2 0 .4.1.6.1.3.1.6.1.9.1.3 0 .6-.1.8-.2 1-.6 1.9-.8 2.8-.9h1.2c.4 0 1-.1 1.5-.4l.1-.1c.7-.4 1.3-.8 2.1-.9h.5c.8-.1 1.6-.1 2.3-.4.5-.2.9-.5 1.4-.9.2-.2.5-.4.7-.6h.1c2 1.5 4.2 1.8 6.4 2.3l.5.1c.6.1 1.2.2 1.8.2.7 0 1.3-.2 1.8-.5.4-.2.7-.6 1-.9.4-.4.9-.9 1.4-1.1.2-.1.5-.2.8-.2.5-.1.9-.2 1.2-.5.1-.2.2-.4.2-.5 0-.7-.5-1-.9-1.2zm57.5 47.2c.5 0 .6-.1 1-.6l.1-.1.3-.3.3-.3h-.1c-.2 0-.4-.1-.5 0-.1.2-.3.4-.5.6-.2.1-.5.4-.6.7zM290 69.5c-.1.2-.1.5.1.6.2.2.7.2.9-.2v-.1c-.1-.2-.8-.4-1-.3zm-14 3.7l.1-.2c.1-.5.2-.9.2-1.3 0-.1 0-.2.1-.4 0-.2.1-.6.1-.7 0-.1-.1-.2-.2-.2s-.2.1-.2.3c0 0 0 .1-.1.1 0 .2-.1.4-.1.6 0 .3 0 .6-.1.9 0 .1-.1.2-.1.3-.1.4-.2.8-.2 1.1.3.1.4.1.5-.5zm2.2 18.9c.2 0 .4-.1.5-.2.1-.2.4-.8.3-.9 0-.1-.1 0-.2 0-.2.1-.4.3-.4.3 0 .1-.1.1-.1.1-.1 0-.2-.1-.3-.2-.1-.2-.2-.5-.2-.8-.1-.1-.2-.1-.2 0v.2c0 .1 0 .2-.1.2-.3.8-.5 1.3-.2 1.9 0-.2.1-.5.4-.6.1.1.3.1.5 0zm-57.9-40.9c.2 0 .5 0 .5-.2v-.1c0-.1-.4-.2-.5-.2h-.2c-.1 0-.3.1-.4.1v.1c.1.1.4.2.6.3zm87.4 25.5c-.1 0-.1-.1-.2-.1s-.2.2-.2.3v.1l.2.2v.5c.1.1.3.3.5.2.1 0 .1 0 .1-.1.1-.2 0-.7-.1-1 0 0-.1 0-.3-.1zm-87.6-27.3c.2-.1.5-.6.5-.8 0-.2-.2-.2-.5-.2h-.1c-.1.1-.2.3-.2.5s0 .4.1.5c0 .1.1 0 .2 0zm-4.1.3c-.1 0-.1 0 0 0h-.1c-.3 0-.8.4-.9.7 0 .1.2.2.2.2.2 0 .4-.1.6-.4l.2-.2c.1-.1.2-.2.2-.3h-.2zm52.8 18.9c.1.4.3.8.5 1.1.1.1.3.2.4.1.2 0 .3-.1.3-.2 0-.4-.8-1-1.2-1zM216.4 48c-.2.2-.2.5-.3.7.4 0 .6-.3.7-.7-.1-.1-.3-.1-.4 0zm56 54.7c.1 0 .2.1.2.1.2.1.3.3.5.4-.4-.9-.7-1.1-.8-1.2 0 .1-.1.2-.2.2h-.1c0 .2.1.3.4.5zm-15.5-51.6c-.5 0-.8.1-.9.3 0 .3 0 .6.2.8.1.1.3.3.5.2.3-.1.6-.6.7-1v-.1c-.1-.1-.3-.2-.5-.2zm-28.5-13.8c-.1-.2-.1-.4-.2-.5-.2-.6-.4-1.3-.9-1.5-.4-.1-.9-.1-1.3 0-.3 0-.7.1-1 0 0 0-.1 0-.1-.1V35c.1-.5.6-.8 1-1 .1-.1.2-.1.3-.2.5-.4 1.1-.8 1.7-.9-.1-.3-.6-.7-1-.9-.1-.1-.2-.1-.3-.2-.5-.4-1-.2-1.5 0l-.2.1c-1.3.4-2.7.4-4 .5-.5 0-.7.6-.9 1.6-.1.4-.1.7-.2 1-.3.7-.7.9-1.2 1.2l-.2.1c-.6.3-1 .2-1.6.1l-.2-.1c-.2 0-.3-.1-.5-.1s-.5-.1-.7-.2c-.1 0-.2-.1-.3-.2-.2-.1-.3-.2-.5-.2s-.4.2-.6.3c-.1.1-.2.2-.4.3.4.1.7.3 1 .6.4.3.9.7 1.3 1 .3.2.8.2 1.2.2.3 0 .7 0 1 .1.9.3 1.6.6 2.4 1.1.8.4 1.7.9 2.6 1.4l.2.1c.3.2.6.4 1 .2.2-.1.3-.2.5-.3l.3-.3c0-.1-.1-.2-.1-.3-.1-.2-.2-.4-.2-.7 0-.1 0-.1.1-.1h.1c.3.1.7.3 1 .4.5.3 1 .5 1.5.5.4-.1 1.5-.6 1.7-1 .1-.3-.2-.8-.5-1.1 0-.3-.2-.5-.3-.7zm-46.6-14.6c.2 0 .4-.1.5-.1h1.5v-.3c-.1-.2-.4-.2-.6-.3-.4-.1-.9-.2-1.4-.2-.3 0-.5.1-.7.2-.1 0-.2.1-.2.1-.1.1-.2.1-.3.1-.2 0-.3.1-.4.2.4.5 1.1.4 1.6.3zM220 44.2c0-.2-.3-.6-.6-.8-.2-.2-.3-.3-.3-.4-.1.5-.1.6.2.9.4.5.6.5.6.4.1 0 .1-.1.1-.1zM11.8 109.9c.1-.3.1-.6 0-.7-.1.3-.3.7-.3 1l.3-.3zm-4-.4c.1-.2.2-.4.2-.5-.1-.2-.5-.3-.8-.3 0 .4.1 1 .2 1.1.2 0 .3-.2.4-.3zm8.1-.3c-.2.3-.4.7-.8.7-.2 0-.3-.1-.5-.3-.1-.1-.2-.1-.3-.2-.1 0-.1 0-.2-.1-.2-.1-.3-.1-.5-.2v.1c-.1.3-.1.3.1.4.1 0 .1.1.2.1.3.1.7.2.7.8.2.1.5 0 .7 0h.1c.2 0 .2-.1.3-.1v-.1c0-.1 0-.2.1-.3l.3-.6c.1-.2.3-.5.3-.7-.2 0-.3.2-.5.5zm159.5-83.1c-.1.1-.3.2-.4.4-.2.2-.5.5-.8.6-.3.1-.5.1-.7.1-.3 0-.6 0-.9.3 0 .2 0 .6.1.8.3 0 .7-.1 1-.1.3-.1.6-.1 1-.1.2 0 .5 0 .7.1.2.1.5.1.7.2.6.2 1.1.4 1.7.3.3 0 .4-.1.6-.3.1 0 .1-.1.2-.1.3-.2.5-.1.8 0 .1.1.2.1.3.2.3.1.5 0 .8-.2.1-.1.2-.1.4-.2s.4-.1.6-.1c.2-.1.4-.1.6-.2.6-.3 1.7-.7 2.2-.2.1.1.1.2 0 .3l-.1.1c-.1.1-.1.2-.2.3h1.8c.4 0 .8 0 1.2-.1.9 0 1.8-.3 2.7-1.1-.1-.3-.9-.7-1.2-.9-.3-.2-.5-.3-.6-.4-.5-.4-.8-.7-1.3-.7-.4 0-.8 0-1.2.1-.7.1-1.4.1-2.1-.1-.3-.1-.6-.3-.9-.5-.1-.1-.3-.2-.4-.3-.3-.2-.8-.2-1.1.1-.2.1-.3.3-.3.5 0 .1-.1.2-.1.2-.3 0-.5-.1-.8-.2-.1-.1-.2-.1-.3-.1h-.1c-.3-.1-.7-.2-1-.2-.7-.1-1 .2-1.6.7-.3.3-.6.5-.9.7-.2-.1-.3 0-.4.1zm-45.2 23c.1 0 .1.1.2.1.2 0 .5-.2.6-.2.1-.1.3-.1.4-.2.3-.2.6-.4 1-.4h.2c.4-.1.4-.1.6-.5.1-.3.2-.4.4-.5h-1.2c-.2 0-.4 0-.5.1-.1 0-.2.1-.3.2l-.2.2c-.2.1-.3.2-.4.4-.3.2-.6.5-.9.7 0 0-.1 0-.1.1-.1 0-.2.1-.2.1.1-.1.3-.1.4-.1zM35.5 92.6c0 .3 0 .5.2.7.2.2.4.4.6.3.2-.1.4-.3.4-.6 0-.5-.2-.5-.3-.5h-.3c-.2.1-.4.1-.6.1zM135 46.8c-.3.1-.5.1-.8.2.3 0 .5 0 .8-.2zM33.4 70.7c.8.3 1.1.5 1.8 1.2.2.2.6.3.8.2.1-.1.1-.3 0-.5-.1-.4-.7-.5-1.1-.6-.3 0-.5-.1-.7-.2-.2-.1-.5-.3-.7-.4-.3-.2-.6-.4-1-.5.2.4.5.7.9.8zm125.1-45c.4.4.6.5 1.2.3l.2-.1c.6-.2.9-.3 1.5-.1.5.1.8-.1 1.1-.4.2-.1.4-.3.6-.4.2-.1.6-.3.9-.3.3 0 .4.1.5.2 0 0 .1.1.2.1.4.3.9.1 1.4-.1.1 0 .3-.1.4-.1.6-.2 1.1-.4 1.6-.7.2-.1.5-.2.7-.4.3-.2.6-.3.9-.5.1-.1.3-.2.4-.2.3-.2.6-.4.9-.4 1.2-.2 1.9.9 2.5 1.9.5-.9 1-1 1.8-1.1h.2c.5-.1 1.1-.3 1.3-.7.1-.2.1-.5.1-.8-.1-.5-.3-1.1-.6-1.4-.2-.2-.4-.1-.7.1l-.1.1c-.9.5-1.8.3-2.7.1-.2 0-.4-.1-.6-.1h-.2c-.7-.1-2.1-.4-2.5.2-.1.2-.2.4-.1.8v.2c-.1.1-.2.1-.2.1h-.7c-.6 0-1.2-.1-1.7.2l-.3.3c-.1.1-.1.2-.2.3-.2.2-.4.1-.6.1h-.1v.1c0 .2.1.5-.3.6-.2.1-.5.1-.8 0-.1 0-.3-.1-.4-.1h-.2c-.4 0-1.1 0-1.3.3 0 0-.1.1 0 .3v.2l-.1.1h-1.2c-.6 0-1.1-.1-1.7 0h-.1c-.3.1-.8.2-1 .5-.2.2-.3.5-.4.6h.1c.1 0 .2.1.3.2zM137 47c.4.2.6 0 1-.3l.3-.3c.3-.2.7-.4 1-.5.1 0 .2 0 .3-.1.2 0 .4-.1.5-.2-.2-.1-.6 0-.8.1-.1 0-.1 0-.2.1-.5.1-.9.1-1.4.1h-.6c-.1.2-.3.5-.3.7-.1.2 0 .3.2.4zm15-7.9c.6 0 1.3.1 1.9.5.3.2.6.4.9.5.6.3 1.2.5 1.6 1.5.4.8.8.7 1.4.6.2 0 .4-.1.6-.1h1.2c1 0 1.9 0 2.8-.3.7-.2 1.6-.6 2.2-1.5.2-.3.2-.6.2-1 0-.5 0-1.1.8-1.3l.5-.2c1.2-.4 2.4-.7 3.6-1.1.4-.1.4-.2.5-.3.1-.1.2-.3.5-.5.8-.6 2.1-.9 3.2-1.1.5-.1.9-.2 1.3-.3.3-.1.7-.2 1-.4.6-.2 1.2-.5 1.7-.6-.7-.6-1.7-.8-2.6-1-.3-.1-.6-.1-.8-.2-.3-.1-.7-.2-1-.3-.8-.2-1.6-.4-2.3-.5-.4 0-.8.1-1.2.3-.3.1-.7.3-1 .3h-.3c-.6.1-1.2.2-1.8 0-.5-.2-1-.4-1.5-.7-.2-.1-.5-.3-.7-.4-.8-.4-1.8-.3-2.7-.3h-3.7c-.8 0-1.8 0-2.8-.1h-.3c-.5 0-.8-.1-1.1.3l.1.1c.2.3.4.5.7.7.3.3.6.5.9.9.1.2.2.5.2.7-.1.3-.3.5-.6.7-.1.1-.2.1-.3.2-.2.2-.3.3-.4.6 0 .1-.1.3-.1.4 0 .3-.1.6-.2.8-.2.3-.7.2-1.2.1-.1 0-.2 0-.2-.1v.7c0 .1 0 .2-.1.2-1 .4-1.6.8-2.1 1.7h.5c.2.6.5.5.7.5z"/><path class="st0" d="M173 25.2v-.4c-.1-.2-.2-.2-.4-.2-.1 0-.1.1-.1.2s-.1.2-.1.2c-.1 0-.1 0-.1-.1-.4.2-.9.6-1.4 1.3-.1.1-.2.2-.3.4-.3.3-.6.6-.6.9 0 0 .1 0 .1.1.4.1 1.1-.6 1.5-1 .1-.1.3-.2.3-.3.1-.1.3-.2.4-.3.2-.2.6-.5.7-.8zM18.7 110.1c.1 0 .2 0 .3-.1.3-.1 1-.5 1.1-.9.1-.2 0-.5-.2-.6-.1-.1-.2-.1-.4 0-.1 0-.2.1-.3.1-.2 0-.4-.1-.5-.1-.1-.1-.3-.1-.4-.1-.1 0-.2.2-.3.4.1.1.1.2 0 .3 0 .1-.1.1-.1.1v.1c0 .1-.1.2-.2.2s-.1-.1-.1-.2v-.2c-.1 0-.2 0-.2.1-.1.1-.2.4-.1.8.1.3.9.2 1.4.1zm15.1-3.6c0-.1-.1-.3-.2-.4h-.1l-.1.1c0 .1-.1.1-.2 0-.2.1-.3.3-.4.5l-.1.2h.3c.6 0 .8-.1.8-.4zm-6.3-25.9c.3.2 1 .5 1.2.2.1-.1.1-.2.1-.3-.2-.6-1.5-1.2-2.1-1.4 0 .1.1.1.1.2.1.6.3 1 .7 1.3zm4.5 26.9c.1 0 .1-.1.1-.1v-.1c-.1-.2-.5-.4-.7-.5 0 .1 0 .2.2.4.1.2.2.3.4.3zm-3.4-.3c-.1 0-.1 0-.2.1v.1c-.1.1-.1.3-.1.4.1.2.3.3.5.4.1 0 .2 0 .3-.1.1-.1.1-.4.1-.5-.1-.3-.3-.4-.6-.4zm287.6-34.1c0 .1-.1.1-.1.1 0 .2-.1.5-.2.6 0 .1-.1.1-.2.2l-.1.1c0 .1.2.2.4.1.2 0 .3-.2.4-.5.1-.2.2-.5.3-.6h-.5zM274.3 4.2c.2 0 .4.1.6.1-.2-.1-.5-.2-.8-.2h-.1.1c.1.1.1.1.2.1z"/><path class="st0" d="M243.4 5.7c1.2.9 2.7 1.2 3.8 1.4 3.3.6 6.2.7 8.6.4 1-.1 2-.4 3-.8.4-.1.9-.3 1.4-.4 1.5-.4 3-.4 5-.1.5.1.9.1 1.4.2.1 0 .1.1.1.2s0 .2-.1.2c-1.5.6-2.6.8-3.7.7h-.2c-1.2-.1-2.4-.2-3.6.3-.6.2-1.2.6-1.2.8 0 0 0 .1.2.2.8.4 1.8.2 2.8.1.4 0 .8-.1 1.1-.1h.7c1.1 0 2.2 0 3.2-.2.3-.1.6-.1.9-.2.8-.2 1.7-.3 2.6-.3.5 0 .9.1 1.4.1.7.1 1.5.1 2.2 0 .7-.1 1.4-.4 2-.8.2-.1.4-.2.7-.3 1.3-.6 2.7-.7 4.1-.8 1-.1 2.1-.1 3.1-.4.3-.1.5-.2.8-.2h.1l.1.1c.1.7.1 1.3-.2 1.7-.1.2-.4.5-.9.4-.7 0-1.3.1-2 .3-.5.1-.9.3-1.4.3 0 .2-.1.3-.1.3-.2.3-.8.1-1.2-.1-.2-.1-.4-.1-.4-.2-.6 0-1.2.2-1.8.5-.4.2-.8.3-1.1.4-1.4.3-2.9.3-4.4.2h-2.2c-.5 0-1.5-.1-1.8.1l.6.3c.2.1.4.2.5.3.6.4 1.1.7 1.7.9.8.2 1.6.4 2.4.5.2 0 .5.1.7.1.1 0 .1.1.1.2s0 .2-.1.2c-.4.2-.8.1-1.2.1H270c-.4 0-.9.1-1.3-.1-1.2-.5-2.1-1-3-1.5-.4-.3-.9-.5-1.4-.7-.3-.1-.6-.1-1-.1h-3.9c-.5 0-1.1-.1-1.6-.2-.6-.1-1.2-.2-1.8-.2 0 .1 0 .3-.1.4 0 .4-.1.9 0 1 .1.3.8.5 1.1.6h.1c1 .3 1.9.3 2.9.2h.5s.1 0 .1.1c.5 1.2 1.5 1.9 3 2h.1c.7.1 1.3.1 2 .2.3.1.5.2.7.3.3.1.5.2.8.3.3 0 .6-.1 1-.2.3-.1.7-.2 1-.2.1 0 .1.1.1.2s0 .2-.1.2c-1.2.8-2 .8-3.2.5-1.1-.3-2.3-.2-3.4-.1-.5 0-.9.1-1.4.1H260c-.9 0-1.7-.1-2.5.1-.6.1-.6.3-.6.4 0 .3.8 1 1.6 1.4 1.1.6 1.9 0 2.8-.7.2-.2.5-.3.7-.5h.1l.1.1c0 .5.4.8.7 1.2.2.2.4.4.5.6.1.1.2.3.3.5.2.3.3.7.5.9.2.2.6-.1.9-.3.2-.1.4-.2.5-.3l.2-.1c.4-.1.7-.3 1-.6.1-.1.1 0 .2 0 .1.1.1.2 0 .2-.4.9-1.3 1.2-2.1 1.4-.1 0-.1 0-.2.1 0 .1 0 .1-.1.1-1.4.6-3 .6-4.5.5h-.3c-.2 0-.4 0-.6.1-.6.1-1.4.2-1.7-.3-.1-.1-.2-.3-.2-.5 0-.1-.1-.2-.1-.3-.1-.2-.4-.4-.6-.5h-.1c-.6-.4-1.1-.4-1.7-.4h-1.2c-.6 0-1.1-.1-1.6 0-.3.1-.5.3-.6.7-.1.2-.2.4-.4.6-.2.2-.4.5-.6.8-.2.2-.3.4-.5.6-.4.5-1 .9-1.6 1.1-.3.1-.6.1-1 .1h-.1c.2.1.5.2.7.4.5.3 1 .6 1.5.6h1c.4 0 .7-.1 1.1 0 .4 0 .8 0 1.2.2.1 0 .2.1.3.1.1.1.2.1.3.1.1 0 .2 0 .2-.1.1-.2.2-.5.2-1 0-.1 0-.1.1-.2h.2c.8.7 1 .7 2.1.3.5-.2 1 0 1.4.2.3.1.5.2.7.3 1.4.3 2.8.2 4.2.1h1.6c.8 0 1.1 0 1.1-1.1 0-.1.1-.2.1-.2.2 0 .4.1.5.2.1.1.1.1.2.1.2.1.5 0 .7 0h.3c.2 0 .2 0 .4.1h.1c.1.1.3.2.4.2.1.1.3.2.4.3.5.2 1 .1 1.5-.1s1-.3 1.5-.1c.1 0 .1.1.1.2s0 .2-.1.2h-.1c0 .3.1.7.2.9.1.4.3.4.6.4h1.1c.6 0 1.3.1 1.9-.1.1 0 .2-.1.3-.2l.6-.3h.1c.1 0 .1.1.1.1.1.3-.1.6-.2.9-.1.1-.1.3-.1.4 0 .1.3.1.5.1.1-.7.3-1.5.9-1.9.4-.3 1-.2 1.5-.2h.4c-.3-.4-.9-.9-1.4-1.2-.2-.1-.3-.2-.4-.3-.6-.5-1.1-.7-1.8-.7-.6 0-1.2-.1-1.8-.3-1.1-.2-2.2-.5-3.2.1-.7.4-1.6.4-2.2 0l-.1-.1c0-.2 0-.3-.1-.5-.1-.5-.1-1.1-.1-1.6v-.1s.1-.1.1 0c.5 0 .8.3 1.1.6.3.3.6.5 1 .6h3.3c.5 0 1 .1 1.5.2 1.3.2 2.6.4 3.5-.4.3-.2.4-.4.4-.6 0-.2-.1-.4-.3-.7-.1-.1-.2-.3-.3-.5v-.2c0-.1.1-.1.1-.1.4 0 .7 0 1.1-.1h.8c.4 0 .8 0 1.2.1.2 0 .5.1.8.1h1.6c-.1-.2-.2-.5-.3-.7-.2-.5-.4-1-.7-1.4-.1-.1-.2-.2-.2-.3-.2-.3-.6-.7-.8-.8-.2-.1-.3 0-.5.1-.1 0-.2.1-.3.1-.4.1-.8.1-1.2.1h-.1c-.7 0-1.5-.2-2.2-.4h-.1c-.1 0-.1-.1-.1-.2s0-.2.1-.2c1.4-.7 2.8-1.1 4.5-1.4.2 0 .3-.1.5-.1.6-.1 1.3-.3 1.9-.1.3.1.6.2.8.3.2.1.4.2.7.3.4.1.8 0 1.3-.1.4-.1.6-.1 1-.1h.2c.2 0 .5-.1.7-.1.1 0 .3-.1.4-.1.4-.1.8-.1 1.2-.1h.6l-.6-.3h-.3c-.4 0-.7-.1-1.1-.2-.3-.1-.6-.2-1-.2h-.3c-.1 0-.1-.1-.2-.2 0-.1.1-.2.1-.2h.3c.8 0 1.6.1 2.4.4h.4c.4 0 .8-.1 1.2 0 .1 0 .2.1.3.1.5.1.8.2 1.3-.1.6-.3 1.1-.4 1.7-.5h.2c.3 0 .6-.1.9 0 .1 0 .3.1.4.1.1 0 .2.1.3.1 0-.2 0-.3-.1-.5-.1-.3-.1-.6 0-.9l.3-.9c.1-.2.1-.3.2-.5 0-.1.1-.1.1-.1h.1c.4.4 1 .3 1.5.3h.5c.3 0 .7-.1 1 0 .2.1.3.2.4.3l.2.2c.6.4 1.2 0 1.9-.5.4-.3.8-.6 1.3-.7.5-.1 1-.1 1.5-.1.9 0 1.7 0 2.5-.5 1.3-.9 2.6-1.4 4.1-1.5h.8c.4 0 .8 0 1.2-.1.4-.1.4-.3.5-.7.1-.3.2-.7.5-.9.6-.4 1.4-.3 2.2-.2.2 0 .4.1.6.1.8.1 1.2-.2 1.9-.5.4-.2.7-.3 1.1-.3.3 0 .6-.1.8-.2l.3-.1c.3-.1.8-.3 1.1-.5-1.2-.3-2.4-.6-3.6-.4-.1 0-.2 0-.3.1-.4.1-.8.2-1.2-.1-.6-.3-.6-.9-.6-1.4V.2c-.1 0-.2.1-.3.3l-.3.3c-.4.3-1 .3-1.4.3-.7 0-1.2-.1-1.5-.3-.1-.1-.2-.2-.3-.2-.1-.1-.1-.2-.2-.2s-.3.1-.5.2c-.1.1-.2.1-.3.1.5.3-.3.3-1.1.3h-.9c-.4 0-.8.2-1.2.4-.3.2-.6.4-1 .5-.4.1-.7 0-1 0-.1 0-.2 0-.4-.1h-1.7c-.1 0-.1-.1-.1-.1v-.2c.4-.5 1.1-.5 1.8-.5.4 0 .8 0 1.1-.1.1 0 .3-.1.4-.2.2-.1.4-.2.7-.2-.7 0-1.4.1-2.1.1-1.5.1-3.1.2-4.7 0-.3 0-.5-.2-.8-.3-.2-.1-.4-.2-.6-.2-.4-.1-.9.2-1.3.4h-.1c-1.1.6-2.1.4-3.2.1-1-.3-2.4-.7-3.3-.4v1.4c0 .1-.1.2-.1.2-.3.1-.5-.1-.7-.3l-.2-.2c-.2-.2-.5-.3-.9-.3h-.5c-.4 0-.8 0-1.2-.2-1.2-.6-2.5-.5-3.7-.4h-.5c-.9.1-1.8 0-2.7.1 0 .4 0 1.1.2 1.3.1 0 .1.1.1.2s-.1.1-.1.1c-.3 0-.5-.3-.7-.5-.1-.1-.1-.2-.2-.3-.3-.3-.5-.3-.9-.3s-.7.1-1.1.1c-.4.1-.8.2-1.3.1-.3 0-.6-.1-1-.2-.5-.1-.9-.2-1.3-.2 0 .4-.1.7-.3.9-.3.3-.7.2-1.1.1h-.9c-.3 0-.5 0-.8-.1-.3-.1-.4-.2-.5-.3 0-.1-.1-.1-.2-.2-.2-.2-.4-.1-.6.3-.2.3-.3.6-.6.6-.4.1-.9.1-1.3 0-.4 0-.8-.1-1.1 0-.1 0-.3.1-.4.2-.1.1-.3.2-.4.2-.2.1-.5.1-.7.1.5.5 1.3.7 2 .7.7.1 1.5.2 2.2.3.7.1 1.5.3 2.3.3.5 0 .9.2 1.4.5l.1.1v.2c-.3.3-.9.1-1.3 0h-.2c-.5-.1-.9-.2-1.3-.2-1.1 0-2.1-.2-3.1-.4h-.1c-.9-.2-1.8-.2-2.7-.2-1 0-2-.1-3-.3-.3-.1-.5-.2-.8-.2-.6-.2-1.3-.4-1.9-.4 0 .3.1.5.1.7.1.3.2.6.2.9 0 .1-.1.2-.2.2-.8-.1-1.5-.2-2.3-.3-2.5-.4-5-.8-7.4-.3-.4.1-.9.3-1.3.4-.6.2-1.3.4-2 .5-.8.1-1.7 0-2.5 0-.6 0-1.2-.1-1.9-.1s-.9.2-.9.3c-.4-.1-.4.1 0 .4zm52.8 34.1c-.4-.3-.7-.5-1.1-.5-.3 0-.6.3-.8.5-.3.3-.6.6-.9 1-.1.1-.2.3-.3.4-.2.2-.4.4-.5.4-.2 0-.4-.2-.6-.4l-.6-.6c-.2-.1-.3-.3-.5-.5s-.4-.5-.6-.8l-.1-.1c-.1-.2-.1-.2-.2-.2 0 0-.1 0-.1.1-.2.1-.3.3-.4.5-.2.2-.3.4-.5.6-.1.1-.3.1-.4.2-.2.1-.4.2-.6.4h-.1s-.1-.1-.1-.2v-.1c0-.4-.1-.8 0-1.2 0-.1.1-.2.1-.3.1-.2.1-.4.1-.7v-1.2c0-.2-.3-.3-.7-.3-.3 0-.6 0-.9.1-.2 0-.4.1-.6 0-.3 0-.6-.2-.9-.4-.2-.1-.4-.3-.7-.3-.2 0-.3 0-.5-.1-.3 0-.6-.1-.9-.2 0 0-.1 0-.1-.1-.1-.1-.2-.1-.3-.1-.1.1-.2.3-.3.5 0 .1-.1.1-.1.2-.3.4-.5.9-.8 1.3l-.2.3-.1.1c-.1.1-.1.1-.1.2v.1c0 .1-.1.3-.2.4-.2.2-.5 0-.8-.2-.1-.1-.2-.1-.3-.2-.4-.1-.7-.3-1.1-.4-.1 0-.1-.1-.2-.1-.3-.1-.7-.3-.9-.2-.1 0-.1.2-.2.3-.1.2-.3.5-.5.5-.1 0-.1 0-.2-.1s-.2-.4-.3-.7c0-.1 0-.1-.1-.2 0-.1-.1-.3-.1-.4 0-.1-.1-.2-.1-.3-.2.1-.3.3-.6.3-.3.1-.7.1-1 .1-.6 0-1.2.1-1.4.7 0 .1-.1.1-.2.1s-.1-.1-.1-.2c0-.5.3-.8.6-1.1.2-.2.3-.3.4-.5.2-.5.1-1.2-.2-1.6-.2-.2-.4-.3-.6-.5-.1-.1-.2-.1-.3-.2l-.2-.1-.9-.6-.6-.3c-.3-.2-.6-.3-.9-.4-.2-.1-.4-.1-.6-.2-.5-.2-1.1-.4-1.6-.3-.5.1-1.1.3-1.6.6-.3.1-.5.3-.8.4-.5.2-1.1.3-1.6.3-.6.1-1.1.1-1.7.4l-.3.1c-.9.4-2 .8-2.6 1.7-.3.5-.6 1.3-.5 2 .1.3.2.6.4.7.5.4 1.2.5 1.9.6.3.1.7.1 1 .2 0 0 .1 0 .1.1v.2l-.1.2c-.1.4-.3.9-.3 1.2v.1c.1.2.1.4 0 .6-.1.1-.2.2-.3.2-.1 0-.3 0-.4-.1h-.1c-.4-.1-.7-.1-1.2-.1-.6 0-1.1.1-1.7.1-.2 0-.4 0-.6.1h-.6c-.3 0-.5-.1-.8-.2 0 0-.1-.1-.1-.2s0-.1.1-.2c.4-.4.8-1.1.8-1.8 0-.2 0-.4-.1-.6 0-.2-.1-.5-.1-.7v-1.3c0-.2-.1-.4-.2-.6-.2-.4-.5-.9.1-1.5.2-.2.4-.3.7-.4.2-.1.3-.1.5-.2.1-.1.3-.2.4-.4l.3-.3c.5-.5 1-.7 1.6-.9.2-.1.3-.1.5-.2-.1-.1-.5-.3-1.7-.3h-3.8c-.2 0-.3.1-.5.2-.1.1-.3.1-.4.2-.1 0-.3.1-.4.1-.2 0-.3.1-.5.1-.8.3-1.6.7-2.3 1.1-.7.5-1 1.1-1.4 2.2v.1c-.2.5-.4 1-.7 1.4-.2.2-.4.4-.6.5l-.3.3c-.2.2-.3.4-.3.6 0 .4.3.9.9 1.5l.2.1c.4.3.7.7 1 1.1l.2.2c.3.4.5.8.9 1.1 1.1.8 2.5.9 3.7 1.1h1.1c.8 0 1.4-.3 2.1-.8.1-.1.2-.2.3-.2.1 0 .2.1.3.2.3.5.6.8 1.1 1 .5.2 1.1.3 1.7.3.5 0 .9-.1 1.4-.1.5-.1.9-.1 1.4-.1h.1c.3 0 .7 0 1 .1.4 0 .8.1 1.3 0 .5 0 .8-.1.8-.5 0-.2-.1-.4-.1-.6v-.1c0-.1 0-.2.1-.2.1-.1.1 0 .2 0 .4.6.8.9 1.4 1.2l.1.1c.3.2.4.3.8.2h.1c.2-.1.4-.1.6 0 .1 0 .2.1.3 0 .1 0 .2 0 .2-.1.1 0 .2-.1.4-.1.1 0 .1 0 .1.1s.1.2.1.2c.3.5.5.8 1 .9h.1c.3 0 .6.1.9.1.1 0 .2 0 .3-.1.2-.1.4-.1.6-.1.2.1.2.2.3.3 0 .1.1.1.1.2.1.1.4 0 .6-.1.1 0 .3-.1.4-.1h.3c.2 0 .4 0 .5-.1.1-.1.1-.1.2-.3 0-.1.1-.2.2-.3.2-.3.7-.3 1-.4h.6c0-.1-.1-.2-.2-.3l-.1-.1c-.1-.1-.2-.2-.3-.2-.3-.2-.6-.5-.7-.8 0-.1 0-.2.1-.4.2-.3.7-.7 1-.6.1 0 .2.1.3.2.1.1.2.2.3.2.1 0 .2.1.4.1.3.1.6.1.9.3.1 0 .1.1.2.1.1.1.2.2.3.2.5.2.8.4 1 1.1.1.2.1.5.2.7.1 0 .3-.1.4-.3.1 0 .1-.1.1-.1.1-.1.2-.2.4-.2 0 0 .1 0 .1.1v.1c0 .3-.1.6-.3.9l-.1.1c-.1.1-.1.2-.1.2 0 .2.4.7.5.7.2.1.7.1.9 0 .1-.1.2-.1.3-.2.2-.2.4-.4.7-.3h.1c.3 0 .7.1.8.3.1.1.1.2.1.3-.1.4-.4.5-.7.6-.1 0-.2.1-.2.1-.2.1-.7.4-.8.7v.2c0 .1.1.1.2.1.4 0 .7 0 1.1-.3.2-.1.4-.3.7-.4.2-.1.5-.3.7-.5h.1l.1.1c.1.5.3.9.5 1.4.2.3.3.5.5.7l.2.2c.1.2.3.4.3.7 0 .3-.3.5-.5.6-.1 0-.1.1-.1.1-.3.3-.5.6-.6 1 0 .1-.1.2-.1.3-.1.2-.2.4-.4.7-.1.1-.1.2-.2.3.1 0 .2.1.2.1.3 0 .5-.4.7-.9.1-.1.1-.3.2-.4.4-.7.9-1.3 1.5-1.5h-.1c-.4-.2-.5-.9-.5-1.3 0-.6.6-.7 1-.7h.2c.1 0 .2 0 .3-.1.3 0 .5-.1.8-.1h.3c.1 0 .3 0 .5.2.1.2.1.4.1.6 0 .2 0 .3.1.4.1.1.3.1.5.1s.3 0 .5-.1c.2 0 .4-.1.6-.1.4 0 .6.3.7.6l.1.1c.1.2.2.3.4.5.1.1.2.2.3.4.3.4.5.9.7 1.4l.1.2c.1.3.3.5.2.8 0 .2-.1.3-.3.4 0 0-.1.1-.2.1s-.2.1-.3.1c0 0 .1 0 .1.1.1 0 .1 0 .2.1l.1.1c.1.1.1.1.2.1h.8c.2 0 .4.1.5.1.1 0 .3.1.4.1.1 0 .2.1.3.1.1.1.3.1.4.1.1 0 .1 0 .2-.1 0 0 0-.1.1-.1.1-.2.3-.2.4-.3.1 0 .1-.1.2-.2.2-.1.3-.3.5-.3.3-.1.4.2.5.4 0 .1.1.2.1.2.1.1.1.1.2.1h.3c.4.1.8.2 1.1.3.3 0 .6.1.8.1h.4c.1.1.2.2.2.3v.2c0 .1-.1.1-.1.1-.4 0-.8.1-1.2.2-.3.1-.5.1-.8.1h-.6c-.2 0-.3 0-.5.2l-.1.1c-.2.1-.4.3-.5.5 0 .1-.1.1-.1.2-.1.2-.2.4-.4.5h-.1l-.1-.1c0-.1 0-.2-.1-.3-.1-.5-.2-1.1-.5-1.3h-.1c-.1 0-.2 0-.3-.1-.2-.1-.2-.3-.3-.4 0-.1-.1-.1-.1-.1-.1-.2-.3-.3-.6-.3h-.4c-.5.1-.9 0-1.3-.2 0 0-.1 0-.1-.1-.1-.1-.2-.1-.3-.1-.2 0-.3.1-.5.2-.1 0-.1.1-.2.1-.3.2-.6.3-1 .4-.5.1-1.1.3-1.6.7-.1.1-.3.2-.4.3-.2.1-.4.3-.6.4-.1.1-.1.2-.1.2 0 .1.3.3.4.4l.1.1c.4.3 1.1.7 1.3 1.3.1.2 0 .4 0 .5-.1.2-.3.3-.7.3h-.4c-.4 0-.8.1-1.2.2-.3.1-.6.2-.9.2h-.6c-.1 0 0 .4 0 .5.1.3 0 .6 0 .9v.5c0 .4 0 .6.1 1 .2.4.6.5 1.1.5h1.8l.2-.1c.3-.1.6-.2.8-.6.1-.2.2-.3.4-.3s.3.2.3.4c0 .1.1.2.1.3.1.1.2.2.4.3.1 0 .1.1.2.1.1.1.3.2.4.3.1.1.2.2.4.2.3.2.7.3 1 .4h.2c.2 0 .3 0 .5.1.4.2.3.6.3.8v.3s0 .1.3 0h.3c.3 0 .6.1.8.2.1 0 .1.1.1.2s0 .1-.1.2c-.2.2-.5.4-.7.6.1.1.2.2.3.2.1.1.2.1.3.2l.2.2c.2.2.4.4.7.5.6.3 1 .7 1.4 1.2l.1.1.1.1h.2l.9-.3.2-.1c.4-.2.8-.3 1.1-.3.4 0 .8.2 1.2.4.2.1.3.2.5.2h.1c.5.2.9.3 1.3.7l.1.1c.4.4.9.8 1.4.8h1.1c.3 0 .6 0 .9.1l.9.3c.4.2.8.3 1.2.3v.2-.2c.6 0 1 0 1.5-.4.1-.1.2-.1.3-.2.2-.1.4-.2.5-.3.1-.1.1-.3.2-.5 0-.1.1-.2.1-.3.1-.3.3-.6.5-.9.4-.5.9-.9 1.3-1.3.4-.3.6-.6.6-1.1v-1.3c0-.3 0-.5-.1-.7-.1-.3-.4-.4-.8-.5-.3-.1-.6-.2-.8-.5-.2-.2-.3-.5-.3-.8 0-.3-.1-.5-.3-.6-.2-.2-.5-.3-.8-.3h-1c-.2 0-.5-.2-.7-.4-.2-.2-.4-.3-.6-.3 0 0-.1.1-.1.2-.1.1-.1.3-.3.3-.3.1-.5-.2-.7-.5l-.1-.1c-.2-.2-.3-.4-.5-.6-.2-.3-.4-.5-.7-.8-.1-.1-.2-.3-.3-.5-.2-.3-.3-.5-.5-.7-.2-.2-.5-.4-.7-.6l-.6-.3c-.3-.1-.6-.3-.8-.6 0 0-.1-.1-.1-.2s0-.1.1-.1l.6-.3c.3-.1.5-.2.8-.3.6-.3 1.4-.4 2.1-.4h1.2c.3 0 .6-.1.7 0 .2.1.3.2.4.3l.1.1c.2.3.5.5.8.7.1.1.2.1.3.2.1.1.2.1.2.1.1 0 .1 0 .3-.1l.1-.1c.1-.1.3-.2.4-.3 0 0 .1-.1.1 0 .1 0 .1.1.1.1 0 .3 0 .7-.1 1 .1 0 .3-.1.4-.1.4-.1.7-.2 1.1-.4 0 0 .1-.1.2-.1.4-.3.9-.7 1.4-.7.1 0 .3 0 .4.1.3.3.3.7.3 1v.1c0 .3.1.6.2.9.1.2.1.4.1.6.1.4.2.9.4 1.2.1.2.3.3.5.4.2.1.3.3.5.4.1-.3.2-.7.3-1l.3-.9c.1-.2.1-.5.1-.7.1-.4.1-.8.3-1.2 0-.1.1-.1.1-.1h2.3c.3 0 .4-.1.4-.1v-.1l-.2-.2-.1-.1s-.1 0-.1-.1c-.1 0-.2-.1-.3-.3v-.2c0-.1 0-.1.1-.1.3-.1.7-.1 1.1 0h.9c-.1 0-.1 0-.2-.1h-.1c-.3-.1-.5-.2-.5-.4v-.2c.1-.1.2-.2.5-.2h1.6c-.4-.2-.7-.5-1.1-.5-.3 0-.6 0-1 .1-.3 0-.6.1-.9.1-.3 0-.6-.1-.9-.2-.2-.1-.3-.2-.4-.3l-.3-.3c-.1-.1-.3-.1-.4-.1h-.4c-.1 0-.2-.1-.3-.2-.1-.2.1-.4.2-.6.2-.3.2-.4.2-.5h-.1c-.2 0-.5.1-.7.2-.1 0-.1.1-.2.1h-.1c-.3.1-.8.2-1 0-.1-.1-.2-.4-.2-.6 0-.1 0-.2-.1-.3-.1-.3-.3-.5-.7-.7-.4-.2-.8-.3-1.3-.4-.2 0-.5-.1-.7-.2-.3-.1-.6-.2-.9-.1-.1 0-.2.1-.4.1-.2.1-.4.1-.6.1-.3 0-.5-.2-.8-.4-.3-.2-.5-.5-.7-.3 0 0-.1.1-.1.2-.1.2-.2.3-.3.3-.1 0-.2-.1-.3-.3l-.1-.1c-.3-.2-.6-.3-1-.3s-.8 0-1.1-.3l-.4-.4c-.2-.2-.3-.3-.5-.4-.2-.1-.4-.2-.7-.3-.1 0-.2 0-.3-.1-.3-.1-.6-.2-.8-.3-.5-.2-.9-.4-1.5-.4h-.4c-.2 0-.5 0-.6-.3-.1-.2-.2-.4-.2-.6 0-.2.1-.4.2-.5.1-.1.3-.2.5-.2s.3 0 .5.1h.1c.4.1.8.1 1.2.2.7 0 1.4.2 2.1.3.2 0 .4.1.6.1h.2c.2 0 .5.1.8.1.3 0 .5-.1.7-.2.2-.2.2-.3.1-.4-.1-.3-.7-.7-1-.7-.3-.1-.6-.1-.9-.1-.5 0-1.1 0-1.7-.3-.4-.2-.9-.3-1.6-.3h-1.9s-.1 0-.1-.1v-.2c0-.2.1-.6.3-.8.1-.1.1-.1.2-.1s.1-.1.2-.1c.1-.2-.2-.8-.4-1-.3-.3-.7-.6-1.1-.9-.2-.1-.3-.2-.5-.4-.1-.1-.2-.1-.2-.2-.1-.1-.3-.3-.4-.3-.1-.1-.3 0-.4.1 0 0-.1 0-.1.1-.4.2-.8.2-1.1.1h-.6c-.3 0-.5.3-.7.6-.1.2-.2.3-.3.4l-.1.1c-.2.2-.4.4-.5.7v.2c0 .2 0 .4-.2.5-.3.2-.7-.2-1.1-.5-.2-.1-.3-.3-.4-.3-.1 0-.2-.1-.3-.1-.4-.2-.8-.3-1.1-.9-.3-.7.2-1.6.6-2.1l.3-.3c.7 1.6 1 1.3.9 1.1z"/><path class="st0" d="M298 56.5h.2c.4.2.5 1 .7 1.5 0-.1.1-.2.1-.2 0-.1.1-.2.1-.2.2-.3.4-.4.6-.6l.1-.1c.2-.2.4-.2.6-.2h.6c.2 0 .5 0 .7-.1.1 0 .3-.1.4-.1-.2 0-.4 0-.5-.1l-1.2-.3h-.3c-.1 0-.3-.1-.4-.2-.1-.1-.1-.2-.2-.3-.1-.2-.1-.2-.2-.2s-.3.1-.4.3c-.1.1-.2.1-.2.2-.1.1-.2.2-.4.3v.1c-.1.1-.2.2-.3.2-.2 0-.3-.1-.5-.1v.1c.1.1.1.2.2.3.2-.3.2-.3.3-.3zm19.5 13.6c0-.1-.1-.1-.3-.1h-1c-.2 0-.4 0-.5.2v.1c0 .1 0 .1-.1.2.4.2.8.1 1.3-.1h.1c.1 0 .4-.1.5-.3zM122.7 87.8c.1 0 .1-.1.2-.3.1-.4.1-.4-.2-.5-.1-.1-.3-.2-.4-.1v.1c.1.3.3.8.4.8zm82.6 122.9c-.1 0-.2-.1-.3-.2-.1-.1-.2-.3-.2-.5 0-.1-.1-.2-.1-.2-.1-.2-.3-.5-.4-.5v.2c0 .2 0 .3.1.5.1.3.1.6.1 1 .1 0 .1.1.2.1.1.1.3.1.4.2.3.2.3.4.3.7.2 0 .3-.1.3-.2.1-.3 0-.8-.2-1-.2 0-.2 0-.2-.1zm-12.7 9.3c-.1 0-.1 0 0 0 0 .1-.1.1-.1.2l-.1.1c.1.1.2.1.2.2s.1.1.1.2l.1.1s.1-.1.1-.2c.1-.2.1-.3 0-.4 0-.2-.2-.3-.3-.2zm79.3 37.3c-.3.5-.5.9-.4 1.3 0 .3.2.6.6.8.2.1.5.3.6.1.2-.2.2-.7 0-1.2s-.4-.8-.8-1zm-141.8-165l.1-.1c.1-.3-.3-.8-.7-1.1-.2-.1-.5-.2-.6-.2v.1s0 .1-.1.1c-.1.1-.1.2-.1.3h.1c.3.1.5.1.8.4l.1.1c.1.2.3.4.4.4zm5.3 9.1c.3-.3.4-.6.3-.7-.1-.1-.3-.2-.6 0h-.1c-.4.4-.7.8-1 1.3l-.1.2c-.1.2-.3.3-.6.5s-.8.7-.8.9c0 .2.1.2.1.2.3.1.9-.5 1.1-.8.4-.6.9-1 1.4-1.4l.3-.2zm-2.8-2.5c.2.2.4.3.5.4.1-.3-.1-.7-.5-1.1-.3-.3-.3-.4-.4-.7l-.1-.2c-.2-.5-.6-.8-1.2-1.1-.1.3-.2.6-.1.8.1.2.2.2.4.2s.4.1.6.4c.1.2.1.3.2.5s.1.3.3.5c.2.1.2.2.3.3zm2.3 4.4s0 .1-.1.1c0 .2.1.5.2.6.1.2.6.6.7.6.1 0 .1-.1.2-.2.1-.2.1-.6 0-.7-.2-.2-.7-.4-1-.4zm-10.1-12.2s.2-.1.1-.5-.4-.9-.7-.9c0 .4.1 1.2.3 1.4.1.1.2.1.3 0zm1.9-.4c-.1-.4-.3-1.2-.5-1.4-.3.9 0 1.5.3 2.2.1.2.2.4.2.6.1.2.1.4.2.6.1.4.2.7.5.9.2-.8-.2-1.8-.5-2.5-.1 0-.1-.2-.2-.4zm42.4 77.7c0-.1-.1-.2-.3-.2-.2 0-.5.1-.6.1-.2.2-.6.1-.9.1-.1 0-.3-.1-.4-.1h-.1c-.1 0-.2.1-.2.1v.1c0 .1.2.2.4.2h.2c.4.2.7.3 1.1 0 .1 0 .1-.1.2-.1.1-.1.2-.2.3-.2h.2c0 .1.1.1.1 0zm2.8 3.8l.1.1c.1.1.3.3.4.3 0-.1-.1-.2-.3-.4-.2-.2-.2-.2-.5-.2.1 0 .2.1.3.2zM154 117c0-.3-.2-.7-.5-1-1.2-1.5-2.4-2.3-4.3-2.8-.6-.2-1.3-.4-1.9-.6-.1 0-.2-.1-.3-.1 0 .4.2.9.4 1.3.1.2.2.4.2.6.2.6.4.8.9 1 .2.1.4.1.7 0 .3 0 .6 0 .8.1l.3.3c.1.3 0 .6-.1.8.1 0 .3 0 .4-.1.2 0 .4-.1.5-.1.2 0 .5 0 .7.1.1 0 .2 0 .3.1 0 0 .1 0 .1.1v.2c-.1.4 0 .7.1.8.2.2.6.2 1.2-.1.3-.3.5-.4.5-.6zm27.1 71.3c0-.1 0-.2-.1-.3 0-.1 0-.2-.1-.3h-.6c-.1.2-.2.7-.2 1 0 0 .1 0 .1.1.3.1.4.2.6-.1l.1-.1c.2-.1.2-.1.2-.3zm-12-17c-.1.1 0 .1 0 .1 0 .1.1.1.2.1s.2.1.2.1h.1v-.1c-.1-.1-.4-.2-.5-.2zm3.6 13.5c0-.1-.1-.1 0 0 0-.1-.1-.1-.1-.1h-.3v1.4c.1 0 .2.1.3.1.1 0 .1 0 .2.1.1-.4 0-1-.1-1.3v-.2zm-1-14.4c.1.1.3.1.4.1-.1-.2-.2-.3-.3-.4-.2-.1-.3-.1-.4 0l.3.3zm-16.4-54.7c.1 0 .1 0 .2-.1 0 0 0-.1-.1-.2-.2-.2-.5-.3-.7-.3-.1.1-.1.2-.1.2 0 .1.1.2.2.3.2.2.4.1.5.1zm-.4 3.1h.5c.1 0 .3.1.6.3.4.2 1.1.6 1.2.4 0-.1-.1-.5-.8-1.8l-.1-.2c-.3-.6-.9-.8-1.3-.5v.1c-.1.2-.3.4-.5.5-.3.2-.5.4-.6.8 0 .2 0 .3.1.4.1.1.5 0 .9 0zm27.3 103.1v.3c.4.1.4.1.6-.3h-.6zM51.6 100.1l-.1.1h-.1c.1.1.2.3.5.6 0-.3 0-.5-.1-.6-.1-.1-.2-.1-.2-.1zm-7.9 2s.1-.1.1-.2.1-.1.1-.1h.6c.4.1.8.1 1-.1.1-.2.2-.3.2-.3 0-.1-.2-.2-.9-.3-.1 0-.1-.1-.1-.2-.1-.4-.2-.6-.5-.5-.2 0-.2.1-.3.2 0 .1 0 .3-.2.5-.3.4-.8.3-1.2.2-.3 0-.5-.1-.7 0-.2.1-.2.4-.3.7 0 .2-.1.4-.2.6 0 .1-.1.2-.2.3-.1.1-.1.2-.1.3 0 0 0 .1.3.1.4.1.6.1.8-.1.2-.2.4-.6.5-1.3 0-.1 0-.1.1-.1h.1c.1 0 .1.1.2.1.1.1.5.3.7.2zm12.8-4.6c.1 0 .3.1.5.2.3.2.6.3.7.1.1-.2.1-.3-.1-.6-.1-.2-.3-.4-.3-.6 0-.3.2-.5.3-.6.1-.2.2-.3.2-.4-.2 0-.3-.1-.5-.2s-.4-.2-.6-.2h-.2c-.3 0-.5.1-.8.1-.1 0-.2 0-.4.1-.8.1-1.5.3-2.3.9-.2.2-.4.3-.7.5-.5.4-1 .8-1.6 1l-.2.1c-.8.3-1.3.4-1.9 1-.2.2-.4.3-.7.5-.3.2-.7.5-1 .7.9-.6 1.9-.8 2.9-1 .3 0 .5-.1.8-.2.3-.1.5-.1.8-.2h.7c.3 0 .6 0 .9-.1.4-.1.5-.3.6-.6 0-.1.1-.3.2-.5.3-.6.7-.5 1.1-.3.1 0 .1 0 .2.1.3.1.5.1.8.1.2 0 .4 0 .6.1zM44.2 82c-.4-1.1-1-1.5-1.4-1.8-.2-.2-.5-.3-.7-.6-.1.6 0 1.1.2 1.5.4.7 1 .9 1.9.9zm-6.5 21.3h-.2c.1.2.2.4.2.6v1.1c.2 0 .3-.2.4-.6v-.7c0-.1.1-.2.1-.2v-.1h-.3c0-.1-.1-.1-.2-.1zm23-6.5c-.1 0-.4.1-.6.2-.2.1-.3.2-.4.2h-.2c-.1 0-.1 0-.1.1 0 .4.4 1 .8 1 .1 0 .2 0 .3-.1.1-.1.3-.8.3-1.2 0-.1 0-.1-.1-.2.1.1.1 0 0 0zM23.2 107h-.3c.4.8.8 1.3 1.3 1.6-.1-.1-.3-.4-.3-.7 0-.6-.3-.9-.7-.9zm3.2 1.5c-.2 0-.4.1-.6.2-.2.1-.5.2-.8.2h.1c.6.2 1.1.3 1.6.3.6-.1.7-.3.7-.4v-.1c-.1-.1-.3-.3-1-.2zm8.2-18c-.3-.2-.9-.2-1.1.1-.3.7.1 1 .3 1.1.4.2.9.1 1.1-.4.2-.4-.1-.7-.3-.8zm1.3 16c.2-.1.2-.4.2-.8 0-.3-.1-.6-.2-.7h-.2c-.1.1-.2.2-.3.4-.1.2-.3.5-.6.6 0 .1.1.2.2.3.3.3.6.5.9.2zm57.6-26.4h-.2c0 .2-.1.3-.2.5s-.3.3-.4.4l-.1.1c-.2.1-.3.3-.4.4h.1c.3 0 .4-.2.6-.5l.3-.3c.1-.1.2-.2.4-.2.1-.1.4-.2.4-.3v-.1c-.1-.1-.4-.1-.5 0zm-13.7 5.5c-.1-.1-.5-.2-.7-.1h-.2c0 .1-.1.1-.1.1v.2l.1.1c.3.2.8.3 1 0-.1-.1-.1-.2-.1-.3zm-1.5 4.3c.1 0 .2-.1.3-.1.2-.1.5-.2.6-.3v-.2c0-.1-.2-.2-.4-.3-.2-.1-.4-.2-.4-.5 0-.2.1-.4.3-.5.2-.1.4-.3.6-.4.4-.2.7-.5 1-.8.1-.1.1-.2.1-.2s0-.1-.1-.1c-.1-.1-.3-.1-.5.1-.1.1-.3.2-.4.3-.6.5-1.3 1.1-2.1 1.1-.1 0-.2 0-.3-.1-.1 0-.1-.1-.1-.2-.7-.2-1.6.5-2.2 1l-.1.3s-.1.1-.2.1c-.8.5-.9.8-1 .9.1.1.4.1.7.1h.4c.4 0 .7.2 1 .4l.2.1c.2.1.5.2.7.3.1 0 .2.1.3.1.1 0 .3.1.4.2.2.1.3.2.5.2s.3-.1.4-.5c0-.5.1-.9.3-1zm-3.6 2.5c-.1 0-.1 0 0 0-.3 0-.5.1-.7.4l-.4.4c.4.3.7.2 1.1 0 .2-.1.5-.3.8-.3v-.1c-.1-.1-.3-.2-.5-.3-.1 0-.2 0-.3-.1zm-4.1 3.3c.2-.1.3-.3.3-.7-.1 0-.1-.1-.2-.1h-.1c-.2.4-.3.7-.2.8 0 .1.1.1.2 0zm185 142.5V237c0-.2-.1-.3-.4-.5-.4-.2-.7-.2-.9 0-.4.4-.7.4-1.2.2-.1 0-.1-.1-.1-.2v-.8l-.1-.1c-.1 0-.2-.1-.2-.1-.1-.1-.2-.2-.2-.3l-.3-.3-.1-.1c-.1-.1-.2-.1-.2-.2v.1c-.2.4-.6.7-1 .9-.2.1-.4.2-.6.4-.1.1-.2.2-.3.4-.1.2-.2.4-.4.6-.1.1-.2.1-.3.2.1 0 .2.1.4.1s.4.1.5.1c.3.1.7.1 1 .2.7.1 1.3.2 2 .6.4.3.7.3 1.2.4.2 0 .3.1.5.1.1 0 .3.1.4.1h.2c.1-.1.1 0 .2 0h.2c-.3-.2-.3-.4-.3-.6z"/><path class="st1" d="M463.4 129.2c.3.2.5.3.8.5.4.3 1 .5 1.3.9.9 1.7 1.7 2.3 3.5 2.2-.3.4-.5.7-.8 1.2 2.3 1.4 4.2-.4 6.2-.6.6.4 1.2.9 1.9 1.5.2 1.2 1.5 2.4 2.8 2.5.1-1.9.5-2.3 2.4-2.5.4 0 .7-.2 1.1-.4 1.4-.8 2.7-1.7 4.1-2.3.9-.4 1.9-.4 2.9-.3.3 0 .8.7.8 1.2.1 1.1.4 1.6 1.5 1.2.2-.1.5 0 .7 0 1.1.3 2.4-.8 2.5-2 0-.6.2-1.3.4-2.1.7.6 1.3 1.2 1.4 1.1.6-.4 1.1-1 1.6-1.5.6.2 1.4.4 2.1.7l.4-.4c-2.7-1.6-3.4-3.8-2.3-6.6-.1-.1-.4-.4-.3-.6.4-1.6.8-3.1 1.5-4.6.3-.6 1.4-1.2 1.9-1.1.8.2 1.5 1.1 2.2 1.7.1.1 0 .5.1.6l1.8 1.5c.3-.6.8-1.2 1-1.9.3-1.2.4-2.5.6-3.8.1-.4 0-.9 0-1.3-.5.1-.9.2-1.7.4-.1-.2-.5-.6-.5-1.1-.1-.9.8-1.9-.4-2.5-.1 0 .1-.7.2-.8 1-.4 1.9-1 2.9-1.1 2.7-.1 5.3-.1 8.1-.1 0-.6.1-1.1.1-1.8l1 .5c.5-2.8 2.9-1.3 4.4-1.9.1-1.1-.2-1.4-1.4-1.4-1-.1-2.1-.2-3.1-.3.1-.8.2-1.3.2-1.8h-1.9c-1.1.2-1.9.4-2.7.6-.2.1-.5.2-.7.3-.6.3-1.3.6-2 .7-.6.8-4.1 2.4-4.8 2.3-.7.3-1.4.8-2.1.7-.5-.1-1-.9-1.2-1.5-.5-1.5-1.9-1.1-2.9-1.5-1.3-.5-1.6-1.4-1.1-2.6.5-1.1.6-2.6.3-3.8-.5-1.6-.7-3.6.2-4.9.1-.1.1-.3.1-.3 2.2.3 1.6-2.2 3-3 1.1-.6 1.5-2.3 2.3-3.4.5-.8 1.1-1.5 1.6-2.3.1.1.2.2.4.2-.2-1.1-.1-2.3-.5-3.2-.4-.8-1.5-1.4-2.3-2v.6h-3.9c0 .8-.1 1.3-.1 1.9-1.8.9-1.8 2.5-1.7 4.2 0 .5-.1 1-.2 1.5-.3.9-.7 1.7-1.1 2.6-.1.3-.2.5-.4.7-.8.6-1.7 1.2-2.5 1.8-.3.2-.6.6-.8.9-.5 1.3-1.6 1.8-2.9 2.1-.5.1-1.3-.3-1.3.6 0 .4.7.7 1.2 1.2-.4 1.5-1.2 3.3-1.4 5.2-.1 1 .8 2.1 1.5 3 .4.5 1.1.9 1.6 1.3.3.3.7.6.8.9.2.5.3 1.1.1 1.5-.3.7-1.9.8-.9 2.1-.7.5-1.3.9-2 1.4-.1-.2-.2-.3-.4-.5-.3 1.6-1.1 2.3-3 1.3 1 1.9 1.1 3.3.4 4.8-.4.8-.3 1.7-.6 2.6-.4 1.2-.8 2.3-1.2 3.5-.2.5-.3.9-.5 1.6-2.9-1.2-4.9-.5-5.3 3-1.1 0-2.1-.1-3-.1-.1-.7 0-1.5-.3-2.1-.5-1-.9-1.8.1-2.8.2-.2 0-.8-.2-1.1-.4-.8-1.2-1.4-1.3-2.2-.2-1.4 0-2.9.1-4.4 0-.3.1-.8-.1-.9-1.7-1.8-1-3.6-.2-5.6-.5-.3-1-.7-1.5-1l.9-1.8c-.2-.1-.3-.2-.5-.3-.8.8-2.1.9-1.8 2.7.1.7-.6 1.5-1 2.3 0 .1-.3.2-.4.1-2.3-1.4-3 .8-4.1 1.8-.9.9-3.2 1.3-4.3.5-.2-.2-.6-.1-1-.2.1-.3.3-.6.3-.7-.7-.8-1.4-1.4-1.8-2.1-.2-.3.3-.9.5-1.3l.9-2.4c-.2-.1-.3-.2-.5-.4-.5.3-1 .7-1.4 1 .1-1.3.1-1.3 2.6-2-1.2-1.2.4-1.6.8-2.4-1.1 0-1.3-.2-2.2-1.9.4-.1.7-.2 1.1-.3-.3-.6-.5-1.1-.7-1.5v-.3c.4 0 .8-.1 1.4-.2-.6-.5-1.1-.9-1.4-1.1.3-.7.5-1.1.8-1.8.2-.1.7-.4 1.3-.7-.4-.4-.6-.8-1-1.2 1.4-.1 2.7-.2 4-.3-.1-.6-.1-.9-.1-1.4.7.2 1.4.3 2.2.5-.1-.6-.1-.9-.2-1.3.1 0 .3-.1.4-.1 1.1-.1 2.4 0 2.9-1.4.1-.2.5-.6.7-.5 1.7.1 2.2-1.4 3.2-2.2.8-.7 1.4-1.6 2-2.2.8.4 1.2.7 1.7 1 .1-.5.2-1 .4-1.4.2-.5.6-1 .8-1.6.3-.6.4-1.1.7-1.8.6-.9 1.3-2 2.2-3.4l.8-.6c-.2-.2-.5-.4-.6-.5.2-.4.3-.9.5-1.3.2-.5.5-.9.6-1.1 1.1-.4 1.9-.7 2.7-1.1.2-.1-.1-.9-.2-1.5.2-.1.7-.2 1.6-.4-.7-.5-1.1-.8-1.7-1.2h1.8c0-.4.1-.8.1-1.1h.5c0 .5.1.9.1 1.4.1 0 .3 0 .4.1.1-.7.3-1.5.4-2.1.7-.3 1.5-.3 1.9-.8.4-.4.3-1.2.5-1.9.1-.4 1.2-1.1 1.7-1.3.5-.1.8-.5 1.4-.8-.1-.4-.2-1-.4-1.7.8 1 1.8-1.6 2.6.2 0-.3.1-.6 0-.9-.4-1.3.3-2.1 1.7-2.1.8 0 1.8.2 1.6-1.1 1.9.5 1.4-1.2 1.8-1.9.6-.1 1.2-.2 2-.3-.3-.4-.6-.7-.7-.9.7-.2 1.3-.4 2.1-.7-.7 1.3-1.3 2.4-1.9 3.6l.6.3c.4-.8.9-1.5 1.3-2.3.3.5.6 1.1.9 1.5.7-1.1 1.3-2.2 1.9-3.3.1 0 .2.1.3.1v2.8c.1 0 .2.1.4.1.7-1.2 1.3-2.4 2.5-.7 0 .1.3 0 .4 0 1.7-.1 1.5-.1 1.1 1.4-.1.4-.9 1.7.6 2 .4.1 0 1.1 1 1.4 1 .3 1.5.4 1.6-1 .7 1.2 1.3.8 1.7 0 2.1 2.6 4.8 2.3 7.6 2 .5 0 1-.1 1.4 0 1.9.9 3.8 1.9 5.8 2.8.9.4 2 .4 2.9.8 2.1.9 2.8 3.3 1.7 5.2-1.1 1.9-2.6 3-4.8 3.1-.5 0-1-.3-1.7-.5-1.1 1.1-2.5.3-3.7-.1-1.6-.5-3.5-.4-4.9-1.8-.2-.2-.7-.1-1.2-.1.6 2.8 1.8 3.8 4.4 4.2 1 .1 1.8 1.4 1.7 2.3-.1.6.1 1.2.2 1.8.2.7.4 1.4.8 2 .6 1.1 1.2 2.1 2.7 1.5.1 0 .4.1.5.2.7 1.1 1.8 1.4 2.9 1.3.7 0 1.6-.5 1.9-1.1.4-.8-.8-2.3-1.5-2.4-.9-.1-1.8-.3-2.8-.6.3-.7.5-1.1.7-1.6 3.8.7 7.5 1.5 11.3 2.2-.3-1.4-.3-1.4-2.5-1.2-.5-.9-1-1.8-1.6-2.6-.6-.7-1.5-1.2-2.4-1.9 1.1-1.9 2.3-3.8 3.4-5.7h2.2c-.1.4-.1.8-.2 1.4 1.1-.1 2.1-.2 3.3-.4-.6-.7-1-1.1-1.4-1.6 1-1.9.2-3.5-1.8-3.7-.5-2-.9-3.9-1.5-6 1.2-.9 2.1-.7 4.8 1.5-.3.1-.7.2-.9.4-.6.6-1.8.7-1.5 2 .2 1.2 1.2.9 1.9 1.1.2.1.4.1.5.3 1.5 1.5 2.9.5 4.2-.4 1.3-.9.6-2.3.3-3.5.4-.7 1.9-1.1.6-2.3.9-1.2 1.7-2.3 2.4-3.3.6.2 1.1.3 1.9.6-.4-.9-.7-1.4-1-2 1.5 0 .8-.9.6-1.6 1-.4 1.4.2 1.5 1 0 .6-.1 1.3-.2 1.9.7-.2 1.3-.3 2.1-.4.3-.8.6-2 1.1-3.1.2-.3.7-.7 1-.7 1.4.1 1.7-.7 1.8-1.8 0-.6.2-1.3.5-2 .8 1.2.8 3.8 2.8 1.6.2-1 .4-1.9.6-3-1.6-.5-2.2-1.9-1.7-3.7 2-.6 3.9-1.2 5.9-1.9 0 2 .7 2.5 2.3 2.2 1.3-.2 1.6 1.3 2.5 1.7.2.1.3.4.5.6.5-.2 1.3-.6 1.3-.6.6.8 1.3 1.7 1.5 2.6.3 1.4.7 2.9-.7 4.1-.3.3-.3 1.2-.1 1.8.5 1.5.7 2.9-.2 4.4-.4.7-.2 1.7-.2 2.6 0 .7.1 1.4-.9 1.6-.1 0-.1.8.1 1.1.5.8 1.2 1.4 1.6 2.1.7 1.6 1.2 3.3 1.9 5 .2.4.8.7 1.1 1.1 1.5 1.5 2.4 3.4 3.2 5.4.6 1.3 1.6 2.4 2.3 3.7.3.5.6 1.1.8 1.7.5 1.2.8 2.5 1.4 3.5.5.8 1.5 1.3 2 2 .9 1.4 1.8 2.9 1.8 4.6 0 .2-.1.6-.3.7-1 .8-.8 1.6-.2 2.5.6 1 1.2 2.1-.2 3.1.4.7 1 1.3 1.2 2 .5 1.5 1.3 1.4 2.4.8.8-.4 1.7-.7 2.6-.9.4-.1 1.1.1 1.4.4.3.2.3.9.2 1.3-.2.8-.6 1.6-.9 2.5-1.1-.9-2.3-.4-2.9.4-.9 1.3.4 2.2 1.1 3.1 2.4-.7 4.8-1.2 5.2-4.1.5.6.9 1 1.2 1.5.2.3.3.7.3 1-.4 1.3-.1 2.4.7 3.6.7.9.9 2.1 1.5 3.1 1.1 1.8 1.5 1.8 3.2.6.3-.2 1-.2 1.2 0 1.3 1.4 3.1 2 4.8 1.1.9-.4 1.5-.7 2.1.3.6.9.4 1.7-.4 2.3-.5.4-1.1.7-1.6 1.1-.7.5-1.3 1.1-2 1.6.1.1.2.2.2.3-.7.1-1.3.3-2 .3-.4 0-.9-.1-1.2-.3-1-.8-2.1-.7-2.6.5-.1.3-.2.6-.4.9-.1.3-.3.5-.3.6-.8.1-1.5 0-2.1.2-.5.2-.8.8-1.4 1l-.3 1.5c-.1.8-.5.9-1.2.7-1-.3-2-.4-3.1-.7.1.6.2 1 .3 1.6-1.4-.4-2.7-.7-4-1.2-.8-.3-1.5-.7-2.2.1-.1.1-.2.3-.3.3-1.9-1-2.2.6-2.9 1.7-.1.2-.4.3-.6.5-.4-.3-.9-.6-1.4-.9-.6 1.8-1.3 3.3-3.1 4.1-.4.2-.3 1.4-.4 2.3-.4.1-.8.3-1.4.6.9 1.1 1.8 2.2 1.2 4.1-1.1-.9-1.9-1.6-3.1-2.6-.2.9-.3 1.5-.4 2.2-.1.3-.1.6-.2.8-.7.7-.5 1.3 0 2 .2.3.4.8.2 1.1-.5 1.1 0 1.7.9 1.8-.2 1.2-.4 2.2-.6 3.5 1.3-.3 2.3-.5 2.4 1.2 0 .9 1.1 1.2 1.8.7.4-.3.9-.5 1.3-.6 1.3 1 2.6 1.9 3.8 2.8-.3.5-.6 1-1 1.7.7.2 1.2.3 1.7.5.3.1.7.4.7.7.1.2-.2.6-.4.8-.4.5-.9 1-1.4 1.5-.5.4-1 .6-1.8 1.1-.4 1.9-.8 4.1-1.2 6.4-.2 1.1.8 1.4 1.4 1.4 1.5 0 2.9.7 3.1 1.9.5 3.1 2.4 5.1 5.2 6.4 1.5.7 1.5 1 .2 2.1-.2.1-.1.5.1.9.5-.7 1-1.4 1.7-2.4.6.4 1.4.9 1.9 1.5 1.3 1.7 2.8 3 5.1 2-.6.7-1.2 1.3-1.6 2-.2.2-.1.6-.1.9 0 .6-.2 1.4.1 1.9.9 1.6 0 2.7-.5 4.1-.1.3.4 1 .7 1.6h-2.9c1-1.5.2-3.7-1.8-5.1-.8 1.1-1.4 2.4-2.4 3.3-1.5 1.4-2.4 4-5.2 3.4-.6-.1-1.2-.2-1.6-.5-1.5-.8-2.9-1.7-4.3-2.5-.3-.1-.7 0-1.1 0-2.1.3-2.6-.1-2.4-2.2.1-1-.8-1.9-1.9-1.8-.2 0-.5.1-.6 0-1.1-1.7-2.4-.9-3.7-.5-.7.2-1.4 0-2.5 0 1.5-1.4.4-2-.3-2.9-1-1.5-2.1-2.7-3.8-3.2-.8-.3-1.8-.2-2.6-.4-.7-.2-1.5-.4-1.9-.9-1.4-1.8-3.5-2.1-5.3-3-1.1-.5-2.4-.6-3.5-.9-.6-.2-1-.6-1.5-1 .3-.4.6-.9.9-1.3.1-.2.3-.5.3-.7v-2.1c.5.3.9.5 1.2.6.3-.7.6-1.3.9-2.1-.8-.4-1.8-1-3.1-1.7.6-.1 1.1-.3 1.5-.3.5-.1.9 0 1.7 0l-.8-1.2c.3-.2.7-.4 1-.6.4-.4.7-.8 1-1.2.1-.1-.3-.7-.4-.6-.5.2-.9.4-1.4.6-.2.1-.3.2-.5.4-1.2-1-4.8 1.4-5.2 3.4-2.2-.6-3 1.4-4.5 1.9-.5.1-1.3.2-1.4.4-.3 1.2-1 1.1-1.9 1-.7 0-1.4.1-2.3.1-.2.3-.4.7-.6 1.2-1-1.2-1.9-.3-2.7.1-.7.4-1.2.8-2 .3-1-.6-.9-1.1.2-1.7l-1.2-2.4c-.1 0-.2.1-.3.1 0 .5-.1.9-.1 1.3-.5.2-.9.4-1.3.6-.3.2-.6.6-.8.6-1.8-.6-1.7.8-1.9 1.9-1.4-.9-1.4-.9-2 .2.6.3 1.2.7 2 1.2-.8.4-1.4.6-1.9.8-.6.3-1.9-.5-1.8 1 0 .6.4 1.3.8 1.9.8 1.1.8 1.2-.7 2.8-.2-.4-.5-.7-.9-1.3-1.6 2.5-.4 5.2-1.1 7.5-1.8.4-2.3 1-2.2 3.1 0 .3-.2.7-.3 1-.2.5-.5 1-1 1.8 1.6-.2 2.2.3 2.5 1.6.4 1.6 1.8 2.2 3.2 2.8.4.2.6.6.9.9-.4.1-.8.4-1.1.4-2.3-.3-3.6 1.1-5 2.5-.8.7-1.8 1.2-2.9 1.5.4-.5.7-.9 1-1.2-1.7-.5-3.3-.9-4.9-1.3-.7-.2-1.5-.8-1.8.5-.6-.1-1.2-.3-1.6-.4-.9.5-1.8.9-3.1 1.5l2.7 2.1c-.9 1.5-1.4-.9-2.3-.2.2.4.3.7.5 1.1l-.2.2c-.5-.4-1.1-.9-1.8-1.5v1.7c-.7-1.3-1.3-2.3-2-3.6-.5.3-1.4.7-1.4 1 0 1 .3 2 .7 2.8.3.6 1.1 1.1 1.8 1.8-1.3.3-2.6.5-1.3 1.9-1.4 2.5 1.3 1.5 1.9 2.2.7.7 1.8 1 2.4 1.8.4.4.2 1.3.3 2-.9-.1-1.3-1.8-2.2-.6-.3.4-.6 1-.8 1.4.5.2 1 .5 1.6.7-.5.3-1.1.6-1.7.9-.5-.5-.9-1-1.4-1.4-.2.1-.4.2-.6.4.8 1.5 1.6 2.9 2.4 4.3-1.2.2-1.2.2-2.4-1.6-.2.8-.3 1.4-.5 2.4-.5-1.1-.9-1.8-1.3-2.6-.1-.2-.5-.4-.7-.6-.1.5-.3.9-.5 1.5-1.4-.1-1.2-1.5-1.1-2.1.2-1.2.1-2.1-1.1-2.7-.3-.1-.4-.6-.4-1 0-.1.5-.4.8-.4 1.1-.1 2.2-.2 3.3-.2.5 0 1.1.3 1.6.5v.4c.5-.2 1-.4 1.7-.8-1.7-1.6-3.5-2.3-5.6-2-.8.1-1.5.3-2.3.1-.5-.1-.9-.7-1.3-1.1.7-.6 1.2-.9 1.7-1.3-.6-.2-1.3-.4-2-.6-1.5-1.2-1.8-3.8-4.3-4.4 0-.5-.1-1.1-.1-1.6.2-1.8.5-3.6.7-5.4 0-.4-.4-1-.7-1.3-.5-.5-1.3-.7-1.8-1.3-.7-.8-1.6-1.1-2.4-1.5-1.6-.8-2.9-2.1-4.3-3.2-1-.7-1.4-2.2-3.2-1.7-.6.2-1.6-1.3-2.4-2.1-.2-.2-.3-.5-.5-.7.2-.1.5-.2.7-.4-.2-.2-.3-.4-.4-.5-1-.7-2.1-1.2-1.4-3 .2-.5-1.1-1.6-1.7-2.6-.7 1.1-1.2 1.9-1.8 2.9-.3-1.4-1.5-2.4.1-3.6.3-.2.2-.8.3-1.6-1.3.3-2.4.6-3.5.9-.3.1-.6.3-.8.3-1.2-.2-2 .3-2.5 1.5.3.4.7.8 1 1.3-1.8 2-1.3 4.2 1.2 5.1 1.9.7 3.1 2.7 3 4.7 0 .7.6 1.5 1 2.1 1.3 1.8 2.6 3.8 5.4 3.3.4-.1.9.4 1.4.6-.3.4-.6.9-1 1.4 1.5.7 3.1 1.3 4.5 2.2 1.5.9 3.6 1.1 4.5 3 .2.3.5.7.4 1-.1.6-.4 1.1-.6 1.6-.4-.4-1-.7-1.1-1.2-.2-.9-.6-1.1-1.4-1.1-.4 0-.9 0-1.1-.3-.8-.9-1.5-.7-2.1.1-.9 1.3-1.1 3.1-.4 3.6.3.2.8.1 1.3.2v2.8c-1.4.3-2.3.9-2.6 2.5-.1 1.1-1.8 1.7-3.1 1.3.3-.9.6-1.8 1-2.8 1.2-.2 1.3-1.2 1-2.3-.3-.9-.6-1.9-1.1-2.7-.5-.7-1.3-1.3-2.1-1.6-.8-.3-1.2-.5-1.1-1.4.1-1.4-1.2-1.5-1.9-2.1-3.2-2.5-6.8-4.6-9.4-7.8-2-2.3-3.9-4.6-4.4-7.8-.2-1.1-.7-2.1-1.2-3.3-1.2.6-2.4.1-3.7-.5-.9-.4-1.5.2-2.1 1-.4.5-1.1.8-1.7 1.1-1.5.9-3.4.9-4.6 2.5-.3.4-1.7.5-2.3.1-1.1-.7-1.9-1.9-2.8-2.8-.1.1-.1.3-.2.4-1.1-.3-2.1-.6-3.2-.9-.3-.1-.7-.4-.9-.3-1 .4-2.1.7-3 1.3-.5.4-.8 1.2-1 1.9-.1.4 0 .9 0 1.5-.4.1-.8.2-1.3.2.5.1.9.2 1.3.3.2 1.5-.6 2.7-2.2 3-2.1.4-4.3.4-6.3 1-1.2.3-2.1 1.4-3.1 2.1l-3 2.4c-1.6 1.1-2.1 2.5-1.3 4.3.5 1.1.4 1.7-.9 1.7-1.5.1-2.1 1.3-2.9 2.3-.4.5-1.1 1-1.7.9-2.2-.2-3.5.4-4.3 2.1-1.4-.2-2.7-.5-4-.4-1.6.1-2.8-.7-4.2-1.4-.7-.4-1.4-.7-2.1.1-.1.2-.6.1-.9.1-1.2.2-2.4.5-3.6.7 0 .1.1.3.1.4-.4-.3-.9-.5-1.1-.9-.3-.4-.5-1.1-.4-1.4.7-1.4.5-2.4-.8-3.3-.4-.3-.6-.8-.9-1.1-.5-.6-1.1-.7-2-.7-1.2 0-2.5-.7-3.7-1.1-.5-.2-1.1-.4-1.8-.7.4-.6 1-1.4 1.5-2.2.2-.4.3-.9.4-1.4.1-.4.1-.9.3-1.2 1.1-1.8 1-2.1-1-2.9.3-.9.5-1.7.8-2.5.1-.2.2-.4.4-.4 2.4-.3 2.6-2.8 3.9-4.2.5-.5.7-1.4 1-2.2.5-1.3.8-2.6 1.3-3.8.2-.4.8-.6 1.4-1h-1.9c2.1-.9 2.3-2.9 1-4.6 1.2-.5 2.3-1.2 3.2 0 .8-.4 1.5-.8 2.2-1 .7-.2 1.3 0 1.6.8.5 1.3 1.9.9 2.9 1.4 1.6.8 3.4 1.4 5.1 2.1.9.4 1.9.6 2.8 1 .9.4 1.8.9 2.6 1.3.3.1.6.4.9.5 1.4.4 2.8.8 4.5 1.3 1.3-1.7 2.7-3.7 4.3-5.7.1-.9.3-2.1.4-3.2.1 0 .2-.1.3-.1.3.8.7 1.6 1 2.3h.4c-.2-2.2-1.1-4.5.2-6.7-1.9-.3-3.1-2.5-2.3-3.9.1-.1.2-.2.2-.4.1-.5-1.7-3-2.2-3.2-.6-.3-1.1-.8-1.6-1.3-.5-.4-1-.9-1.5-1.2-.5-.3-1.1-.4-1.5-.5.6-.9 1-1.6 1.4-2.3 1 0 2.1.1 3.2.2 0-.2.1-.3.1-.5.6.6 1.1 1.2 1.8 1.9 1.3.3 2.9.7 4.5 1v-5.4c.6.4 1.1.5 1.1.7.3 3.1 3.1 2 4.7 2.9.5.3 1.3.1 2 .2 0-.2.1-.3.1-.5-.4-.3-.9-.6-1.1-.8 1.5-.5 3.1-1 4.7-1.6.4-1.2-.2-2.8 1.4-3.4.6-.2 1.4.1 2.3.2.7-1.1 1.4-1.1 2.9-.1.4.3 1.2.1 1.9 0 .5-.1.9-.4 1.3-.6-.3-.2-.7-.6-1.2-1 .6-.6 2-.6 1.3-1.4.7-1.2 1.4-2.1 1.8-3.2.4-.9.4-1 1.4-.6-.3.5-.6 1-.8 1.5-.1.3 0 .9.2 1 .3.1.9 0 1-.2.3-.7.7-1.4.7-2.1.1-1.6.7-2.1 2.3-1.9.6.1 1.3-.2 1.9-.4.3.6.6 1.2 1 1.8.1-.1.2-.1.4-.2-.2 1-.4 2-.6 2.9.1 0 .2 0 .3.1.2-.9.5-1.7.7-2.6.1-.4-.1-.8-.1-1.2 0-.4.1-1.3.1-1.3.8 0 1.6-.1 2.2.2.6.4.8 1.2 1.4 2.3.3-1.1.6-1.8.9-2.8.7.3 1.5.6 2.4 1-.5-.7-1-1.5-1.5-2.2-.4-.6-.8-1.1.1-1.6.2-.1.2-.6.2-1 1.1 1.4 1.1 1 1.1.5zm1.4 38.9c.8-.7 3.4-.5 3.8.4.7 1.3 1.7 1.6 2.5 1.4-.5-.4-1.3-1-2.2-1.6-.4-.3-.9-.5-1.4-.7-.5-.2-1.2-.1-1.7-.4-.9-.3-.9.2-1 .9-1.6-.6-3.1-1.1-4.7-1.7 0 .1-.1.1-.1.2.8.5 1.7 1.1 2.4 1.5 0-.1.1-.3.1-.3 1 .1 1.6.2 2.3.3zm-13.7-16.8c-.7 0-.2-1.8-1.4-.9-1.1 2-.5 2.9 2 2.9-.3-.7-.4-1.3-.6-2zm58.6-86.7h.4c0-.8-.2-1.6 0-2.3.5-1.4-.2-1.7-1.3-1.9.9.5 1.4 1 .9 2.2-.2.5 0 1.3 0 2zm-20 90.3c1.4.7 2.5 2.7 4.4 1-1.8 1.4-2.9-.5-4.4-1zm28.7-31.5c-.1-.1-.2-.2-.3-.2-.5.4-1.1.8-1.6 1.2.1 0 .2.1.3.1-.1.6-.3 1.1-.4 1.6 1-.1 1.1-.8.7-1.7.5-.4.9-.7 1.3-1zm-67.5 23.1c.1 0 .2.1.3.1.3-1 .7-2 1-3.1-.1 0-.3-.1-.4-.1-.3 1.1-.6 2.1-.9 3.1z"/><path class="st1" d="M428.5 130.5c.2-.4.3-.8.5-1.3.1 0 .2 0 .3.1l-.6-1.5c.4-.9.9-1.8 1.3-2.7 0-.3-1.6-.9-.9-2.4.3-.6 1.3-.8 2.1-1.3 0 0-.1-.4-.2-.4-1.4-.1-2.7-.2-4 0-.5-.3-.9-.6-1.7-1.1 1.4-1 2.7-2 4.3-3.2-1-.7-1.5-1-1.7-1.2 0-.5-.1-1-.1-1.5-.4.1-.9.2-1.4.3.8-.9 1.7-1.9 2.5-2.8-.1-.1-.2-.2-.2-.4-.6.3-1.2.6-1.9.9l-.2-.2c.7-1 1.4-2.1 2.1-3.1v-2c.6.1 1.3.2 2 .3 0-.4-.1-.8-.1-1.2.1.1.2.1.3.2.5-.7 1-1.4 1.4-1.8 1.4.4 2.7.8 4.6 1.3-1.3.6-2.4 1-3.2 1.7-.7.7-2.5.9-1.6 2.7 2-.7 4.1-.7 6 .9-.4.3-.8.7-1.1 1-.2.2-.5.6-.5.9-.1.9-1.3 1.9-2.2 1.9-.5 0-.9 0-1.8-.1.5.6.8.9 1.2 1.3-1 .1-1.9.2-2.7.2 0 .1-.1.2-.1.3.6.2 1.2.5 1.9.6 1.5.2 2.9 2 2.7 3.6-.1 1.2-.1 2.3-.1 3.5 0 .2.1.5.2.5 2 .8 1.6 2.5 1.6 4.1-.4.1-.8.2-1.5.5.5.3.8.5 1 .6 1.2.8 1.3 2 .2 2.9-.7.6-.7.6-.1 1.6.4-.2 1-.6 1.3-.5.9.3 2 .6 2.5 1.3.6.7-.4 2.5-1.4 2.9-.5.2-1.1.3-1.6.5-.3.2-.6.5-1 1-.2 0-.7 0-1.3-.1.6 1.5 1.5 2 2.9 1.6-.7 1.2-2.2 1.9-3.6 1.6-1.4-.3-2.7-.7-4-1.1-.4-.1-.8-.5-1.2-.4-1.1.1-2.2.2-3.2.3 0-.1.1-.2.1-.3-1.2-.4-2.3-.8-3.7-1.3-.2.5-.2.9-.5 1.1-.3.3-1 .6-1.1.4-1.5-1.6-3-.8-4.7-.4 1.5-1.7 3.9-2 5.5-3.5 2.2 1.4 3.7 1.2 5.7-.8-.4-.6-.7-1.3-1.1-2 .6-1.2 1.4-2.6 2.1-4zm-17.9-65.1c-1.1-.7-2-1.4-3.1-2.1 1.2-.5 2.5-.7 3.1-1.5.5-.7.1-2 .1-3.1.6.2 1.4.5 2.2.8.1-.1.1-.3.2-.4-.2-.4-.4-.7-.7-1.1.5.1 1 .2 1.5.2l.3-.3c-.7-.8-1.5-1.5-2.1-2.2.3-.5.7-1.1 1-1.7.3.6.7 1.4 1.1 2.1h.6c.2-.9.4-1.9.6-2.7.9.8.8 2.5-.1 3.5-.5.6-.6 1.6-.8 2.5 0 .2.3.4.3.4.9-.3 1.6-.6 2.3-.8.1.1.1.2.2.3.3-.4.5-.8.9-1.4.1.8.2 1.3.4 2 .8-.5 1.5-.9 2.3-1.3.1.3.2.5.2.6-.1.7-.1 1.4-.2 2.1.7-.1 1.5-.1 2.1-.3.6-.2 1-.4 1.7 0 .4.2 1.3-.5 1.8-.7.1.6.3 1.3.3 1.9 0 .7-.1 1.4-.2 2.3.9.6 1.3 1.6.5 2.8-.5.7-.8 2.4-2.5 1.2-.7 1.9-2.2 1-3.4 1.1-2.3.2-4.7 0-7 0-.2 0-.6.1-.7 0-1-1.8-3.7-1.9-2.9-4.2zm.3 57.5c-1.3 0-2.3-.2-2.4-1.8 1-.4 1.9-.9 1.6-2.3-.1-.2.3-.7.6-.9.2-.1.6.2.9.4.4.3.7.8 1.1 1.1.7.7 1.3.7 1.9-.3.2-.4.7-.6 1.1-.9l-1.2-.9c3-1.7 3-1.7 5.7-1.1-1 .6-1.9 1.1-2.9 1.6l.1.1c1.1-.3 2.1-.8 3.2-.9.5-.1 1.3.4 1.4.8.2.6 1.2 1.3.1 2-.1.1-.3.3-.2.3 1 1.9-.9 1.8-1.7 2.5-.2.2-.3.4-.4.6-.4 1.4-.8 2.8-1.1 4.2-.4 1.3-1.9 2.2-3.3 2.3-1.6 0-3.1.3-4.7.7-1.1.3-4.4-.2-5-1.2-.3-.5.2-1.5-1.1-1.4.6-.2 1.2-.5 2.1-.9-.8-.3-1.3-.4-1.8-.6v-.3c1.6-.1 3.3-.2 5.2-.3-.7-.3-1.2-.6-2.1-1 1.2-.6 2.1-1 3.1-1.5-.1.1-.1-.1-.2-.3zm65.9 86.3c-.5 1.1-1 2.1-1.4 3.1-.2.5.1 1.2-.1 1.8-.2.6-.5 1.4-1 1.6-.5.2-1.5.6-1.8-.4-.3-1-1-1.1-1.9-1.5-1.3-.5-2.5-1.5-3.8-2.2-.6-.4-1.3-.6-1.9-.9.4-1.6 2.1-2.4 3.4-1.4 1.6 1.1 3.1 1 4.7.6 1.3-.3 2.5-.4 3.8-.7zm-25.4-10.9c-1.6-.4-1.2-1.7-1.5-2.7 0-.2 1-.7 1.6-1 .4-.2.8-.4 1.2-.4.7 0 1.4-1.2 2-.2.6 1 1.1 2 .4 3.3-.6 1.1-.6 2.6-.8 3.9-.1.5-.1 1-.1 1.4-2.2-.5-2.2-.5-2.7.6-1.8-.2-1.9-2.2-.1-4.9zm90.7-29.7c.1.1.4.3.8.6.3-.3.5-.6.5-.6 1.3.8 2.5 1.5 3.7 2.3 1.8 1.2 2.6-1.5 4.2-1.1.1.5.2.9.4 1.6-.6.1-1.2.3-1.8.2-2.1-.3-2.2-.3-3 1.4-.6.4-1.6.6-1.9 1.1-.7 1.8-1.7 2-3.3 1.2.3-2.7.2-2.9-3.1-3.9 1.1-.8 2.2-1.7 3.5-2.8zm-78.6-39.4c-.4-2.6-2.2-5.2-.7-8.1.5.2.9.5 1.3.7.3-.3.5-.6.6-.7.5.2 1 .4 1.6.7-.1-.5-.2-.8-.2-1.1.6-.2 1.3-.4 1.8-.6.1.6.1 1.4.4 1.9.3.5 1.6.3 1 1.5-.6 0-1.6-.8-1.4.9.1.5-1.1 1.3-1.7 1.8-1.1.8-1.3 1.9-1.3 3.3-.4-.1-1-.2-1.4-.3-.1 0 0 0 0 0z"/><path class="st1" d="M428.5 130.5c-.7 1.4-1.5 2.9-2.2 4.3.4.8.3 1.7-.6 2-.7.2-1.7.5-2.2-.8-.2-.6-.7-1.2-1.3-1.6-.4-.2-1 .1-1.5.1-.3-.4-.6-.8-.8-1.1 1.2-.3 2.4-.5 3.5-.8 1.6-.4 1-2 1.8-3.1H424v-.3c2.9-1 3-.9 4.5 1.3zm26.1 61.7c-1-.8-1.8-3.5-1.4-4.3.5-1.1 1.5-1.5 2.7-1.5.9 2.3-1.2 3.7-1.3 5.8zm15.1-63.8c.1-.3.2-.7.2-1-.4-1 .3-1.1.9-.9 1.1.2 2.2-.6 2.2-1.7h.4c-.1.7-.1 1.4-.3 2-.4 1.8-1.2 3-3.4 1.6zM546 52.9c.8.5 1.7.8 2 1.4.3.6-.1 1.4-.2 2.2-2.3-.8-2.7-1.5-1.8-3.6zm-78.9 65.3c.7-.5 1.3-1.1 2.4-1.9.1 1 .2 1.6.3 2.2-.8.1-1.6.1-2.4.2-.2-.1-.3-.3-.3-.5zm1.1 10.7c-.5-.4-.9-.8-1.4-1.2.4-.2 1-.7 1.2-.5.4.3.6.9.9 1.3-.3.1-.5.3-.7.4zm32.9-15c.8-.2 1.5-.3 2.2-.5.1.1.1.2.2.4-.7.5-1.5.9-2.4 1.5v-1.4zm11.2 95.6c-1-.8-2.2-1.8-3.4-2.7 1.8.2 3.2 1.3 3.4 2.7z"/></svg>